%TF.GenerationSoftware,KiCad,Pcbnew,9.0.0*%
%TF.CreationDate,2025-05-07T00:17:43-06:00*%
%TF.ProjectId,2025_04_STM32F103_RobotBrain,32303235-5f30-4345-9f53-544d33324631,rev?*%
%TF.SameCoordinates,Original*%
%TF.FileFunction,Copper,L2,Bot*%
%TF.FilePolarity,Positive*%
%FSLAX46Y46*%
G04 Gerber Fmt 4.6, Leading zero omitted, Abs format (unit mm)*
G04 Created by KiCad (PCBNEW 9.0.0) date 2025-05-07 00:17:43*
%MOMM*%
%LPD*%
G01*
G04 APERTURE LIST*
G04 Aperture macros list*
%AMRoundRect*
0 Rectangle with rounded corners*
0 $1 Rounding radius*
0 $2 $3 $4 $5 $6 $7 $8 $9 X,Y pos of 4 corners*
0 Add a 4 corners polygon primitive as box body*
4,1,4,$2,$3,$4,$5,$6,$7,$8,$9,$2,$3,0*
0 Add four circle primitives for the rounded corners*
1,1,$1+$1,$2,$3*
1,1,$1+$1,$4,$5*
1,1,$1+$1,$6,$7*
1,1,$1+$1,$8,$9*
0 Add four rect primitives between the rounded corners*
20,1,$1+$1,$2,$3,$4,$5,0*
20,1,$1+$1,$4,$5,$6,$7,0*
20,1,$1+$1,$6,$7,$8,$9,0*
20,1,$1+$1,$8,$9,$2,$3,0*%
G04 Aperture macros list end*
%TA.AperFunction,ComponentPad*%
%ADD10RoundRect,0.250000X0.600000X0.750000X-0.600000X0.750000X-0.600000X-0.750000X0.600000X-0.750000X0*%
%TD*%
%TA.AperFunction,ComponentPad*%
%ADD11O,1.700000X2.000000*%
%TD*%
%TA.AperFunction,ComponentPad*%
%ADD12R,1.700000X1.700000*%
%TD*%
%TA.AperFunction,ComponentPad*%
%ADD13O,1.700000X1.700000*%
%TD*%
%TA.AperFunction,ComponentPad*%
%ADD14RoundRect,0.250000X0.600000X0.725000X-0.600000X0.725000X-0.600000X-0.725000X0.600000X-0.725000X0*%
%TD*%
%TA.AperFunction,ComponentPad*%
%ADD15O,1.700000X1.950000*%
%TD*%
%TA.AperFunction,ComponentPad*%
%ADD16RoundRect,0.250000X0.725000X-0.600000X0.725000X0.600000X-0.725000X0.600000X-0.725000X-0.600000X0*%
%TD*%
%TA.AperFunction,ComponentPad*%
%ADD17O,1.950000X1.700000*%
%TD*%
%TA.AperFunction,ViaPad*%
%ADD18C,0.600000*%
%TD*%
%TA.AperFunction,Conductor*%
%ADD19C,0.254000*%
%TD*%
%TA.AperFunction,Conductor*%
%ADD20C,0.381000*%
%TD*%
G04 APERTURE END LIST*
D10*
%TO.P,J6,1,Pin_1*%
%TO.N,+3V3*%
X136260000Y-100490000D03*
D11*
%TO.P,J6,2,Pin_2*%
%TO.N,GND*%
X133760000Y-100490000D03*
%TD*%
D12*
%TO.P,J9,1,Pin_1*%
%TO.N,+3V3*%
X162550000Y-51670000D03*
D13*
%TO.P,J9,2,Pin_2*%
%TO.N,/PS2_SCK*%
X162550000Y-49130000D03*
%TO.P,J9,3,Pin_3*%
%TO.N,unconnected-(J9-Pin_3-Pad3)*%
X162550000Y-46590000D03*
%TO.P,J9,4,Pin_4*%
%TO.N,/PS2_CS*%
X162550000Y-44050000D03*
%TO.P,J9,5,Pin_5*%
%TO.N,GND*%
X162550000Y-41510000D03*
%TO.P,J9,6,Pin_6*%
%TO.N,/PS2_MISO*%
X162550000Y-38970000D03*
%TO.P,J9,7,Pin_7*%
%TO.N,/PS2_MOSI*%
X162550000Y-36430000D03*
%TD*%
D14*
%TO.P,J8,1,Pin_1*%
%TO.N,/E2A*%
X163690000Y-82690000D03*
D15*
%TO.P,J8,2,Pin_2*%
%TO.N,/E2B*%
X161190000Y-82690000D03*
%TO.P,J8,3,Pin_3*%
%TO.N,/E1A*%
X158690000Y-82690000D03*
%TO.P,J8,4,Pin_4*%
%TO.N,/E1B*%
X156190000Y-82690000D03*
%TO.P,J8,5,Pin_5*%
%TO.N,/PWR_ADC*%
X153690000Y-82690000D03*
%TD*%
D12*
%TO.P,J2,1,Pin_1*%
%TO.N,+5V*%
X160865000Y-56555000D03*
D13*
%TO.P,J2,2,Pin_2*%
%TO.N,GND*%
X160865000Y-59095000D03*
%TO.P,J2,3,Pin_3*%
%TO.N,/IMU_I2C_SCL*%
X160865000Y-61635000D03*
%TO.P,J2,4,Pin_4*%
%TO.N,/IMU_I2C_SDA*%
X160865000Y-64175000D03*
%TO.P,J2,5,Pin_5*%
%TO.N,unconnected-(J2-Pin_5-Pad5)*%
X160865000Y-66715000D03*
%TO.P,J2,6,Pin_6*%
%TO.N,unconnected-(J2-Pin_6-Pad6)*%
X160865000Y-69255000D03*
%TO.P,J2,7,Pin_7*%
%TO.N,unconnected-(J2-Pin_7-Pad7)*%
X160865000Y-71795000D03*
%TO.P,J2,8,Pin_8*%
%TO.N,/IMU_INT*%
X160865000Y-74335000D03*
%TD*%
D12*
%TO.P,J4,1,Pin_1*%
%TO.N,+3V3*%
X108520000Y-53530000D03*
D13*
%TO.P,J4,2,Pin_2*%
%TO.N,/SWCLK*%
X111060000Y-53530000D03*
%TO.P,J4,3,Pin_3*%
%TO.N,GND*%
X113600000Y-53530000D03*
%TO.P,J4,4,Pin_4*%
%TO.N,/SWDIO*%
X116140000Y-53530000D03*
%TD*%
D14*
%TO.P,J11,1,Pin_1*%
%TO.N,+3V3*%
X102730000Y-53530000D03*
D15*
%TO.P,J11,2,Pin_2*%
%TO.N,/USER_TX*%
X100230000Y-53530000D03*
%TO.P,J11,3,Pin_3*%
%TO.N,/USER_RX*%
X97730000Y-53530000D03*
%TO.P,J11,4,Pin_4*%
%TO.N,GND*%
X95230000Y-53530000D03*
%TD*%
D12*
%TO.P,J3,1,Pin_1*%
%TO.N,+5V*%
X178850000Y-73600000D03*
D13*
%TO.P,J3,2,Pin_2*%
%TO.N,/ULTRA_TRIG*%
X178850000Y-71060000D03*
%TO.P,J3,3,Pin_3*%
%TO.N,/ULTRA_ECHO*%
X178850000Y-68520000D03*
%TO.P,J3,4,Pin_4*%
%TO.N,GND*%
X178850000Y-65980000D03*
%TD*%
D14*
%TO.P,J7,1,Pin_1*%
%TO.N,/AN2*%
X154930000Y-45150000D03*
D15*
%TO.P,J7,2,Pin_2*%
%TO.N,/AN1*%
X152430000Y-45150000D03*
%TO.P,J7,3,Pin_3*%
%TO.N,/BN2*%
X149930000Y-45150000D03*
%TO.P,J7,4,Pin_4*%
%TO.N,/BN1*%
X147430000Y-45150000D03*
%TD*%
D10*
%TO.P,J5,1,Pin_1*%
%TO.N,+5V*%
X127460000Y-100490000D03*
D11*
%TO.P,J5,2,Pin_2*%
%TO.N,GND*%
X124960000Y-100490000D03*
%TD*%
D16*
%TO.P,J10,1,Pin_1*%
%TO.N,+3V3*%
X95345000Y-73210000D03*
D17*
%TO.P,J10,2,Pin_2*%
%TO.N,/X1*%
X95345000Y-70710000D03*
%TO.P,J10,3,Pin_3*%
%TO.N,/X2*%
X95345000Y-68210000D03*
%TO.P,J10,4,Pin_4*%
%TO.N,/X3*%
X95345000Y-65710000D03*
%TO.P,J10,5,Pin_5*%
%TO.N,/X4*%
X95345000Y-63210000D03*
%TO.P,J10,6,Pin_6*%
%TO.N,GND*%
X95345000Y-60710000D03*
%TD*%
D18*
%TO.N,GND*%
X159710000Y-103540000D03*
X160550000Y-100530000D03*
X156720000Y-75590000D03*
X156080000Y-78460000D03*
X154260000Y-78430000D03*
X153310000Y-76100000D03*
%TO.N,/E2B*%
X126000000Y-70750000D03*
%TO.N,GND*%
X127290000Y-70830000D03*
%TO.N,/E2A*%
X128380000Y-70890000D03*
%TO.N,GND*%
X126930000Y-73740000D03*
%TO.N,/E2B*%
X126410000Y-73040000D03*
%TO.N,/E2A*%
X127620000Y-73040000D03*
%TO.N,GND*%
X150210000Y-95470000D03*
X150230000Y-92850000D03*
%TO.N,+3V3*%
X149430000Y-93070000D03*
X149430000Y-95220000D03*
%TO.N,/PWR_ADC*%
X152420000Y-75910000D03*
%TO.N,/E1B*%
X154333005Y-75976995D03*
%TO.N,/E1A*%
X155640000Y-75810000D03*
X156890000Y-78570000D03*
%TO.N,/E1B*%
X155120000Y-78560000D03*
%TO.N,/PWR_ADC*%
X153250000Y-78510000D03*
%TO.N,GND*%
X110770000Y-88130000D03*
X118030000Y-90760000D03*
X117650000Y-87300000D03*
X118530000Y-77520000D03*
%TO.N,+3V3*%
X159030000Y-102920000D03*
X159610000Y-100760000D03*
%TO.N,GND*%
X172940000Y-59400000D03*
X175930000Y-57750000D03*
%TO.N,+5V*%
X173580000Y-58670000D03*
X175330000Y-58660000D03*
%TO.N,GND*%
X155060000Y-71180000D03*
X152020000Y-71180000D03*
X175380000Y-76510000D03*
X173470000Y-73270000D03*
%TO.N,+3V3*%
X174430000Y-73110000D03*
X174430000Y-76690000D03*
%TO.N,GND*%
X153270000Y-34990000D03*
X154190000Y-33600000D03*
%TO.N,+3V3*%
X154460000Y-34970000D03*
X155140000Y-33670000D03*
%TO.N,*%
X148970000Y-65390000D03*
%TO.N,+3V3*%
X147020000Y-63140000D03*
X149280000Y-64640000D03*
%TO.N,GND*%
X135510000Y-80550000D03*
X149670000Y-37870000D03*
X140990000Y-44260000D03*
X133170000Y-77030000D03*
X136730000Y-46900000D03*
X147520000Y-76292500D03*
X132000000Y-88830000D03*
X144300000Y-75280000D03*
X139050000Y-83120000D03*
X138040000Y-78980000D03*
X144930000Y-36300000D03*
X129470000Y-75970000D03*
X141060000Y-87940000D03*
X150090000Y-36450000D03*
X151580000Y-36940000D03*
X147540000Y-62370000D03*
X127800000Y-81195000D03*
X140780000Y-66150000D03*
X131720000Y-72610000D03*
X107990000Y-90667500D03*
X154540000Y-39170000D03*
X136300000Y-83140000D03*
X148070000Y-30900000D03*
X129300000Y-62460000D03*
X133000000Y-64800000D03*
X135030000Y-35750000D03*
X132420000Y-83140000D03*
X154470000Y-30780000D03*
X144100000Y-63450000D03*
X143060000Y-72650000D03*
X138010000Y-73910000D03*
%TD*%
D19*
%TO.N,/E2B*%
X126000000Y-70880000D02*
X126000000Y-70750000D01*
X126410000Y-71290000D02*
X126000000Y-70880000D01*
X126410000Y-73040000D02*
X126410000Y-71290000D01*
%TO.N,/E2A*%
X127620000Y-71750000D02*
X128380000Y-70890000D01*
X127620000Y-73040000D02*
X127620000Y-71750000D01*
D20*
%TO.N,+3V3*%
X149430000Y-93300000D02*
X149430000Y-93070000D01*
X149430000Y-95220000D02*
X149430000Y-93300000D01*
D19*
%TO.N,/E1B*%
X154333005Y-75976995D02*
X154290000Y-75920000D01*
%TO.N,/PWR_ADC*%
X152420000Y-77680000D02*
X152420000Y-75910000D01*
X153250000Y-78510000D02*
X152420000Y-77680000D01*
%TO.N,/E1A*%
X156890000Y-77450000D02*
X155640000Y-75810000D01*
X156890000Y-78570000D02*
X156890000Y-77450000D01*
%TO.N,/E1B*%
X155120000Y-77020000D02*
X154333005Y-75976995D01*
X155120000Y-78560000D02*
X155120000Y-77020000D01*
D20*
%TO.N,+5V*%
X175320000Y-58670000D02*
X175330000Y-58660000D01*
X173580000Y-58670000D02*
X175320000Y-58670000D01*
%TO.N,+3V3*%
X159610000Y-102340000D02*
X159030000Y-102920000D01*
X159610000Y-100760000D02*
X159610000Y-102340000D01*
X174430000Y-76690000D02*
X174430000Y-73110000D01*
X155140000Y-34290000D02*
X154460000Y-34970000D01*
X155140000Y-33670000D02*
X155140000Y-34290000D01*
X148520000Y-64640000D02*
X149280000Y-64640000D01*
X147020000Y-63140000D02*
X148520000Y-64640000D01*
%TD*%
%TA.AperFunction,Conductor*%
%TO.N,GND*%
G36*
X155952703Y-77259727D02*
G01*
X155970119Y-77278271D01*
X156131879Y-77490500D01*
X156237120Y-77628575D01*
X156262103Y-77693826D01*
X156262500Y-77703743D01*
X156262500Y-78030642D01*
X156242815Y-78097681D01*
X156241602Y-78099533D01*
X156180609Y-78190814D01*
X156180604Y-78190823D01*
X156121563Y-78333363D01*
X156077722Y-78387766D01*
X156011428Y-78409831D01*
X155943729Y-78392552D01*
X155896118Y-78341415D01*
X155892369Y-78332004D01*
X155892068Y-78332130D01*
X155829397Y-78180827D01*
X155829390Y-78180814D01*
X155768398Y-78089533D01*
X155747520Y-78022855D01*
X155747500Y-78020642D01*
X155747500Y-77353440D01*
X155767185Y-77286401D01*
X155819989Y-77240646D01*
X155889147Y-77230702D01*
X155952703Y-77259727D01*
G37*
%TD.AperFunction*%
%TA.AperFunction,Conductor*%
G36*
X179103736Y-30250727D02*
G01*
X179393796Y-30268272D01*
X179408657Y-30270076D01*
X179690797Y-30321781D01*
X179705334Y-30325364D01*
X179979182Y-30410699D01*
X179993163Y-30416001D01*
X180254732Y-30533724D01*
X180267987Y-30540681D01*
X180513458Y-30689072D01*
X180525776Y-30697574D01*
X180751573Y-30874474D01*
X180762781Y-30884404D01*
X180965595Y-31087219D01*
X180975525Y-31098427D01*
X181152422Y-31324218D01*
X181160928Y-31336541D01*
X181309315Y-31582004D01*
X181316274Y-31595263D01*
X181433996Y-31856832D01*
X181439305Y-31870833D01*
X181524634Y-32144664D01*
X181528218Y-32159202D01*
X181579922Y-32441340D01*
X181581727Y-32456205D01*
X181589097Y-32578033D01*
X181595513Y-32684110D01*
X181599274Y-32746274D01*
X181599500Y-32753761D01*
X181599500Y-106746250D01*
X181599274Y-106753737D01*
X181581728Y-107043795D01*
X181579923Y-107058660D01*
X181528219Y-107340798D01*
X181524635Y-107355336D01*
X181439304Y-107629175D01*
X181433994Y-107643177D01*
X181316277Y-107904731D01*
X181309319Y-107917989D01*
X181160928Y-108163459D01*
X181152422Y-108175782D01*
X180975525Y-108401573D01*
X180965595Y-108412781D01*
X180762781Y-108615596D01*
X180751573Y-108625526D01*
X180525782Y-108802422D01*
X180513458Y-108810928D01*
X180267987Y-108959319D01*
X180254730Y-108966277D01*
X179993176Y-109083994D01*
X179979174Y-109089304D01*
X179705335Y-109174635D01*
X179690797Y-109178219D01*
X179408659Y-109229923D01*
X179393794Y-109231728D01*
X179200701Y-109243408D01*
X179103712Y-109249275D01*
X179096240Y-109249501D01*
X95103752Y-109249501D01*
X95096265Y-109249275D01*
X94806205Y-109231729D01*
X94791340Y-109229924D01*
X94509202Y-109178220D01*
X94494664Y-109174636D01*
X94220832Y-109089307D01*
X94206831Y-109083998D01*
X93945263Y-108966276D01*
X93932004Y-108959317D01*
X93686540Y-108810929D01*
X93674217Y-108802423D01*
X93448426Y-108625527D01*
X93437218Y-108615597D01*
X93234403Y-108412782D01*
X93224473Y-108401574D01*
X93224472Y-108401573D01*
X93047572Y-108175777D01*
X93039074Y-108163466D01*
X92890679Y-107917989D01*
X92883724Y-107904737D01*
X92766001Y-107643168D01*
X92760692Y-107629167D01*
X92752095Y-107601579D01*
X92675362Y-107355335D01*
X92671779Y-107340798D01*
X92620075Y-107058660D01*
X92618270Y-107043795D01*
X92600726Y-106753752D01*
X92600500Y-106746265D01*
X92600500Y-102841153D01*
X158229500Y-102841153D01*
X158229500Y-102998846D01*
X158260261Y-103153489D01*
X158260264Y-103153501D01*
X158320602Y-103299172D01*
X158320609Y-103299185D01*
X158408210Y-103430288D01*
X158408213Y-103430292D01*
X158519707Y-103541786D01*
X158519711Y-103541789D01*
X158650814Y-103629390D01*
X158650827Y-103629397D01*
X158796498Y-103689735D01*
X158796503Y-103689737D01*
X158951153Y-103720499D01*
X158951156Y-103720500D01*
X158951158Y-103720500D01*
X159108844Y-103720500D01*
X159108845Y-103720499D01*
X159263497Y-103689737D01*
X159409179Y-103629394D01*
X159540289Y-103541789D01*
X159651789Y-103430289D01*
X159739394Y-103299179D01*
X159799737Y-103153497D01*
X159799739Y-103153489D01*
X159801507Y-103147662D01*
X159803856Y-103148374D01*
X159831216Y-103096033D01*
X159832688Y-103094532D01*
X160146735Y-102780486D01*
X160222356Y-102667311D01*
X160274445Y-102541557D01*
X160281651Y-102505331D01*
X160301000Y-102408060D01*
X160301000Y-101204322D01*
X160318277Y-101145482D01*
X160316525Y-101144546D01*
X160319390Y-101139184D01*
X160319394Y-101139179D01*
X160379737Y-100993497D01*
X160410500Y-100838842D01*
X160410500Y-100681158D01*
X160410500Y-100681155D01*
X160410499Y-100681153D01*
X160379737Y-100526503D01*
X160379735Y-100526498D01*
X160319397Y-100380827D01*
X160319390Y-100380814D01*
X160231789Y-100249711D01*
X160231786Y-100249707D01*
X160120292Y-100138213D01*
X160120288Y-100138210D01*
X159989185Y-100050609D01*
X159989172Y-100050602D01*
X159843501Y-99990264D01*
X159843489Y-99990261D01*
X159688845Y-99959500D01*
X159688842Y-99959500D01*
X159531158Y-99959500D01*
X159531155Y-99959500D01*
X159376510Y-99990261D01*
X159376498Y-99990264D01*
X159230827Y-100050602D01*
X159230814Y-100050609D01*
X159099711Y-100138210D01*
X159099707Y-100138213D01*
X158988213Y-100249707D01*
X158988210Y-100249711D01*
X158900609Y-100380814D01*
X158900602Y-100380827D01*
X158840264Y-100526498D01*
X158840261Y-100526510D01*
X158809500Y-100681153D01*
X158809500Y-100838846D01*
X158840261Y-100993489D01*
X158840264Y-100993501D01*
X158900603Y-101139174D01*
X158903475Y-101144546D01*
X158901317Y-101145699D01*
X158918980Y-101202108D01*
X158919000Y-101204322D01*
X158919000Y-102002414D01*
X158910354Y-102031856D01*
X158903831Y-102061843D01*
X158900077Y-102066857D01*
X158899315Y-102069453D01*
X158882680Y-102090097D01*
X158855568Y-102117208D01*
X158801753Y-102146591D01*
X158802331Y-102148495D01*
X158796500Y-102150263D01*
X158650827Y-102210602D01*
X158650814Y-102210609D01*
X158519711Y-102298210D01*
X158519707Y-102298213D01*
X158408213Y-102409707D01*
X158408210Y-102409711D01*
X158320609Y-102540814D01*
X158320602Y-102540827D01*
X158260264Y-102686498D01*
X158260261Y-102686510D01*
X158229500Y-102841153D01*
X92600500Y-102841153D01*
X92600500Y-100233753D01*
X123610000Y-100233753D01*
X123610000Y-100240000D01*
X124526988Y-100240000D01*
X124494075Y-100297007D01*
X124460000Y-100424174D01*
X124460000Y-100555826D01*
X124494075Y-100682993D01*
X124526988Y-100740000D01*
X123610000Y-100740000D01*
X123610000Y-100746246D01*
X123643242Y-100956127D01*
X123643242Y-100956130D01*
X123708904Y-101158217D01*
X123805379Y-101347557D01*
X123930272Y-101519459D01*
X123930276Y-101519464D01*
X124080535Y-101669723D01*
X124080540Y-101669727D01*
X124252442Y-101794620D01*
X124441782Y-101891095D01*
X124643871Y-101956757D01*
X124710000Y-101967231D01*
X124710000Y-100923012D01*
X124767007Y-100955925D01*
X124894174Y-100990000D01*
X125025826Y-100990000D01*
X125152993Y-100955925D01*
X125210000Y-100923012D01*
X125210000Y-101967230D01*
X125276126Y-101956757D01*
X125276129Y-101956757D01*
X125478217Y-101891095D01*
X125667557Y-101794620D01*
X125839458Y-101669728D01*
X125978330Y-101530856D01*
X126039653Y-101497371D01*
X126109345Y-101502355D01*
X126165279Y-101544226D01*
X126171551Y-101553440D01*
X126175185Y-101559331D01*
X126175186Y-101559334D01*
X126267288Y-101708656D01*
X126391344Y-101832712D01*
X126540666Y-101924814D01*
X126707203Y-101979999D01*
X126809991Y-101990500D01*
X128110008Y-101990499D01*
X128212797Y-101979999D01*
X128379334Y-101924814D01*
X128528656Y-101832712D01*
X128652712Y-101708656D01*
X128744814Y-101559334D01*
X128799999Y-101392797D01*
X128810500Y-101290009D01*
X128810499Y-100233753D01*
X132410000Y-100233753D01*
X132410000Y-100240000D01*
X133326988Y-100240000D01*
X133294075Y-100297007D01*
X133260000Y-100424174D01*
X133260000Y-100555826D01*
X133294075Y-100682993D01*
X133326988Y-100740000D01*
X132410000Y-100740000D01*
X132410000Y-100746246D01*
X132443242Y-100956127D01*
X132443242Y-100956130D01*
X132508904Y-101158217D01*
X132605379Y-101347557D01*
X132730272Y-101519459D01*
X132730276Y-101519464D01*
X132880535Y-101669723D01*
X132880540Y-101669727D01*
X133052442Y-101794620D01*
X133241782Y-101891095D01*
X133443871Y-101956757D01*
X133510000Y-101967231D01*
X133510000Y-100923012D01*
X133567007Y-100955925D01*
X133694174Y-100990000D01*
X133825826Y-100990000D01*
X133952993Y-100955925D01*
X134010000Y-100923012D01*
X134010000Y-101967230D01*
X134076126Y-101956757D01*
X134076129Y-101956757D01*
X134278217Y-101891095D01*
X134467557Y-101794620D01*
X134639458Y-101669728D01*
X134778330Y-101530856D01*
X134839653Y-101497371D01*
X134909345Y-101502355D01*
X134965279Y-101544226D01*
X134971551Y-101553440D01*
X134975185Y-101559331D01*
X134975186Y-101559334D01*
X135067288Y-101708656D01*
X135191344Y-101832712D01*
X135340666Y-101924814D01*
X135507203Y-101979999D01*
X135609991Y-101990500D01*
X136910008Y-101990499D01*
X137012797Y-101979999D01*
X137179334Y-101924814D01*
X137328656Y-101832712D01*
X137452712Y-101708656D01*
X137544814Y-101559334D01*
X137599999Y-101392797D01*
X137610500Y-101290009D01*
X137610499Y-99689992D01*
X137599999Y-99587203D01*
X137544814Y-99420666D01*
X137452712Y-99271344D01*
X137328656Y-99147288D01*
X137179334Y-99055186D01*
X137012797Y-99000001D01*
X137012795Y-99000000D01*
X136910010Y-98989500D01*
X135609998Y-98989500D01*
X135609981Y-98989501D01*
X135507203Y-99000000D01*
X135507200Y-99000001D01*
X135340668Y-99055185D01*
X135340663Y-99055187D01*
X135191342Y-99147289D01*
X135067289Y-99271342D01*
X134971551Y-99426559D01*
X134919603Y-99473283D01*
X134850640Y-99484506D01*
X134786558Y-99456662D01*
X134778331Y-99449143D01*
X134639464Y-99310276D01*
X134639459Y-99310272D01*
X134467557Y-99185379D01*
X134278215Y-99088903D01*
X134076124Y-99023241D01*
X134010000Y-99012768D01*
X134010000Y-100056988D01*
X133952993Y-100024075D01*
X133825826Y-99990000D01*
X133694174Y-99990000D01*
X133567007Y-100024075D01*
X133510000Y-100056988D01*
X133510000Y-99012768D01*
X133509999Y-99012768D01*
X133443875Y-99023241D01*
X133241784Y-99088903D01*
X133052442Y-99185379D01*
X132880540Y-99310272D01*
X132880535Y-99310276D01*
X132730276Y-99460535D01*
X132730272Y-99460540D01*
X132605379Y-99632442D01*
X132508904Y-99821782D01*
X132443242Y-100023869D01*
X132443242Y-100023872D01*
X132410000Y-100233753D01*
X128810499Y-100233753D01*
X128810499Y-99689992D01*
X128799999Y-99587203D01*
X128744814Y-99420666D01*
X128652712Y-99271344D01*
X128528656Y-99147288D01*
X128379334Y-99055186D01*
X128212797Y-99000001D01*
X128212795Y-99000000D01*
X128110010Y-98989500D01*
X126809998Y-98989500D01*
X126809981Y-98989501D01*
X126707203Y-99000000D01*
X126707200Y-99000001D01*
X126540668Y-99055185D01*
X126540663Y-99055187D01*
X126391342Y-99147289D01*
X126267289Y-99271342D01*
X126171551Y-99426559D01*
X126119603Y-99473283D01*
X126050640Y-99484506D01*
X125986558Y-99456662D01*
X125978331Y-99449143D01*
X125839464Y-99310276D01*
X125839459Y-99310272D01*
X125667557Y-99185379D01*
X125478215Y-99088903D01*
X125276124Y-99023241D01*
X125210000Y-99012768D01*
X125210000Y-100056988D01*
X125152993Y-100024075D01*
X125025826Y-99990000D01*
X124894174Y-99990000D01*
X124767007Y-100024075D01*
X124710000Y-100056988D01*
X124710000Y-99012768D01*
X124709999Y-99012768D01*
X124643875Y-99023241D01*
X124441784Y-99088903D01*
X124252442Y-99185379D01*
X124080540Y-99310272D01*
X124080535Y-99310276D01*
X123930276Y-99460535D01*
X123930272Y-99460540D01*
X123805379Y-99632442D01*
X123708904Y-99821782D01*
X123643242Y-100023869D01*
X123643242Y-100023872D01*
X123610000Y-100233753D01*
X92600500Y-100233753D01*
X92600500Y-94135259D01*
X106349500Y-94135259D01*
X106349500Y-94364742D01*
X106374446Y-94554216D01*
X106379452Y-94592239D01*
X106415153Y-94725479D01*
X106438842Y-94813888D01*
X106526650Y-95025877D01*
X106526657Y-95025891D01*
X106641392Y-95224618D01*
X106781081Y-95406662D01*
X106781089Y-95406671D01*
X106943330Y-95568912D01*
X106943338Y-95568919D01*
X107125382Y-95708608D01*
X107125385Y-95708609D01*
X107125388Y-95708612D01*
X107324112Y-95823345D01*
X107324117Y-95823347D01*
X107324123Y-95823350D01*
X107415480Y-95861191D01*
X107536113Y-95911159D01*
X107757762Y-95970549D01*
X107985266Y-96000501D01*
X107985273Y-96000501D01*
X108214727Y-96000501D01*
X108214734Y-96000501D01*
X108442238Y-95970549D01*
X108663887Y-95911159D01*
X108875888Y-95823345D01*
X109074612Y-95708612D01*
X109256661Y-95568920D01*
X109256665Y-95568915D01*
X109256670Y-95568912D01*
X109418911Y-95406671D01*
X109418914Y-95406666D01*
X109418919Y-95406662D01*
X109558611Y-95224613D01*
X109673344Y-95025889D01*
X109761158Y-94813888D01*
X109820548Y-94592239D01*
X109850500Y-94364735D01*
X109850500Y-94135267D01*
X109820548Y-93907763D01*
X109761158Y-93686114D01*
X109689082Y-93512108D01*
X109673349Y-93474124D01*
X109673346Y-93474118D01*
X109673344Y-93474113D01*
X109558611Y-93275389D01*
X109558608Y-93275386D01*
X109558607Y-93275383D01*
X109418918Y-93093339D01*
X109418911Y-93093331D01*
X109316733Y-92991153D01*
X148629500Y-92991153D01*
X148629500Y-93148846D01*
X148660261Y-93303489D01*
X148660264Y-93303501D01*
X148720603Y-93449174D01*
X148723475Y-93454546D01*
X148721317Y-93455699D01*
X148738980Y-93512108D01*
X148739000Y-93514322D01*
X148739000Y-94775677D01*
X148721724Y-94834509D01*
X148723479Y-94835447D01*
X148720602Y-94840828D01*
X148660264Y-94986498D01*
X148660261Y-94986510D01*
X148629500Y-95141153D01*
X148629500Y-95298846D01*
X148660261Y-95453489D01*
X148660264Y-95453501D01*
X148720602Y-95599172D01*
X148720609Y-95599185D01*
X148808210Y-95730288D01*
X148808213Y-95730292D01*
X148919707Y-95841786D01*
X148919711Y-95841789D01*
X149050814Y-95929390D01*
X149050827Y-95929397D01*
X149196498Y-95989735D01*
X149196503Y-95989737D01*
X149351153Y-96020499D01*
X149351156Y-96020500D01*
X149351158Y-96020500D01*
X149508844Y-96020500D01*
X149508845Y-96020499D01*
X149663497Y-95989737D01*
X149809179Y-95929394D01*
X149940289Y-95841789D01*
X150051789Y-95730289D01*
X150139394Y-95599179D01*
X150199737Y-95453497D01*
X150230500Y-95298842D01*
X150230500Y-95141158D01*
X150230500Y-95141155D01*
X150230499Y-95141153D01*
X150207569Y-95025877D01*
X150199737Y-94986503D01*
X150139394Y-94840821D01*
X150139390Y-94840815D01*
X150136521Y-94835447D01*
X150138676Y-94834294D01*
X150121019Y-94777869D01*
X150121000Y-94775677D01*
X150121000Y-94135259D01*
X164349500Y-94135259D01*
X164349500Y-94364742D01*
X164374446Y-94554216D01*
X164379452Y-94592239D01*
X164415153Y-94725479D01*
X164438842Y-94813888D01*
X164526650Y-95025877D01*
X164526657Y-95025891D01*
X164641392Y-95224618D01*
X164781081Y-95406662D01*
X164781089Y-95406671D01*
X164943330Y-95568912D01*
X164943338Y-95568919D01*
X165125382Y-95708608D01*
X165125385Y-95708609D01*
X165125388Y-95708612D01*
X165324112Y-95823345D01*
X165324117Y-95823347D01*
X165324123Y-95823350D01*
X165415480Y-95861191D01*
X165536113Y-95911159D01*
X165757762Y-95970549D01*
X165985266Y-96000501D01*
X165985273Y-96000501D01*
X166214727Y-96000501D01*
X166214734Y-96000501D01*
X166442238Y-95970549D01*
X166663887Y-95911159D01*
X166875888Y-95823345D01*
X167074612Y-95708612D01*
X167256661Y-95568920D01*
X167256665Y-95568915D01*
X167256670Y-95568912D01*
X167418911Y-95406671D01*
X167418914Y-95406666D01*
X167418919Y-95406662D01*
X167558611Y-95224613D01*
X167673344Y-95025889D01*
X167761158Y-94813888D01*
X167820548Y-94592239D01*
X167850500Y-94364735D01*
X167850500Y-94135267D01*
X167820548Y-93907763D01*
X167761158Y-93686114D01*
X167689082Y-93512108D01*
X167673349Y-93474124D01*
X167673346Y-93474118D01*
X167673344Y-93474113D01*
X167558611Y-93275389D01*
X167558608Y-93275386D01*
X167558607Y-93275383D01*
X167418918Y-93093339D01*
X167418911Y-93093331D01*
X167256670Y-92931090D01*
X167256661Y-92931082D01*
X167074617Y-92791393D01*
X166875890Y-92676658D01*
X166875876Y-92676651D01*
X166663887Y-92588843D01*
X166442238Y-92529453D01*
X166404215Y-92524447D01*
X166214741Y-92499501D01*
X166214734Y-92499501D01*
X165985266Y-92499501D01*
X165985258Y-92499501D01*
X165768715Y-92528010D01*
X165757762Y-92529453D01*
X165664076Y-92554555D01*
X165536112Y-92588843D01*
X165324123Y-92676651D01*
X165324109Y-92676658D01*
X165125382Y-92791393D01*
X164943338Y-92931082D01*
X164781081Y-93093339D01*
X164641392Y-93275383D01*
X164526657Y-93474110D01*
X164526650Y-93474124D01*
X164438842Y-93686113D01*
X164379453Y-93907760D01*
X164379451Y-93907771D01*
X164349500Y-94135259D01*
X150121000Y-94135259D01*
X150121000Y-93514322D01*
X150138277Y-93455482D01*
X150136525Y-93454546D01*
X150139390Y-93449184D01*
X150139394Y-93449179D01*
X150199737Y-93303497D01*
X150230500Y-93148842D01*
X150230500Y-92991158D01*
X150230500Y-92991155D01*
X150230499Y-92991153D01*
X150199737Y-92836503D01*
X150181051Y-92791390D01*
X150139397Y-92690827D01*
X150139390Y-92690814D01*
X150051789Y-92559711D01*
X150051786Y-92559707D01*
X149940292Y-92448213D01*
X149940288Y-92448210D01*
X149809185Y-92360609D01*
X149809172Y-92360602D01*
X149663501Y-92300264D01*
X149663489Y-92300261D01*
X149508845Y-92269500D01*
X149508842Y-92269500D01*
X149351158Y-92269500D01*
X149351155Y-92269500D01*
X149196510Y-92300261D01*
X149196498Y-92300264D01*
X149050827Y-92360602D01*
X149050814Y-92360609D01*
X148919711Y-92448210D01*
X148919707Y-92448213D01*
X148808213Y-92559707D01*
X148808210Y-92559711D01*
X148720609Y-92690814D01*
X148720602Y-92690827D01*
X148660264Y-92836498D01*
X148660261Y-92836510D01*
X148629500Y-92991153D01*
X109316733Y-92991153D01*
X109256670Y-92931090D01*
X109256661Y-92931082D01*
X109074617Y-92791393D01*
X108875890Y-92676658D01*
X108875876Y-92676651D01*
X108663887Y-92588843D01*
X108442238Y-92529453D01*
X108404215Y-92524447D01*
X108214741Y-92499501D01*
X108214734Y-92499501D01*
X107985266Y-92499501D01*
X107985258Y-92499501D01*
X107768715Y-92528010D01*
X107757762Y-92529453D01*
X107664076Y-92554555D01*
X107536112Y-92588843D01*
X107324123Y-92676651D01*
X107324109Y-92676658D01*
X107125382Y-92791393D01*
X106943338Y-92931082D01*
X106781081Y-93093339D01*
X106641392Y-93275383D01*
X106526657Y-93474110D01*
X106526650Y-93474124D01*
X106438842Y-93686113D01*
X106379453Y-93907760D01*
X106379451Y-93907771D01*
X106349500Y-94135259D01*
X92600500Y-94135259D01*
X92600500Y-82458713D01*
X152339500Y-82458713D01*
X152339500Y-82921286D01*
X152372753Y-83131239D01*
X152438444Y-83333414D01*
X152534951Y-83522820D01*
X152659890Y-83694786D01*
X152810213Y-83845109D01*
X152982179Y-83970048D01*
X152982181Y-83970049D01*
X152982184Y-83970051D01*
X153171588Y-84066557D01*
X153373757Y-84132246D01*
X153583713Y-84165500D01*
X153583714Y-84165500D01*
X153796286Y-84165500D01*
X153796287Y-84165500D01*
X154006243Y-84132246D01*
X154208412Y-84066557D01*
X154397816Y-83970051D01*
X154419789Y-83954086D01*
X154569786Y-83845109D01*
X154569788Y-83845106D01*
X154569792Y-83845104D01*
X154720104Y-83694792D01*
X154839683Y-83530204D01*
X154895011Y-83487540D01*
X154964624Y-83481561D01*
X155026420Y-83514166D01*
X155040313Y-83530199D01*
X155143925Y-83672809D01*
X155159896Y-83694792D01*
X155310213Y-83845109D01*
X155482179Y-83970048D01*
X155482181Y-83970049D01*
X155482184Y-83970051D01*
X155671588Y-84066557D01*
X155873757Y-84132246D01*
X156083713Y-84165500D01*
X156083714Y-84165500D01*
X156296286Y-84165500D01*
X156296287Y-84165500D01*
X156506243Y-84132246D01*
X156708412Y-84066557D01*
X156897816Y-83970051D01*
X156919789Y-83954086D01*
X157069786Y-83845109D01*
X157069788Y-83845106D01*
X157069792Y-83845104D01*
X157220104Y-83694792D01*
X157339683Y-83530204D01*
X157395011Y-83487540D01*
X157464624Y-83481561D01*
X157526420Y-83514166D01*
X157540313Y-83530199D01*
X157643925Y-83672809D01*
X157659896Y-83694792D01*
X157810213Y-83845109D01*
X157982179Y-83970048D01*
X157982181Y-83970049D01*
X157982184Y-83970051D01*
X158171588Y-84066557D01*
X158373757Y-84132246D01*
X158583713Y-84165500D01*
X158583714Y-84165500D01*
X158796286Y-84165500D01*
X158796287Y-84165500D01*
X159006243Y-84132246D01*
X159208412Y-84066557D01*
X159397816Y-83970051D01*
X159419789Y-83954086D01*
X159569786Y-83845109D01*
X159569788Y-83845106D01*
X159569792Y-83845104D01*
X159720104Y-83694792D01*
X159839683Y-83530204D01*
X159895011Y-83487540D01*
X159964624Y-83481561D01*
X160026420Y-83514166D01*
X160040313Y-83530199D01*
X160143925Y-83672809D01*
X160159896Y-83694792D01*
X160310213Y-83845109D01*
X160482179Y-83970048D01*
X160482181Y-83970049D01*
X160482184Y-83970051D01*
X160671588Y-84066557D01*
X160873757Y-84132246D01*
X161083713Y-84165500D01*
X161083714Y-84165500D01*
X161296286Y-84165500D01*
X161296287Y-84165500D01*
X161506243Y-84132246D01*
X161708412Y-84066557D01*
X161897816Y-83970051D01*
X162069792Y-83845104D01*
X162208604Y-83706291D01*
X162269923Y-83672809D01*
X162339615Y-83677793D01*
X162395549Y-83719664D01*
X162401821Y-83728878D01*
X162405185Y-83734333D01*
X162405186Y-83734334D01*
X162497288Y-83883656D01*
X162621344Y-84007712D01*
X162770666Y-84099814D01*
X162937203Y-84154999D01*
X163039991Y-84165500D01*
X164340008Y-84165499D01*
X164442797Y-84154999D01*
X164609334Y-84099814D01*
X164758656Y-84007712D01*
X164882712Y-83883656D01*
X164974814Y-83734334D01*
X165029999Y-83567797D01*
X165040500Y-83465009D01*
X165040499Y-81914992D01*
X165029999Y-81812203D01*
X164974814Y-81645666D01*
X164882712Y-81496344D01*
X164758656Y-81372288D01*
X164609334Y-81280186D01*
X164442797Y-81225001D01*
X164442795Y-81225000D01*
X164340010Y-81214500D01*
X163039998Y-81214500D01*
X163039981Y-81214501D01*
X162937203Y-81225000D01*
X162937200Y-81225001D01*
X162770668Y-81280185D01*
X162770663Y-81280187D01*
X162621342Y-81372289D01*
X162497289Y-81496342D01*
X162401821Y-81651121D01*
X162349873Y-81697845D01*
X162280910Y-81709068D01*
X162216828Y-81681224D01*
X162208601Y-81673705D01*
X162069786Y-81534890D01*
X161897820Y-81409951D01*
X161708414Y-81313444D01*
X161708413Y-81313443D01*
X161708412Y-81313443D01*
X161506243Y-81247754D01*
X161506241Y-81247753D01*
X161506240Y-81247753D01*
X161344957Y-81222208D01*
X161296287Y-81214500D01*
X161083713Y-81214500D01*
X161035042Y-81222208D01*
X160873760Y-81247753D01*
X160671585Y-81313444D01*
X160482179Y-81409951D01*
X160310213Y-81534890D01*
X160159894Y-81685209D01*
X160159890Y-81685214D01*
X160040318Y-81849793D01*
X159984989Y-81892459D01*
X159915375Y-81898438D01*
X159853580Y-81865833D01*
X159839682Y-81849793D01*
X159720109Y-81685214D01*
X159720105Y-81685209D01*
X159569786Y-81534890D01*
X159397820Y-81409951D01*
X159208414Y-81313444D01*
X159208413Y-81313443D01*
X159208412Y-81313443D01*
X159006243Y-81247754D01*
X159006241Y-81247753D01*
X159006240Y-81247753D01*
X158844957Y-81222208D01*
X158796287Y-81214500D01*
X158583713Y-81214500D01*
X158535042Y-81222208D01*
X158373760Y-81247753D01*
X158171585Y-81313444D01*
X157982179Y-81409951D01*
X157810213Y-81534890D01*
X157659894Y-81685209D01*
X157659890Y-81685214D01*
X157540318Y-81849793D01*
X157484989Y-81892459D01*
X157415375Y-81898438D01*
X157353580Y-81865833D01*
X157339682Y-81849793D01*
X157220109Y-81685214D01*
X157220105Y-81685209D01*
X157069786Y-81534890D01*
X156897820Y-81409951D01*
X156708414Y-81313444D01*
X156708413Y-81313443D01*
X156708412Y-81313443D01*
X156506243Y-81247754D01*
X156506241Y-81247753D01*
X156506240Y-81247753D01*
X156344957Y-81222208D01*
X156296287Y-81214500D01*
X156083713Y-81214500D01*
X156035042Y-81222208D01*
X155873760Y-81247753D01*
X155671585Y-81313444D01*
X155482179Y-81409951D01*
X155310213Y-81534890D01*
X155159894Y-81685209D01*
X155159890Y-81685214D01*
X155040318Y-81849793D01*
X154984989Y-81892459D01*
X154915375Y-81898438D01*
X154853580Y-81865833D01*
X154839682Y-81849793D01*
X154720109Y-81685214D01*
X154720105Y-81685209D01*
X154569786Y-81534890D01*
X154397820Y-81409951D01*
X154208414Y-81313444D01*
X154208413Y-81313443D01*
X154208412Y-81313443D01*
X154006243Y-81247754D01*
X154006241Y-81247753D01*
X154006240Y-81247753D01*
X153844957Y-81222208D01*
X153796287Y-81214500D01*
X153583713Y-81214500D01*
X153535042Y-81222208D01*
X153373760Y-81247753D01*
X153171585Y-81313444D01*
X152982179Y-81409951D01*
X152810213Y-81534890D01*
X152659890Y-81685213D01*
X152534951Y-81857179D01*
X152438444Y-82046585D01*
X152372753Y-82248760D01*
X152339500Y-82458713D01*
X92600500Y-82458713D01*
X92600500Y-75831153D01*
X151619500Y-75831153D01*
X151619500Y-75988846D01*
X151650261Y-76143489D01*
X151650264Y-76143501D01*
X151710603Y-76289174D01*
X151710604Y-76289175D01*
X151710606Y-76289179D01*
X151755371Y-76356174D01*
X151771602Y-76380465D01*
X151792480Y-76447142D01*
X151792500Y-76449356D01*
X151792500Y-77741807D01*
X151816612Y-77863027D01*
X151816614Y-77863035D01*
X151837341Y-77913075D01*
X151837343Y-77913079D01*
X151840003Y-77919500D01*
X151863917Y-77977233D01*
X151912345Y-78049711D01*
X151915244Y-78054049D01*
X151915247Y-78054055D01*
X151932585Y-78080003D01*
X151932591Y-78080011D01*
X152424907Y-78572326D01*
X152458392Y-78633649D01*
X152458843Y-78635815D01*
X152480261Y-78743491D01*
X152480264Y-78743501D01*
X152540602Y-78889172D01*
X152540609Y-78889185D01*
X152628210Y-79020288D01*
X152628213Y-79020292D01*
X152739707Y-79131786D01*
X152739711Y-79131789D01*
X152870814Y-79219390D01*
X152870827Y-79219397D01*
X153015665Y-79279390D01*
X153016503Y-79279737D01*
X153171153Y-79310499D01*
X153171156Y-79310500D01*
X153171158Y-79310500D01*
X153328844Y-79310500D01*
X153328845Y-79310499D01*
X153483497Y-79279737D01*
X153629179Y-79219394D01*
X153760289Y-79131789D01*
X153871789Y-79020289D01*
X153959394Y-78889179D01*
X154019737Y-78743497D01*
X154050500Y-78588842D01*
X154050500Y-78431158D01*
X154050500Y-78431155D01*
X154050499Y-78431153D01*
X154029684Y-78326510D01*
X154019737Y-78276503D01*
X153984249Y-78190827D01*
X153959397Y-78130827D01*
X153959390Y-78130814D01*
X153871789Y-77999711D01*
X153871786Y-77999707D01*
X153760292Y-77888213D01*
X153760288Y-77888210D01*
X153629185Y-77800609D01*
X153629172Y-77800602D01*
X153483501Y-77740264D01*
X153483491Y-77740261D01*
X153375815Y-77718843D01*
X153313904Y-77686458D01*
X153312326Y-77684907D01*
X153083819Y-77456400D01*
X153050334Y-77395077D01*
X153047500Y-77368719D01*
X153047500Y-76449356D01*
X153067185Y-76382317D01*
X153068398Y-76380465D01*
X153129394Y-76289179D01*
X153189737Y-76143497D01*
X153220500Y-75988842D01*
X153220500Y-75898148D01*
X153532505Y-75898148D01*
X153532505Y-76055841D01*
X153563266Y-76210484D01*
X153563269Y-76210496D01*
X153623607Y-76356167D01*
X153623614Y-76356180D01*
X153711215Y-76487283D01*
X153711218Y-76487287D01*
X153822712Y-76598781D01*
X153822716Y-76598784D01*
X153953819Y-76686385D01*
X153953832Y-76686392D01*
X154105135Y-76749063D01*
X154104455Y-76750702D01*
X154155876Y-76784405D01*
X154160420Y-76790075D01*
X154467483Y-77197023D01*
X154492149Y-77262394D01*
X154492500Y-77271711D01*
X154492500Y-78020642D01*
X154472815Y-78087681D01*
X154471602Y-78089533D01*
X154410609Y-78180814D01*
X154410602Y-78180827D01*
X154350264Y-78326498D01*
X154350261Y-78326510D01*
X154319500Y-78481153D01*
X154319500Y-78638846D01*
X154350261Y-78793489D01*
X154350264Y-78793501D01*
X154410602Y-78939172D01*
X154410609Y-78939185D01*
X154498210Y-79070288D01*
X154498213Y-79070292D01*
X154609707Y-79181786D01*
X154609711Y-79181789D01*
X154740814Y-79269390D01*
X154740827Y-79269397D01*
X154840060Y-79310500D01*
X154886503Y-79329737D01*
X155041153Y-79360499D01*
X155041156Y-79360500D01*
X155041158Y-79360500D01*
X155198844Y-79360500D01*
X155198845Y-79360499D01*
X155353497Y-79329737D01*
X155474213Y-79279735D01*
X155499172Y-79269397D01*
X155499172Y-79269396D01*
X155499179Y-79269394D01*
X155630289Y-79181789D01*
X155741789Y-79070289D01*
X155829394Y-78939179D01*
X155829395Y-78939176D01*
X155829397Y-78939173D01*
X155887874Y-78797994D01*
X155888436Y-78796636D01*
X155932276Y-78742233D01*
X155998570Y-78720168D01*
X156066270Y-78737447D01*
X156113880Y-78788584D01*
X156117631Y-78797994D01*
X156117932Y-78797870D01*
X156180602Y-78949172D01*
X156180609Y-78949185D01*
X156268210Y-79080288D01*
X156268213Y-79080292D01*
X156379707Y-79191786D01*
X156379711Y-79191789D01*
X156510814Y-79279390D01*
X156510827Y-79279397D01*
X156632363Y-79329738D01*
X156656503Y-79339737D01*
X156811153Y-79370499D01*
X156811156Y-79370500D01*
X156811158Y-79370500D01*
X156968844Y-79370500D01*
X156968845Y-79370499D01*
X157123497Y-79339737D01*
X157269179Y-79279394D01*
X157400289Y-79191789D01*
X157511789Y-79080289D01*
X157599394Y-78949179D01*
X157659737Y-78803497D01*
X157690500Y-78648842D01*
X157690500Y-78491158D01*
X157690500Y-78491155D01*
X157690499Y-78491153D01*
X157678565Y-78431158D01*
X157659737Y-78336503D01*
X157657926Y-78332130D01*
X157599397Y-78190827D01*
X157599390Y-78190814D01*
X157538398Y-78099533D01*
X157517520Y-78032855D01*
X157517500Y-78030642D01*
X157517500Y-77492145D01*
X157520128Y-77472671D01*
X157517500Y-77430478D01*
X157517500Y-77388197D01*
X157515290Y-77377092D01*
X157513147Y-77360607D01*
X157512701Y-77353440D01*
X157512444Y-77349304D01*
X157501632Y-77308427D01*
X157493385Y-77266965D01*
X157485863Y-77248805D01*
X157480838Y-77229806D01*
X157463954Y-77195288D01*
X157460791Y-77188275D01*
X157446083Y-77152767D01*
X157435164Y-77136426D01*
X157426528Y-77118769D01*
X157400896Y-77085139D01*
X157398754Y-77081933D01*
X157398752Y-77081929D01*
X157377415Y-77049997D01*
X157377413Y-77049995D01*
X157377411Y-77049992D01*
X157369400Y-77041981D01*
X157358465Y-77029471D01*
X157325480Y-76986195D01*
X156863796Y-76380465D01*
X156465880Y-75858398D01*
X156440897Y-75793148D01*
X156440500Y-75783231D01*
X156440500Y-75731155D01*
X156440499Y-75731153D01*
X156424803Y-75652246D01*
X156409737Y-75576503D01*
X156373928Y-75490051D01*
X156349397Y-75430827D01*
X156349390Y-75430814D01*
X156261789Y-75299711D01*
X156261786Y-75299707D01*
X156150292Y-75188213D01*
X156150288Y-75188210D01*
X156019185Y-75100609D01*
X156019172Y-75100602D01*
X155873501Y-75040264D01*
X155873489Y-75040261D01*
X155718845Y-75009500D01*
X155718842Y-75009500D01*
X155561158Y-75009500D01*
X155561155Y-75009500D01*
X155406510Y-75040261D01*
X155406498Y-75040264D01*
X155260827Y-75100602D01*
X155260814Y-75100609D01*
X155129711Y-75188210D01*
X155129707Y-75188213D01*
X155018213Y-75299707D01*
X155018209Y-75299712D01*
X155007474Y-75315778D01*
X154953860Y-75360582D01*
X154884535Y-75369287D01*
X154835483Y-75349986D01*
X154712190Y-75267604D01*
X154712177Y-75267597D01*
X154566506Y-75207259D01*
X154566494Y-75207256D01*
X154411850Y-75176495D01*
X154411847Y-75176495D01*
X154254163Y-75176495D01*
X154254160Y-75176495D01*
X154099515Y-75207256D01*
X154099503Y-75207259D01*
X153953832Y-75267597D01*
X153953819Y-75267604D01*
X153822716Y-75355205D01*
X153822712Y-75355208D01*
X153711218Y-75466702D01*
X153711215Y-75466706D01*
X153623614Y-75597809D01*
X153623607Y-75597822D01*
X153563269Y-75743493D01*
X153563266Y-75743505D01*
X153532505Y-75898148D01*
X153220500Y-75898148D01*
X153220500Y-75831158D01*
X153220500Y-75831155D01*
X153220499Y-75831153D01*
X153210967Y-75783231D01*
X153189737Y-75676503D01*
X153189735Y-75676498D01*
X153129397Y-75530827D01*
X153129390Y-75530814D01*
X153041789Y-75399711D01*
X153041786Y-75399707D01*
X152930292Y-75288213D01*
X152930288Y-75288210D01*
X152799185Y-75200609D01*
X152799172Y-75200602D01*
X152653501Y-75140264D01*
X152653489Y-75140261D01*
X152498845Y-75109500D01*
X152498842Y-75109500D01*
X152341158Y-75109500D01*
X152341155Y-75109500D01*
X152186510Y-75140261D01*
X152186498Y-75140264D01*
X152040827Y-75200602D01*
X152040814Y-75200609D01*
X151909711Y-75288210D01*
X151909707Y-75288213D01*
X151798213Y-75399707D01*
X151798210Y-75399711D01*
X151710609Y-75530814D01*
X151710602Y-75530827D01*
X151650264Y-75676498D01*
X151650261Y-75676510D01*
X151619500Y-75831153D01*
X92600500Y-75831153D01*
X92600500Y-63103713D01*
X93869500Y-63103713D01*
X93869500Y-63316287D01*
X93902754Y-63526243D01*
X93943059Y-63650289D01*
X93968444Y-63728414D01*
X94064951Y-63917820D01*
X94189890Y-64089786D01*
X94340209Y-64240105D01*
X94340214Y-64240109D01*
X94504793Y-64359682D01*
X94547459Y-64415011D01*
X94553438Y-64484625D01*
X94520833Y-64546420D01*
X94504793Y-64560318D01*
X94340214Y-64679890D01*
X94340209Y-64679894D01*
X94189890Y-64830213D01*
X94064951Y-65002179D01*
X93968444Y-65191585D01*
X93902753Y-65393760D01*
X93869500Y-65603713D01*
X93869500Y-65816286D01*
X93900464Y-66011789D01*
X93902754Y-66026243D01*
X93956124Y-66190499D01*
X93968444Y-66228414D01*
X94064951Y-66417820D01*
X94189890Y-66589786D01*
X94340209Y-66740105D01*
X94340214Y-66740109D01*
X94504793Y-66859682D01*
X94547459Y-66915011D01*
X94553438Y-66984625D01*
X94520833Y-67046420D01*
X94504793Y-67060318D01*
X94340214Y-67179890D01*
X94340209Y-67179894D01*
X94189890Y-67330213D01*
X94064951Y-67502179D01*
X93968444Y-67691585D01*
X93902753Y-67893760D01*
X93885675Y-68001588D01*
X93869500Y-68103713D01*
X93869500Y-68316287D01*
X93902754Y-68526243D01*
X93935260Y-68626287D01*
X93968444Y-68728414D01*
X94064951Y-68917820D01*
X94189890Y-69089786D01*
X94340209Y-69240105D01*
X94340214Y-69240109D01*
X94504793Y-69359682D01*
X94547459Y-69415011D01*
X94553438Y-69484625D01*
X94520833Y-69546420D01*
X94504793Y-69560318D01*
X94340214Y-69679890D01*
X94340209Y-69679894D01*
X94189890Y-69830213D01*
X94064951Y-70002179D01*
X93968444Y-70191585D01*
X93902753Y-70393760D01*
X93869500Y-70603713D01*
X93869500Y-70816286D01*
X93900669Y-71013083D01*
X93902754Y-71026243D01*
X93965243Y-71218564D01*
X93968444Y-71228414D01*
X94064951Y-71417820D01*
X94189890Y-71589786D01*
X94328705Y-71728601D01*
X94362190Y-71789924D01*
X94357206Y-71859616D01*
X94315334Y-71915549D01*
X94306121Y-71921821D01*
X94151342Y-72017289D01*
X94027289Y-72141342D01*
X93935187Y-72290663D01*
X93935185Y-72290668D01*
X93927648Y-72313414D01*
X93880001Y-72457203D01*
X93880001Y-72457204D01*
X93880000Y-72457204D01*
X93869500Y-72559983D01*
X93869500Y-73860001D01*
X93869501Y-73860018D01*
X93880000Y-73962796D01*
X93880001Y-73962799D01*
X93898544Y-74018757D01*
X93935186Y-74129334D01*
X94027288Y-74278656D01*
X94151344Y-74402712D01*
X94300666Y-74494814D01*
X94467203Y-74549999D01*
X94569991Y-74560500D01*
X96120008Y-74560499D01*
X96222797Y-74549999D01*
X96389334Y-74494814D01*
X96538656Y-74402712D01*
X96662712Y-74278656D01*
X96754814Y-74129334D01*
X96809999Y-73962797D01*
X96820500Y-73860009D01*
X96820499Y-72559992D01*
X96813166Y-72488211D01*
X96809999Y-72457203D01*
X96809998Y-72457200D01*
X96754814Y-72290666D01*
X96662712Y-72141344D01*
X96538656Y-72017288D01*
X96389334Y-71925186D01*
X96389333Y-71925185D01*
X96383878Y-71921821D01*
X96337154Y-71869873D01*
X96325931Y-71800910D01*
X96353775Y-71736828D01*
X96361272Y-71728623D01*
X96500104Y-71589792D01*
X96558290Y-71509706D01*
X96625048Y-71417820D01*
X96625047Y-71417820D01*
X96625051Y-71417816D01*
X96721557Y-71228412D01*
X96787246Y-71026243D01*
X96820500Y-70816287D01*
X96820500Y-70671153D01*
X125199500Y-70671153D01*
X125199500Y-70828846D01*
X125230261Y-70983489D01*
X125230264Y-70983501D01*
X125290602Y-71129172D01*
X125290609Y-71129185D01*
X125378210Y-71260288D01*
X125378213Y-71260292D01*
X125489707Y-71371786D01*
X125489711Y-71371789D01*
X125620816Y-71459391D01*
X125620817Y-71459391D01*
X125620821Y-71459394D01*
X125705954Y-71494656D01*
X125760355Y-71538494D01*
X125782421Y-71604788D01*
X125782500Y-71609216D01*
X125782500Y-72500642D01*
X125762815Y-72567681D01*
X125761602Y-72569533D01*
X125700609Y-72660814D01*
X125700602Y-72660827D01*
X125640264Y-72806498D01*
X125640261Y-72806510D01*
X125609500Y-72961153D01*
X125609500Y-73118846D01*
X125640261Y-73273489D01*
X125640264Y-73273501D01*
X125700602Y-73419172D01*
X125700609Y-73419185D01*
X125788210Y-73550288D01*
X125788213Y-73550292D01*
X125899707Y-73661786D01*
X125899711Y-73661789D01*
X126030814Y-73749390D01*
X126030827Y-73749397D01*
X126176498Y-73809735D01*
X126176503Y-73809737D01*
X126331153Y-73840499D01*
X126331156Y-73840500D01*
X126331158Y-73840500D01*
X126488844Y-73840500D01*
X126488845Y-73840499D01*
X126643497Y-73809737D01*
X126789179Y-73749394D01*
X126920289Y-73661789D01*
X126927315Y-73654763D01*
X126988637Y-73621275D01*
X127058328Y-73626256D01*
X127102685Y-73654763D01*
X127109711Y-73661789D01*
X127240814Y-73749390D01*
X127240827Y-73749397D01*
X127386498Y-73809735D01*
X127386503Y-73809737D01*
X127541153Y-73840499D01*
X127541156Y-73840500D01*
X127541158Y-73840500D01*
X127698844Y-73840500D01*
X127698845Y-73840499D01*
X127853497Y-73809737D01*
X127999179Y-73749394D01*
X128130289Y-73661789D01*
X128241789Y-73550289D01*
X128329394Y-73419179D01*
X128389737Y-73273497D01*
X128420500Y-73118842D01*
X128420500Y-72961158D01*
X128420500Y-72961155D01*
X128420499Y-72961153D01*
X128389738Y-72806510D01*
X128389737Y-72806503D01*
X128389735Y-72806498D01*
X128329397Y-72660827D01*
X128329390Y-72660814D01*
X128268398Y-72569533D01*
X128247520Y-72502855D01*
X128247500Y-72500642D01*
X128247500Y-72034475D01*
X128267185Y-71967436D01*
X128278583Y-71952363D01*
X128302600Y-71925186D01*
X128493208Y-71709497D01*
X128552351Y-71672298D01*
X128561907Y-71669998D01*
X128613497Y-71659737D01*
X128759179Y-71599394D01*
X128890289Y-71511789D01*
X129001789Y-71400289D01*
X129089394Y-71269179D01*
X129090020Y-71267669D01*
X129149735Y-71123501D01*
X129149737Y-71123497D01*
X129180500Y-70968842D01*
X129180500Y-70811158D01*
X129180500Y-70811156D01*
X129180500Y-70811155D01*
X129180499Y-70811153D01*
X129149737Y-70656503D01*
X129121160Y-70587512D01*
X129089397Y-70510827D01*
X129089390Y-70510814D01*
X129001789Y-70379711D01*
X129001786Y-70379707D01*
X128890292Y-70268213D01*
X128890288Y-70268210D01*
X128759185Y-70180609D01*
X128759172Y-70180602D01*
X128613501Y-70120264D01*
X128613489Y-70120261D01*
X128458845Y-70089500D01*
X128458842Y-70089500D01*
X128301158Y-70089500D01*
X128301155Y-70089500D01*
X128146510Y-70120261D01*
X128146498Y-70120264D01*
X128000827Y-70180602D01*
X128000814Y-70180609D01*
X127869711Y-70268210D01*
X127869707Y-70268213D01*
X127758213Y-70379707D01*
X127758210Y-70379711D01*
X127670609Y-70510814D01*
X127670602Y-70510827D01*
X127610264Y-70656498D01*
X127610261Y-70656510D01*
X127579499Y-70811156D01*
X127579320Y-70812978D01*
X127578959Y-70813869D01*
X127578311Y-70817132D01*
X127577691Y-70817008D01*
X127553153Y-70877763D01*
X127548835Y-70882925D01*
X127241100Y-71231151D01*
X127235224Y-71234846D01*
X127231613Y-71240774D01*
X127206030Y-71253208D01*
X127181956Y-71268350D01*
X127175016Y-71268282D01*
X127168773Y-71271317D01*
X127140529Y-71267946D01*
X127112090Y-71267669D01*
X127106287Y-71263859D01*
X127099396Y-71263037D01*
X127077458Y-71244932D01*
X127053683Y-71229323D01*
X127049569Y-71221915D01*
X127045508Y-71218564D01*
X127038823Y-71202565D01*
X127030079Y-71186820D01*
X127027938Y-71180129D01*
X127013386Y-71106966D01*
X126976477Y-71017861D01*
X126974502Y-71013094D01*
X126974499Y-71013083D01*
X126966087Y-70992776D01*
X126966085Y-70992773D01*
X126966083Y-70992767D01*
X126950098Y-70968844D01*
X126897414Y-70889996D01*
X126897408Y-70889988D01*
X126836819Y-70829399D01*
X126803334Y-70768076D01*
X126800500Y-70741718D01*
X126800500Y-70671155D01*
X126800499Y-70671153D01*
X126785639Y-70596447D01*
X126769737Y-70516503D01*
X126767386Y-70510827D01*
X126709397Y-70370827D01*
X126709390Y-70370814D01*
X126621789Y-70239711D01*
X126621786Y-70239707D01*
X126510292Y-70128213D01*
X126510288Y-70128210D01*
X126379185Y-70040609D01*
X126379172Y-70040602D01*
X126233501Y-69980264D01*
X126233489Y-69980261D01*
X126078845Y-69949500D01*
X126078842Y-69949500D01*
X125921158Y-69949500D01*
X125921155Y-69949500D01*
X125766510Y-69980261D01*
X125766498Y-69980264D01*
X125620827Y-70040602D01*
X125620814Y-70040609D01*
X125489711Y-70128210D01*
X125489707Y-70128213D01*
X125378213Y-70239707D01*
X125378210Y-70239711D01*
X125290609Y-70370814D01*
X125290602Y-70370827D01*
X125230264Y-70516498D01*
X125230261Y-70516510D01*
X125199500Y-70671153D01*
X96820500Y-70671153D01*
X96820500Y-70603713D01*
X96787246Y-70393757D01*
X96721557Y-70191588D01*
X96625051Y-70002184D01*
X96625049Y-70002181D01*
X96625048Y-70002179D01*
X96500109Y-69830213D01*
X96349792Y-69679896D01*
X96343119Y-69675048D01*
X96185204Y-69560316D01*
X96142540Y-69504989D01*
X96136561Y-69435376D01*
X96169166Y-69373580D01*
X96185199Y-69359686D01*
X96349792Y-69240104D01*
X96500104Y-69089792D01*
X96500106Y-69089788D01*
X96500109Y-69089786D01*
X96625048Y-68917820D01*
X96625047Y-68917820D01*
X96625051Y-68917816D01*
X96721557Y-68728412D01*
X96787246Y-68526243D01*
X96820500Y-68316287D01*
X96820500Y-68103713D01*
X96787246Y-67893757D01*
X96721557Y-67691588D01*
X96625051Y-67502184D01*
X96625049Y-67502181D01*
X96625048Y-67502179D01*
X96500109Y-67330213D01*
X96349792Y-67179896D01*
X96287474Y-67134620D01*
X96185204Y-67060316D01*
X96142540Y-67004989D01*
X96136561Y-66935376D01*
X96169166Y-66873580D01*
X96185199Y-66859686D01*
X96349792Y-66740104D01*
X96500104Y-66589792D01*
X96500106Y-66589788D01*
X96500109Y-66589786D01*
X96625048Y-66417820D01*
X96625047Y-66417820D01*
X96625051Y-66417816D01*
X96721557Y-66228412D01*
X96787246Y-66026243D01*
X96820500Y-65816287D01*
X96820500Y-65603713D01*
X96787246Y-65393757D01*
X96721557Y-65191588D01*
X96625051Y-65002184D01*
X96625049Y-65002181D01*
X96625048Y-65002179D01*
X96500109Y-64830213D01*
X96349792Y-64679896D01*
X96312453Y-64652768D01*
X96185204Y-64560316D01*
X96142540Y-64504989D01*
X96136561Y-64435376D01*
X96169166Y-64373580D01*
X96185199Y-64359686D01*
X96349792Y-64240104D01*
X96500104Y-64089792D01*
X96500106Y-64089788D01*
X96500109Y-64089786D01*
X96625048Y-63917820D01*
X96625047Y-63917820D01*
X96625051Y-63917816D01*
X96721557Y-63728412D01*
X96787246Y-63526243D01*
X96820500Y-63316287D01*
X96820500Y-63103713D01*
X96813759Y-63061153D01*
X146219500Y-63061153D01*
X146219500Y-63218846D01*
X146250261Y-63373489D01*
X146250264Y-63373501D01*
X146310602Y-63519172D01*
X146310609Y-63519185D01*
X146398210Y-63650288D01*
X146398213Y-63650292D01*
X146509707Y-63761786D01*
X146509711Y-63761789D01*
X146640814Y-63849390D01*
X146640823Y-63849395D01*
X146786503Y-63909737D01*
X146792325Y-63911503D01*
X146791612Y-63913851D01*
X146843964Y-63941214D01*
X146845571Y-63942793D01*
X148079507Y-65176730D01*
X148079510Y-65176733D01*
X148114568Y-65200158D01*
X148159373Y-65253771D01*
X148167464Y-65305067D01*
X148169500Y-65305067D01*
X148169500Y-65468846D01*
X148200261Y-65623489D01*
X148200264Y-65623501D01*
X148260602Y-65769172D01*
X148260609Y-65769185D01*
X148348210Y-65900288D01*
X148348213Y-65900292D01*
X148459707Y-66011786D01*
X148459711Y-66011789D01*
X148590814Y-66099390D01*
X148590827Y-66099397D01*
X148736498Y-66159735D01*
X148736503Y-66159737D01*
X148891153Y-66190499D01*
X148891156Y-66190500D01*
X148891158Y-66190500D01*
X149048844Y-66190500D01*
X149048845Y-66190499D01*
X149203497Y-66159737D01*
X149349179Y-66099394D01*
X149480289Y-66011789D01*
X149591789Y-65900289D01*
X149679394Y-65769179D01*
X149739737Y-65623497D01*
X149770500Y-65468842D01*
X149770500Y-65332940D01*
X149790185Y-65265901D01*
X149806814Y-65245263D01*
X149901789Y-65150289D01*
X149989394Y-65019179D01*
X150049737Y-64873497D01*
X150080500Y-64718842D01*
X150080500Y-64561158D01*
X150080500Y-64561155D01*
X150080499Y-64561153D01*
X150066592Y-64491239D01*
X150049737Y-64406503D01*
X150030343Y-64359681D01*
X149989397Y-64260827D01*
X149989390Y-64260814D01*
X149901789Y-64129711D01*
X149901786Y-64129707D01*
X149790292Y-64018213D01*
X149790288Y-64018210D01*
X149659185Y-63930609D01*
X149659172Y-63930602D01*
X149513501Y-63870264D01*
X149513489Y-63870261D01*
X149358845Y-63839500D01*
X149358842Y-63839500D01*
X149201158Y-63839500D01*
X149201155Y-63839500D01*
X149046510Y-63870261D01*
X149046498Y-63870264D01*
X148897469Y-63931994D01*
X148828000Y-63939463D01*
X148765521Y-63908188D01*
X148762336Y-63905114D01*
X147822793Y-62965571D01*
X147793403Y-62911748D01*
X147791503Y-62912325D01*
X147789737Y-62906503D01*
X147729395Y-62760823D01*
X147729390Y-62760814D01*
X147641789Y-62629711D01*
X147641786Y-62629707D01*
X147530292Y-62518213D01*
X147530288Y-62518210D01*
X147399185Y-62430609D01*
X147399172Y-62430602D01*
X147253501Y-62370264D01*
X147253489Y-62370261D01*
X147098845Y-62339500D01*
X147098842Y-62339500D01*
X146941158Y-62339500D01*
X146941155Y-62339500D01*
X146786510Y-62370261D01*
X146786498Y-62370264D01*
X146640827Y-62430602D01*
X146640814Y-62430609D01*
X146509711Y-62518210D01*
X146509707Y-62518213D01*
X146398213Y-62629707D01*
X146398210Y-62629711D01*
X146310609Y-62760814D01*
X146310602Y-62760827D01*
X146250264Y-62906498D01*
X146250261Y-62906510D01*
X146219500Y-63061153D01*
X96813759Y-63061153D01*
X96787246Y-62893757D01*
X96721557Y-62691588D01*
X96625051Y-62502184D01*
X96625049Y-62502181D01*
X96625048Y-62502179D01*
X96500109Y-62330213D01*
X96349790Y-62179894D01*
X96349785Y-62179890D01*
X96184781Y-62060008D01*
X96142115Y-62004678D01*
X96136136Y-61935065D01*
X96168741Y-61873270D01*
X96184781Y-61859371D01*
X96349466Y-61739721D01*
X96499723Y-61589464D01*
X96499727Y-61589459D01*
X96600356Y-61450956D01*
X96624620Y-61417557D01*
X96721095Y-61228217D01*
X96786757Y-61026129D01*
X96786757Y-61026126D01*
X96797231Y-60960000D01*
X95749146Y-60960000D01*
X95787630Y-60893343D01*
X95820000Y-60772535D01*
X95820000Y-60647465D01*
X95787630Y-60526657D01*
X95749146Y-60460000D01*
X96797231Y-60460000D01*
X96786757Y-60393873D01*
X96786757Y-60393870D01*
X96721095Y-60191782D01*
X96624620Y-60002442D01*
X96499727Y-59830540D01*
X96499723Y-59830535D01*
X96349464Y-59680276D01*
X96349459Y-59680272D01*
X96177557Y-59555379D01*
X95988217Y-59458904D01*
X95786128Y-59393242D01*
X95595000Y-59362969D01*
X95595000Y-60305854D01*
X95528343Y-60267370D01*
X95407535Y-60235000D01*
X95282465Y-60235000D01*
X95161657Y-60267370D01*
X95095000Y-60305854D01*
X95095000Y-59362969D01*
X94903872Y-59393242D01*
X94903869Y-59393242D01*
X94701782Y-59458904D01*
X94512442Y-59555379D01*
X94340540Y-59680272D01*
X94340535Y-59680276D01*
X94190276Y-59830535D01*
X94190272Y-59830540D01*
X94065379Y-60002442D01*
X93968904Y-60191782D01*
X93903242Y-60393870D01*
X93903242Y-60393873D01*
X93892769Y-60460000D01*
X94940854Y-60460000D01*
X94902370Y-60526657D01*
X94870000Y-60647465D01*
X94870000Y-60772535D01*
X94902370Y-60893343D01*
X94940854Y-60960000D01*
X93892769Y-60960000D01*
X93903242Y-61026126D01*
X93903242Y-61026129D01*
X93968904Y-61228217D01*
X94065379Y-61417557D01*
X94190272Y-61589459D01*
X94190276Y-61589464D01*
X94340535Y-61739723D01*
X94340540Y-61739727D01*
X94505218Y-61859372D01*
X94547884Y-61914701D01*
X94553863Y-61984315D01*
X94521258Y-62046110D01*
X94505218Y-62060008D01*
X94340214Y-62179890D01*
X94340209Y-62179894D01*
X94189890Y-62330213D01*
X94064951Y-62502179D01*
X93968444Y-62691585D01*
X93902753Y-62893760D01*
X93876241Y-63061153D01*
X93869500Y-63103713D01*
X92600500Y-63103713D01*
X92600500Y-55657135D01*
X159514500Y-55657135D01*
X159514500Y-57452870D01*
X159514501Y-57452876D01*
X159520908Y-57512483D01*
X159571202Y-57647328D01*
X159571206Y-57647335D01*
X159657452Y-57762544D01*
X159657455Y-57762547D01*
X159772664Y-57848793D01*
X159772671Y-57848797D01*
X159772674Y-57848798D01*
X159904598Y-57898002D01*
X159960531Y-57939873D01*
X159984949Y-58005337D01*
X159970098Y-58073610D01*
X159948947Y-58101865D01*
X159835271Y-58215541D01*
X159710379Y-58387442D01*
X159613904Y-58576782D01*
X159548242Y-58778870D01*
X159548242Y-58778873D01*
X159537769Y-58845000D01*
X160431988Y-58845000D01*
X160399075Y-58902007D01*
X160365000Y-59029174D01*
X160365000Y-59160826D01*
X160399075Y-59287993D01*
X160431988Y-59345000D01*
X159537769Y-59345000D01*
X159548242Y-59411126D01*
X159548242Y-59411129D01*
X159613904Y-59613217D01*
X159710379Y-59802557D01*
X159835272Y-59974459D01*
X159835276Y-59974464D01*
X159985535Y-60124723D01*
X159985540Y-60124727D01*
X160157444Y-60249622D01*
X160166495Y-60254234D01*
X160217292Y-60302208D01*
X160234087Y-60370029D01*
X160211550Y-60436164D01*
X160166499Y-60475202D01*
X160157182Y-60479949D01*
X159985213Y-60604890D01*
X159834890Y-60755213D01*
X159709951Y-60927179D01*
X159613444Y-61116585D01*
X159547753Y-61318760D01*
X159514500Y-61528713D01*
X159514500Y-61741286D01*
X159545191Y-61935065D01*
X159547754Y-61951243D01*
X159581450Y-62054949D01*
X159613444Y-62153414D01*
X159709951Y-62342820D01*
X159834890Y-62514786D01*
X159985213Y-62665109D01*
X160157182Y-62790050D01*
X160165946Y-62794516D01*
X160216742Y-62842491D01*
X160233536Y-62910312D01*
X160210998Y-62976447D01*
X160165946Y-63015484D01*
X160157182Y-63019949D01*
X159985213Y-63144890D01*
X159834890Y-63295213D01*
X159709951Y-63467179D01*
X159613444Y-63656585D01*
X159547753Y-63858760D01*
X159514500Y-64068713D01*
X159514500Y-64281286D01*
X159546705Y-64484625D01*
X159547754Y-64491243D01*
X159609051Y-64679896D01*
X159613444Y-64693414D01*
X159709951Y-64882820D01*
X159834890Y-65054786D01*
X159985213Y-65205109D01*
X160157182Y-65330050D01*
X160165946Y-65334516D01*
X160216742Y-65382491D01*
X160233536Y-65450312D01*
X160210998Y-65516447D01*
X160165946Y-65555484D01*
X160157182Y-65559949D01*
X159985213Y-65684890D01*
X159834890Y-65835213D01*
X159709951Y-66007179D01*
X159613444Y-66196585D01*
X159547753Y-66398760D01*
X159514500Y-66608713D01*
X159514500Y-66821286D01*
X159544345Y-67009723D01*
X159547754Y-67031243D01*
X159598430Y-67187208D01*
X159613444Y-67233414D01*
X159709951Y-67422820D01*
X159834890Y-67594786D01*
X159985213Y-67745109D01*
X160157182Y-67870050D01*
X160165946Y-67874516D01*
X160216742Y-67922491D01*
X160233536Y-67990312D01*
X160210998Y-68056447D01*
X160165946Y-68095484D01*
X160157182Y-68099949D01*
X159985213Y-68224890D01*
X159834890Y-68375213D01*
X159709951Y-68547179D01*
X159613444Y-68736585D01*
X159547753Y-68938760D01*
X159514500Y-69148713D01*
X159514500Y-69361286D01*
X159546023Y-69560319D01*
X159547754Y-69571243D01*
X159612840Y-69771557D01*
X159613444Y-69773414D01*
X159709951Y-69962820D01*
X159834890Y-70134786D01*
X159985213Y-70285109D01*
X160157182Y-70410050D01*
X160165946Y-70414516D01*
X160216742Y-70462491D01*
X160233536Y-70530312D01*
X160210998Y-70596447D01*
X160165946Y-70635484D01*
X160157182Y-70639949D01*
X159985213Y-70764890D01*
X159834890Y-70915213D01*
X159709951Y-71087179D01*
X159613444Y-71276585D01*
X159547753Y-71478760D01*
X159514500Y-71688713D01*
X159514500Y-71901286D01*
X159538580Y-72053325D01*
X159547754Y-72111243D01*
X159611100Y-72306202D01*
X159613444Y-72313414D01*
X159709951Y-72502820D01*
X159834890Y-72674786D01*
X159985213Y-72825109D01*
X160157182Y-72950050D01*
X160165946Y-72954516D01*
X160216742Y-73002491D01*
X160233536Y-73070312D01*
X160210998Y-73136447D01*
X160165946Y-73175484D01*
X160157182Y-73179949D01*
X159985213Y-73304890D01*
X159834890Y-73455213D01*
X159709951Y-73627179D01*
X159613444Y-73816585D01*
X159613443Y-73816587D01*
X159613443Y-73816588D01*
X159599337Y-73860001D01*
X159547753Y-74018760D01*
X159514500Y-74228713D01*
X159514500Y-74441286D01*
X159533381Y-74560500D01*
X159547754Y-74651243D01*
X159598540Y-74807547D01*
X159613444Y-74853414D01*
X159709951Y-75042820D01*
X159834890Y-75214786D01*
X159985213Y-75365109D01*
X160157179Y-75490048D01*
X160157181Y-75490049D01*
X160157184Y-75490051D01*
X160346588Y-75586557D01*
X160548757Y-75652246D01*
X160758713Y-75685500D01*
X160758714Y-75685500D01*
X160971286Y-75685500D01*
X160971287Y-75685500D01*
X161181243Y-75652246D01*
X161383412Y-75586557D01*
X161572816Y-75490051D01*
X161642956Y-75439092D01*
X161744786Y-75365109D01*
X161744788Y-75365106D01*
X161744792Y-75365104D01*
X161895104Y-75214792D01*
X161895106Y-75214788D01*
X161895109Y-75214786D01*
X162020048Y-75042820D01*
X162020047Y-75042820D01*
X162020051Y-75042816D01*
X162116557Y-74853412D01*
X162182246Y-74651243D01*
X162215500Y-74441287D01*
X162215500Y-74228713D01*
X162182246Y-74018757D01*
X162116557Y-73816588D01*
X162020051Y-73627184D01*
X162020049Y-73627181D01*
X162020048Y-73627179D01*
X161895109Y-73455213D01*
X161744786Y-73304890D01*
X161572820Y-73179951D01*
X161572115Y-73179591D01*
X161564054Y-73175485D01*
X161560094Y-73171744D01*
X161554846Y-73170287D01*
X161534965Y-73148011D01*
X161513259Y-73127512D01*
X161511949Y-73122224D01*
X161508322Y-73118160D01*
X161503640Y-73088673D01*
X161496463Y-73059692D01*
X161498220Y-73054534D01*
X161497366Y-73049154D01*
X161505270Y-73031153D01*
X173629500Y-73031153D01*
X173629500Y-73188846D01*
X173660261Y-73343489D01*
X173660264Y-73343501D01*
X173720603Y-73489174D01*
X173723475Y-73494546D01*
X173721317Y-73495699D01*
X173738980Y-73552108D01*
X173739000Y-73554322D01*
X173739000Y-76245677D01*
X173721724Y-76304509D01*
X173723479Y-76305447D01*
X173720602Y-76310828D01*
X173660264Y-76456498D01*
X173660261Y-76456510D01*
X173629500Y-76611153D01*
X173629500Y-76768846D01*
X173660261Y-76923489D01*
X173660264Y-76923501D01*
X173720602Y-77069172D01*
X173720609Y-77069185D01*
X173808210Y-77200288D01*
X173808213Y-77200292D01*
X173919707Y-77311786D01*
X173919711Y-77311789D01*
X174050814Y-77399390D01*
X174050827Y-77399397D01*
X174196498Y-77459735D01*
X174196503Y-77459737D01*
X174351153Y-77490499D01*
X174351156Y-77490500D01*
X174351158Y-77490500D01*
X174508844Y-77490500D01*
X174508845Y-77490499D01*
X174663497Y-77459737D01*
X174809179Y-77399394D01*
X174940289Y-77311789D01*
X175051789Y-77200289D01*
X175139394Y-77069179D01*
X175199737Y-76923497D01*
X175230500Y-76768842D01*
X175230500Y-76611158D01*
X175230500Y-76611155D01*
X175230499Y-76611153D01*
X175205860Y-76487287D01*
X175199737Y-76456503D01*
X175139394Y-76310821D01*
X175139390Y-76310815D01*
X175136521Y-76305447D01*
X175138676Y-76304294D01*
X175121019Y-76247869D01*
X175121000Y-76245677D01*
X175121000Y-73554322D01*
X175138277Y-73495482D01*
X175136525Y-73494546D01*
X175139390Y-73489184D01*
X175139394Y-73489179D01*
X175199737Y-73343497D01*
X175230500Y-73188842D01*
X175230500Y-73031158D01*
X175230500Y-73031155D01*
X175230499Y-73031153D01*
X175223020Y-72993556D01*
X175199737Y-72876503D01*
X175178449Y-72825109D01*
X175139397Y-72730827D01*
X175139390Y-72730814D01*
X175051789Y-72599711D01*
X175051786Y-72599707D01*
X174940292Y-72488213D01*
X174940288Y-72488210D01*
X174809185Y-72400609D01*
X174809172Y-72400602D01*
X174663501Y-72340264D01*
X174663489Y-72340261D01*
X174508845Y-72309500D01*
X174508842Y-72309500D01*
X174351158Y-72309500D01*
X174351155Y-72309500D01*
X174196510Y-72340261D01*
X174196498Y-72340264D01*
X174050827Y-72400602D01*
X174050814Y-72400609D01*
X173919711Y-72488210D01*
X173919707Y-72488213D01*
X173808213Y-72599707D01*
X173808210Y-72599711D01*
X173720609Y-72730814D01*
X173720602Y-72730827D01*
X173660264Y-72876498D01*
X173660261Y-72876510D01*
X173629500Y-73031153D01*
X161505270Y-73031153D01*
X161509368Y-73021819D01*
X161518999Y-72993556D01*
X161523848Y-72988841D01*
X161525456Y-72985180D01*
X161537260Y-72975801D01*
X161551787Y-72961679D01*
X161557714Y-72957745D01*
X161572816Y-72950051D01*
X161744792Y-72825104D01*
X161895104Y-72674792D01*
X161895106Y-72674788D01*
X161895109Y-72674786D01*
X162020048Y-72502820D01*
X162020047Y-72502820D01*
X162020051Y-72502816D01*
X162116557Y-72313412D01*
X162182246Y-72111243D01*
X162215500Y-71901287D01*
X162215500Y-71688713D01*
X162182246Y-71478757D01*
X162116557Y-71276588D01*
X162020051Y-71087184D01*
X162020049Y-71087181D01*
X162020048Y-71087179D01*
X161895109Y-70915213D01*
X161744786Y-70764890D01*
X161572820Y-70639951D01*
X161572115Y-70639591D01*
X161564054Y-70635485D01*
X161513259Y-70587512D01*
X161496463Y-70519692D01*
X161518999Y-70453556D01*
X161564054Y-70414515D01*
X161572816Y-70410051D01*
X161626812Y-70370821D01*
X161744786Y-70285109D01*
X161744788Y-70285106D01*
X161744792Y-70285104D01*
X161895104Y-70134792D01*
X161895106Y-70134788D01*
X161895109Y-70134786D01*
X162020048Y-69962820D01*
X162020047Y-69962820D01*
X162020051Y-69962816D01*
X162116557Y-69773412D01*
X162182246Y-69571243D01*
X162215500Y-69361287D01*
X162215500Y-69148713D01*
X162182246Y-68938757D01*
X162116557Y-68736588D01*
X162020051Y-68547184D01*
X162004834Y-68526239D01*
X161972494Y-68481726D01*
X161923080Y-68413713D01*
X177499500Y-68413713D01*
X177499500Y-68626286D01*
X177532753Y-68836239D01*
X177598444Y-69038414D01*
X177694951Y-69227820D01*
X177819890Y-69399786D01*
X177970213Y-69550109D01*
X178142182Y-69675050D01*
X178150946Y-69679516D01*
X178201742Y-69727491D01*
X178218536Y-69795312D01*
X178195998Y-69861447D01*
X178150946Y-69900484D01*
X178142182Y-69904949D01*
X177970213Y-70029890D01*
X177819890Y-70180213D01*
X177694951Y-70352179D01*
X177598444Y-70541585D01*
X177532753Y-70743760D01*
X177499500Y-70953713D01*
X177499500Y-71166286D01*
X177532048Y-71371789D01*
X177532754Y-71376243D01*
X177571228Y-71494654D01*
X177598444Y-71578414D01*
X177694951Y-71767820D01*
X177819890Y-71939786D01*
X177933430Y-72053326D01*
X177966915Y-72114649D01*
X177961931Y-72184341D01*
X177920059Y-72240274D01*
X177889083Y-72257189D01*
X177757669Y-72306203D01*
X177757664Y-72306206D01*
X177642455Y-72392452D01*
X177642452Y-72392455D01*
X177556206Y-72507664D01*
X177556202Y-72507671D01*
X177505908Y-72642517D01*
X177499501Y-72702116D01*
X177499501Y-72702123D01*
X177499500Y-72702135D01*
X177499501Y-74497864D01*
X177499501Y-74497876D01*
X177505908Y-74557483D01*
X177556202Y-74692328D01*
X177556206Y-74692335D01*
X177642452Y-74807544D01*
X177642455Y-74807547D01*
X177757664Y-74893793D01*
X177757671Y-74893797D01*
X177892517Y-74944091D01*
X177892516Y-74944091D01*
X177899444Y-74944835D01*
X177952127Y-74950500D01*
X179747872Y-74950499D01*
X179807483Y-74944091D01*
X179942331Y-74893796D01*
X180057546Y-74807546D01*
X180143796Y-74692331D01*
X180194091Y-74557483D01*
X180200500Y-74497873D01*
X180200499Y-72702128D01*
X180194091Y-72642517D01*
X180178125Y-72599711D01*
X180143797Y-72507671D01*
X180143793Y-72507664D01*
X180057547Y-72392455D01*
X180057544Y-72392452D01*
X179942335Y-72306206D01*
X179942328Y-72306202D01*
X179810917Y-72257189D01*
X179754983Y-72215318D01*
X179730566Y-72149853D01*
X179745418Y-72081580D01*
X179766563Y-72053332D01*
X179880104Y-71939792D01*
X179897718Y-71915549D01*
X180005048Y-71767820D01*
X180005047Y-71767820D01*
X180005051Y-71767816D01*
X180101557Y-71578412D01*
X180167246Y-71376243D01*
X180200500Y-71166287D01*
X180200500Y-70953713D01*
X180167246Y-70743757D01*
X180101557Y-70541588D01*
X180005051Y-70352184D01*
X180005049Y-70352181D01*
X180005048Y-70352179D01*
X179880109Y-70180213D01*
X179729786Y-70029890D01*
X179557820Y-69904951D01*
X179557115Y-69904591D01*
X179549054Y-69900485D01*
X179498259Y-69852512D01*
X179481463Y-69784692D01*
X179503999Y-69718556D01*
X179549054Y-69679515D01*
X179557816Y-69675051D01*
X179579789Y-69659086D01*
X179729786Y-69550109D01*
X179729788Y-69550106D01*
X179729792Y-69550104D01*
X179880104Y-69399792D01*
X179880106Y-69399788D01*
X179880109Y-69399786D01*
X180005048Y-69227820D01*
X180005047Y-69227820D01*
X180005051Y-69227816D01*
X180101557Y-69038412D01*
X180167246Y-68836243D01*
X180200500Y-68626287D01*
X180200500Y-68413713D01*
X180167246Y-68203757D01*
X180101557Y-68001588D01*
X180005051Y-67812184D01*
X180005049Y-67812181D01*
X180005048Y-67812179D01*
X179880109Y-67640213D01*
X179729786Y-67489890D01*
X179557817Y-67364949D01*
X179548504Y-67360204D01*
X179497707Y-67312230D01*
X179480912Y-67244409D01*
X179503449Y-67178274D01*
X179548507Y-67139232D01*
X179557558Y-67134620D01*
X179729459Y-67009727D01*
X179729464Y-67009723D01*
X179879723Y-66859464D01*
X179879727Y-66859459D01*
X180004620Y-66687557D01*
X180101095Y-66498217D01*
X180166757Y-66296129D01*
X180166757Y-66296126D01*
X180177231Y-66230000D01*
X179283012Y-66230000D01*
X179315925Y-66172993D01*
X179350000Y-66045826D01*
X179350000Y-65914174D01*
X179315925Y-65787007D01*
X179283012Y-65730000D01*
X180177231Y-65730000D01*
X180166757Y-65663873D01*
X180166757Y-65663870D01*
X180101095Y-65461782D01*
X180004620Y-65272442D01*
X179879727Y-65100540D01*
X179879723Y-65100535D01*
X179729464Y-64950276D01*
X179729459Y-64950272D01*
X179557557Y-64825379D01*
X179368215Y-64728903D01*
X179166124Y-64663241D01*
X179100000Y-64652768D01*
X179100000Y-65546988D01*
X179042993Y-65514075D01*
X178915826Y-65480000D01*
X178784174Y-65480000D01*
X178657007Y-65514075D01*
X178600000Y-65546988D01*
X178600000Y-64652768D01*
X178599999Y-64652768D01*
X178533875Y-64663241D01*
X178331784Y-64728903D01*
X178142442Y-64825379D01*
X177970540Y-64950272D01*
X177970535Y-64950276D01*
X177820276Y-65100535D01*
X177820272Y-65100540D01*
X177695379Y-65272442D01*
X177598904Y-65461782D01*
X177533242Y-65663870D01*
X177533242Y-65663873D01*
X177522769Y-65730000D01*
X178416988Y-65730000D01*
X178384075Y-65787007D01*
X178350000Y-65914174D01*
X178350000Y-66045826D01*
X178384075Y-66172993D01*
X178416988Y-66230000D01*
X177522769Y-66230000D01*
X177533242Y-66296126D01*
X177533242Y-66296129D01*
X177598904Y-66498217D01*
X177695379Y-66687557D01*
X177820272Y-66859459D01*
X177820276Y-66859464D01*
X177970535Y-67009723D01*
X177970540Y-67009727D01*
X178142444Y-67134622D01*
X178151495Y-67139234D01*
X178202292Y-67187208D01*
X178219087Y-67255029D01*
X178196550Y-67321164D01*
X178151499Y-67360202D01*
X178142182Y-67364949D01*
X177970213Y-67489890D01*
X177819890Y-67640213D01*
X177694951Y-67812179D01*
X177598444Y-68001585D01*
X177532753Y-68203760D01*
X177499500Y-68413713D01*
X161923080Y-68413713D01*
X161895109Y-68375213D01*
X161744786Y-68224890D01*
X161572820Y-68099951D01*
X161572115Y-68099591D01*
X161564054Y-68095485D01*
X161513259Y-68047512D01*
X161496463Y-67979692D01*
X161518999Y-67913556D01*
X161564054Y-67874515D01*
X161572816Y-67870051D01*
X161652471Y-67812179D01*
X161744786Y-67745109D01*
X161744788Y-67745106D01*
X161744792Y-67745104D01*
X161895104Y-67594792D01*
X161895106Y-67594788D01*
X161895109Y-67594786D01*
X162020048Y-67422820D01*
X162020047Y-67422820D01*
X162020051Y-67422816D01*
X162116557Y-67233412D01*
X162182246Y-67031243D01*
X162215500Y-66821287D01*
X162215500Y-66608713D01*
X162182246Y-66398757D01*
X162116557Y-66196588D01*
X162020051Y-66007184D01*
X161895104Y-65835208D01*
X161744792Y-65684896D01*
X161744786Y-65684890D01*
X161572820Y-65559951D01*
X161572115Y-65559591D01*
X161564054Y-65555485D01*
X161513259Y-65507512D01*
X161496463Y-65439692D01*
X161518999Y-65373556D01*
X161564054Y-65334515D01*
X161572816Y-65330051D01*
X161607204Y-65305067D01*
X161744786Y-65205109D01*
X161744788Y-65205106D01*
X161744792Y-65205104D01*
X161895104Y-65054792D01*
X161895106Y-65054788D01*
X161895109Y-65054786D01*
X162020048Y-64882820D01*
X162020047Y-64882820D01*
X162020051Y-64882816D01*
X162116557Y-64693412D01*
X162182246Y-64491243D01*
X162215500Y-64281287D01*
X162215500Y-64068713D01*
X162182246Y-63858757D01*
X162116557Y-63656588D01*
X162020051Y-63467184D01*
X162020049Y-63467181D01*
X162020048Y-63467179D01*
X161895109Y-63295213D01*
X161744786Y-63144890D01*
X161572820Y-63019951D01*
X161572115Y-63019591D01*
X161564054Y-63015485D01*
X161513259Y-62967512D01*
X161496463Y-62899692D01*
X161518999Y-62833556D01*
X161564054Y-62794515D01*
X161572816Y-62790051D01*
X161708344Y-62691585D01*
X161744786Y-62665109D01*
X161744788Y-62665106D01*
X161744792Y-62665104D01*
X161895104Y-62514792D01*
X161895106Y-62514788D01*
X161895109Y-62514786D01*
X162020048Y-62342820D01*
X162020047Y-62342820D01*
X162020051Y-62342816D01*
X162116557Y-62153412D01*
X162182246Y-61951243D01*
X162215500Y-61741287D01*
X162215500Y-61528713D01*
X162182246Y-61318757D01*
X162116557Y-61116588D01*
X162020051Y-60927184D01*
X162020049Y-60927181D01*
X162020048Y-60927179D01*
X161895109Y-60755213D01*
X161744786Y-60604890D01*
X161572817Y-60479949D01*
X161563504Y-60475204D01*
X161512707Y-60427230D01*
X161495912Y-60359409D01*
X161518449Y-60293274D01*
X161563507Y-60254232D01*
X161572558Y-60249620D01*
X161744459Y-60124727D01*
X161744464Y-60124723D01*
X161894723Y-59974464D01*
X161894727Y-59974459D01*
X162019620Y-59802557D01*
X162116095Y-59613217D01*
X162181757Y-59411129D01*
X162181757Y-59411126D01*
X162192231Y-59345000D01*
X161298012Y-59345000D01*
X161330925Y-59287993D01*
X161365000Y-59160826D01*
X161365000Y-59029174D01*
X161330925Y-58902007D01*
X161298012Y-58845000D01*
X162192231Y-58845000D01*
X162181757Y-58778873D01*
X162181757Y-58778870D01*
X162131237Y-58623384D01*
X162120764Y-58591153D01*
X172779500Y-58591153D01*
X172779500Y-58748846D01*
X172810261Y-58903489D01*
X172810264Y-58903501D01*
X172870602Y-59049172D01*
X172870609Y-59049185D01*
X172958210Y-59180288D01*
X172958213Y-59180292D01*
X173069707Y-59291786D01*
X173069711Y-59291789D01*
X173200814Y-59379390D01*
X173200827Y-59379397D01*
X173322363Y-59429738D01*
X173346503Y-59439737D01*
X173501153Y-59470499D01*
X173501156Y-59470500D01*
X173501158Y-59470500D01*
X173658844Y-59470500D01*
X173658845Y-59470499D01*
X173813497Y-59439737D01*
X173959179Y-59379394D01*
X173959188Y-59379387D01*
X173964553Y-59376521D01*
X173965705Y-59378676D01*
X174022131Y-59361019D01*
X174024323Y-59361000D01*
X174905890Y-59361000D01*
X174953342Y-59370439D01*
X175096498Y-59429735D01*
X175096503Y-59429737D01*
X175251153Y-59460499D01*
X175251156Y-59460500D01*
X175251158Y-59460500D01*
X175408844Y-59460500D01*
X175408845Y-59460499D01*
X175563497Y-59429737D01*
X175676166Y-59383067D01*
X175709172Y-59369397D01*
X175709172Y-59369396D01*
X175709179Y-59369394D01*
X175840289Y-59281789D01*
X175951789Y-59170289D01*
X176039394Y-59039179D01*
X176099737Y-58893497D01*
X176130500Y-58738842D01*
X176130500Y-58581158D01*
X176130500Y-58581155D01*
X176130499Y-58581153D01*
X176129630Y-58576782D01*
X176099737Y-58426503D01*
X176043539Y-58290827D01*
X176039397Y-58280827D01*
X176039390Y-58280814D01*
X175951789Y-58149711D01*
X175951786Y-58149707D01*
X175840292Y-58038213D01*
X175840288Y-58038210D01*
X175709185Y-57950609D01*
X175709172Y-57950602D01*
X175563501Y-57890264D01*
X175563489Y-57890261D01*
X175408845Y-57859500D01*
X175408842Y-57859500D01*
X175251158Y-57859500D01*
X175251155Y-57859500D01*
X175096510Y-57890261D01*
X175096498Y-57890264D01*
X174950828Y-57950602D01*
X174950812Y-57950611D01*
X174939600Y-57958103D01*
X174872923Y-57978980D01*
X174870711Y-57979000D01*
X174024323Y-57979000D01*
X173965490Y-57961724D01*
X173964553Y-57963479D01*
X173959181Y-57960607D01*
X173959179Y-57960606D01*
X173959176Y-57960605D01*
X173959171Y-57960602D01*
X173813501Y-57900264D01*
X173813489Y-57900261D01*
X173658845Y-57869500D01*
X173658842Y-57869500D01*
X173501158Y-57869500D01*
X173501155Y-57869500D01*
X173346510Y-57900261D01*
X173346498Y-57900264D01*
X173200827Y-57960602D01*
X173200814Y-57960609D01*
X173069711Y-58048210D01*
X173069707Y-58048213D01*
X172958213Y-58159707D01*
X172958210Y-58159711D01*
X172870609Y-58290814D01*
X172870602Y-58290827D01*
X172810264Y-58436498D01*
X172810261Y-58436510D01*
X172779500Y-58591153D01*
X162120764Y-58591153D01*
X162116095Y-58576782D01*
X162019620Y-58387442D01*
X161894727Y-58215540D01*
X161894723Y-58215535D01*
X161781053Y-58101865D01*
X161747568Y-58040542D01*
X161752552Y-57970850D01*
X161794424Y-57914917D01*
X161825400Y-57898002D01*
X161957331Y-57848796D01*
X162072546Y-57762546D01*
X162158796Y-57647331D01*
X162209091Y-57512483D01*
X162215500Y-57452873D01*
X162215499Y-55657128D01*
X162209091Y-55597517D01*
X162158796Y-55462669D01*
X162158795Y-55462668D01*
X162158793Y-55462664D01*
X162072547Y-55347455D01*
X162072544Y-55347452D01*
X161957335Y-55261206D01*
X161957328Y-55261202D01*
X161822482Y-55210908D01*
X161822483Y-55210908D01*
X161762883Y-55204501D01*
X161762881Y-55204500D01*
X161762873Y-55204500D01*
X161762864Y-55204500D01*
X159967129Y-55204500D01*
X159967123Y-55204501D01*
X159907516Y-55210908D01*
X159772671Y-55261202D01*
X159772664Y-55261206D01*
X159657455Y-55347452D01*
X159657452Y-55347455D01*
X159571206Y-55462664D01*
X159571202Y-55462671D01*
X159520908Y-55597517D01*
X159514501Y-55657116D01*
X159514501Y-55657123D01*
X159514500Y-55657135D01*
X92600500Y-55657135D01*
X92600500Y-53280000D01*
X93882970Y-53280000D01*
X94825854Y-53280000D01*
X94787370Y-53346657D01*
X94755000Y-53467465D01*
X94755000Y-53592535D01*
X94787370Y-53713343D01*
X94825854Y-53780000D01*
X93882970Y-53780000D01*
X93913242Y-53971127D01*
X93913242Y-53971130D01*
X93978904Y-54173217D01*
X94075379Y-54362557D01*
X94200272Y-54534459D01*
X94200276Y-54534464D01*
X94350535Y-54684723D01*
X94350540Y-54684727D01*
X94522442Y-54809620D01*
X94711782Y-54906095D01*
X94913871Y-54971757D01*
X94980000Y-54982231D01*
X94980000Y-53934145D01*
X95046657Y-53972630D01*
X95167465Y-54005000D01*
X95292535Y-54005000D01*
X95413343Y-53972630D01*
X95480000Y-53934145D01*
X95480000Y-54982230D01*
X95546126Y-54971757D01*
X95546129Y-54971757D01*
X95748217Y-54906095D01*
X95937557Y-54809620D01*
X96109459Y-54684727D01*
X96109464Y-54684723D01*
X96259721Y-54534466D01*
X96379371Y-54369781D01*
X96434701Y-54327115D01*
X96504314Y-54321136D01*
X96566110Y-54353741D01*
X96580008Y-54369781D01*
X96699890Y-54534785D01*
X96699894Y-54534790D01*
X96850213Y-54685109D01*
X97022179Y-54810048D01*
X97022181Y-54810049D01*
X97022184Y-54810051D01*
X97211588Y-54906557D01*
X97413757Y-54972246D01*
X97623713Y-55005500D01*
X97623714Y-55005500D01*
X97836286Y-55005500D01*
X97836287Y-55005500D01*
X98046243Y-54972246D01*
X98248412Y-54906557D01*
X98437816Y-54810051D01*
X98537610Y-54737547D01*
X98609786Y-54685109D01*
X98609788Y-54685106D01*
X98609792Y-54685104D01*
X98760104Y-54534792D01*
X98879683Y-54370204D01*
X98935011Y-54327540D01*
X99004624Y-54321561D01*
X99066420Y-54354166D01*
X99080313Y-54370199D01*
X99122218Y-54427876D01*
X99199896Y-54534792D01*
X99350213Y-54685109D01*
X99522179Y-54810048D01*
X99522181Y-54810049D01*
X99522184Y-54810051D01*
X99711588Y-54906557D01*
X99913757Y-54972246D01*
X100123713Y-55005500D01*
X100123714Y-55005500D01*
X100336286Y-55005500D01*
X100336287Y-55005500D01*
X100546243Y-54972246D01*
X100748412Y-54906557D01*
X100937816Y-54810051D01*
X101109792Y-54685104D01*
X101248604Y-54546291D01*
X101309923Y-54512809D01*
X101379615Y-54517793D01*
X101435549Y-54559664D01*
X101441821Y-54568878D01*
X101445185Y-54574333D01*
X101445186Y-54574334D01*
X101537288Y-54723656D01*
X101661344Y-54847712D01*
X101810666Y-54939814D01*
X101977203Y-54994999D01*
X102079991Y-55005500D01*
X103380008Y-55005499D01*
X103482797Y-54994999D01*
X103649334Y-54939814D01*
X103798656Y-54847712D01*
X103922712Y-54723656D01*
X104014814Y-54574334D01*
X104069999Y-54407797D01*
X104080500Y-54305009D01*
X104080499Y-52754992D01*
X104069999Y-52652203D01*
X104063349Y-52632135D01*
X107169500Y-52632135D01*
X107169500Y-54427870D01*
X107169501Y-54427876D01*
X107175908Y-54487483D01*
X107226202Y-54622328D01*
X107226206Y-54622335D01*
X107312452Y-54737544D01*
X107312455Y-54737547D01*
X107427664Y-54823793D01*
X107427671Y-54823797D01*
X107562517Y-54874091D01*
X107562516Y-54874091D01*
X107569444Y-54874835D01*
X107622127Y-54880500D01*
X109417872Y-54880499D01*
X109477483Y-54874091D01*
X109612331Y-54823796D01*
X109727546Y-54737546D01*
X109813796Y-54622331D01*
X109862810Y-54490916D01*
X109904681Y-54434984D01*
X109970145Y-54410566D01*
X110038418Y-54425417D01*
X110066673Y-54446569D01*
X110180213Y-54560109D01*
X110352179Y-54685048D01*
X110352181Y-54685049D01*
X110352184Y-54685051D01*
X110541588Y-54781557D01*
X110743757Y-54847246D01*
X110953713Y-54880500D01*
X110953714Y-54880500D01*
X111166286Y-54880500D01*
X111166287Y-54880500D01*
X111376243Y-54847246D01*
X111578412Y-54781557D01*
X111767816Y-54685051D01*
X111854138Y-54622335D01*
X111939786Y-54560109D01*
X111939788Y-54560106D01*
X111939792Y-54560104D01*
X112090104Y-54409792D01*
X112090106Y-54409788D01*
X112090109Y-54409786D01*
X112215048Y-54237820D01*
X112215051Y-54237816D01*
X112219793Y-54228508D01*
X112267763Y-54177711D01*
X112335583Y-54160911D01*
X112401719Y-54183445D01*
X112440763Y-54228500D01*
X112445377Y-54237555D01*
X112570272Y-54409459D01*
X112570276Y-54409464D01*
X112720535Y-54559723D01*
X112720540Y-54559727D01*
X112892442Y-54684620D01*
X113081782Y-54781095D01*
X113283871Y-54846757D01*
X113350000Y-54857231D01*
X113350000Y-53963012D01*
X113407007Y-53995925D01*
X113534174Y-54030000D01*
X113665826Y-54030000D01*
X113792993Y-53995925D01*
X113850000Y-53963012D01*
X113850000Y-54857230D01*
X113916126Y-54846757D01*
X113916129Y-54846757D01*
X114118217Y-54781095D01*
X114307557Y-54684620D01*
X114479459Y-54559727D01*
X114479464Y-54559723D01*
X114629723Y-54409464D01*
X114629727Y-54409459D01*
X114754620Y-54237558D01*
X114759232Y-54228507D01*
X114807205Y-54177709D01*
X114875025Y-54160912D01*
X114941161Y-54183447D01*
X114980204Y-54228504D01*
X114984949Y-54237817D01*
X115109890Y-54409786D01*
X115260213Y-54560109D01*
X115432179Y-54685048D01*
X115432181Y-54685049D01*
X115432184Y-54685051D01*
X115621588Y-54781557D01*
X115823757Y-54847246D01*
X116033713Y-54880500D01*
X116033714Y-54880500D01*
X116246286Y-54880500D01*
X116246287Y-54880500D01*
X116456243Y-54847246D01*
X116658412Y-54781557D01*
X116847816Y-54685051D01*
X116934138Y-54622335D01*
X117019786Y-54560109D01*
X117019788Y-54560106D01*
X117019792Y-54560104D01*
X117170104Y-54409792D01*
X117170106Y-54409788D01*
X117170109Y-54409786D01*
X117295048Y-54237820D01*
X117295047Y-54237820D01*
X117295051Y-54237816D01*
X117391557Y-54048412D01*
X117457246Y-53846243D01*
X117490500Y-53636287D01*
X117490500Y-53423713D01*
X117457246Y-53213757D01*
X117391557Y-53011588D01*
X117295051Y-52822184D01*
X117295049Y-52822181D01*
X117295048Y-52822179D01*
X117170109Y-52650213D01*
X117019786Y-52499890D01*
X116847820Y-52374951D01*
X116658414Y-52278444D01*
X116658413Y-52278443D01*
X116658412Y-52278443D01*
X116456243Y-52212754D01*
X116456241Y-52212753D01*
X116456240Y-52212753D01*
X116294957Y-52187208D01*
X116246287Y-52179500D01*
X116033713Y-52179500D01*
X115985042Y-52187208D01*
X115823760Y-52212753D01*
X115621585Y-52278444D01*
X115432179Y-52374951D01*
X115260213Y-52499890D01*
X115109890Y-52650213D01*
X114984949Y-52822182D01*
X114980202Y-52831499D01*
X114932227Y-52882293D01*
X114864405Y-52899087D01*
X114798271Y-52876548D01*
X114759234Y-52831495D01*
X114754622Y-52822444D01*
X114629727Y-52650540D01*
X114629723Y-52650535D01*
X114479464Y-52500276D01*
X114479459Y-52500272D01*
X114307557Y-52375379D01*
X114118215Y-52278903D01*
X113916124Y-52213241D01*
X113850000Y-52202768D01*
X113850000Y-53096988D01*
X113792993Y-53064075D01*
X113665826Y-53030000D01*
X113534174Y-53030000D01*
X113407007Y-53064075D01*
X113350000Y-53096988D01*
X113350000Y-52202768D01*
X113349999Y-52202768D01*
X113283875Y-52213241D01*
X113081784Y-52278903D01*
X112892442Y-52375379D01*
X112720540Y-52500272D01*
X112720535Y-52500276D01*
X112570276Y-52650535D01*
X112570272Y-52650540D01*
X112445378Y-52822443D01*
X112440762Y-52831502D01*
X112392784Y-52882295D01*
X112324963Y-52899087D01*
X112258829Y-52876546D01*
X112219794Y-52831493D01*
X112215051Y-52822184D01*
X112215049Y-52822181D01*
X112215048Y-52822179D01*
X112090109Y-52650213D01*
X111939786Y-52499890D01*
X111767820Y-52374951D01*
X111578414Y-52278444D01*
X111578413Y-52278443D01*
X111578412Y-52278443D01*
X111376243Y-52212754D01*
X111376241Y-52212753D01*
X111376240Y-52212753D01*
X111214957Y-52187208D01*
X111166287Y-52179500D01*
X110953713Y-52179500D01*
X110905042Y-52187208D01*
X110743760Y-52212753D01*
X110541585Y-52278444D01*
X110352179Y-52374951D01*
X110180215Y-52499889D01*
X110066673Y-52613431D01*
X110005350Y-52646915D01*
X109935658Y-52641931D01*
X109879725Y-52600059D01*
X109862810Y-52569082D01*
X109813797Y-52437671D01*
X109813793Y-52437664D01*
X109727547Y-52322455D01*
X109727544Y-52322452D01*
X109612335Y-52236206D01*
X109612328Y-52236202D01*
X109477482Y-52185908D01*
X109477483Y-52185908D01*
X109417883Y-52179501D01*
X109417881Y-52179500D01*
X109417873Y-52179500D01*
X109417864Y-52179500D01*
X107622129Y-52179500D01*
X107622123Y-52179501D01*
X107562516Y-52185908D01*
X107427671Y-52236202D01*
X107427664Y-52236206D01*
X107312455Y-52322452D01*
X107312452Y-52322455D01*
X107226206Y-52437664D01*
X107226202Y-52437671D01*
X107175908Y-52572517D01*
X107169501Y-52632116D01*
X107169500Y-52632135D01*
X104063349Y-52632135D01*
X104014814Y-52485666D01*
X103922712Y-52336344D01*
X103798656Y-52212288D01*
X103649334Y-52120186D01*
X103482797Y-52065001D01*
X103482795Y-52065000D01*
X103380010Y-52054500D01*
X102079998Y-52054500D01*
X102079981Y-52054501D01*
X101977203Y-52065000D01*
X101977200Y-52065001D01*
X101810668Y-52120185D01*
X101810663Y-52120187D01*
X101661342Y-52212289D01*
X101537289Y-52336342D01*
X101441821Y-52491121D01*
X101389873Y-52537845D01*
X101320910Y-52549068D01*
X101256828Y-52521224D01*
X101248601Y-52513705D01*
X101109786Y-52374890D01*
X100937820Y-52249951D01*
X100748414Y-52153444D01*
X100748413Y-52153443D01*
X100748412Y-52153443D01*
X100546243Y-52087754D01*
X100546241Y-52087753D01*
X100546240Y-52087753D01*
X100384957Y-52062208D01*
X100336287Y-52054500D01*
X100123713Y-52054500D01*
X100075042Y-52062208D01*
X99913760Y-52087753D01*
X99711585Y-52153444D01*
X99522179Y-52249951D01*
X99350213Y-52374890D01*
X99199894Y-52525209D01*
X99199890Y-52525214D01*
X99080318Y-52689793D01*
X99024989Y-52732459D01*
X98955375Y-52738438D01*
X98893580Y-52705833D01*
X98879682Y-52689793D01*
X98760109Y-52525214D01*
X98760105Y-52525209D01*
X98609786Y-52374890D01*
X98437820Y-52249951D01*
X98248414Y-52153444D01*
X98248413Y-52153443D01*
X98248412Y-52153443D01*
X98046243Y-52087754D01*
X98046241Y-52087753D01*
X98046240Y-52087753D01*
X97884957Y-52062208D01*
X97836287Y-52054500D01*
X97623713Y-52054500D01*
X97575042Y-52062208D01*
X97413760Y-52087753D01*
X97211585Y-52153444D01*
X97022179Y-52249951D01*
X96850213Y-52374890D01*
X96699894Y-52525209D01*
X96699890Y-52525214D01*
X96580008Y-52690218D01*
X96524678Y-52732884D01*
X96455065Y-52738863D01*
X96393270Y-52706257D01*
X96379372Y-52690218D01*
X96259727Y-52525540D01*
X96259723Y-52525535D01*
X96109464Y-52375276D01*
X96109459Y-52375272D01*
X95937557Y-52250379D01*
X95748215Y-52153903D01*
X95546124Y-52088241D01*
X95480000Y-52077768D01*
X95480000Y-53125854D01*
X95413343Y-53087370D01*
X95292535Y-53055000D01*
X95167465Y-53055000D01*
X95046657Y-53087370D01*
X94980000Y-53125854D01*
X94980000Y-52077768D01*
X94979999Y-52077768D01*
X94913875Y-52088241D01*
X94711784Y-52153903D01*
X94522442Y-52250379D01*
X94350540Y-52375272D01*
X94350535Y-52375276D01*
X94200276Y-52525535D01*
X94200272Y-52525540D01*
X94075379Y-52697442D01*
X93978904Y-52886782D01*
X93913242Y-53088869D01*
X93913242Y-53088872D01*
X93882970Y-53280000D01*
X92600500Y-53280000D01*
X92600500Y-45135259D01*
X106349500Y-45135259D01*
X106349500Y-45364742D01*
X106374446Y-45554216D01*
X106379452Y-45592239D01*
X106411063Y-45710213D01*
X106438842Y-45813888D01*
X106526650Y-46025877D01*
X106526657Y-46025891D01*
X106553040Y-46071588D01*
X106623907Y-46194334D01*
X106641392Y-46224618D01*
X106781081Y-46406662D01*
X106781089Y-46406671D01*
X106943330Y-46568912D01*
X106943338Y-46568919D01*
X107125382Y-46708608D01*
X107125385Y-46708609D01*
X107125388Y-46708612D01*
X107324112Y-46823345D01*
X107324117Y-46823347D01*
X107324123Y-46823350D01*
X107415480Y-46861191D01*
X107536113Y-46911159D01*
X107757762Y-46970549D01*
X107985266Y-47000501D01*
X107985273Y-47000501D01*
X108214727Y-47000501D01*
X108214734Y-47000501D01*
X108442238Y-46970549D01*
X108663887Y-46911159D01*
X108875888Y-46823345D01*
X109074612Y-46708612D01*
X109256661Y-46568920D01*
X109256665Y-46568915D01*
X109256670Y-46568912D01*
X109418911Y-46406671D01*
X109418914Y-46406666D01*
X109418919Y-46406662D01*
X109558611Y-46224613D01*
X109673344Y-46025889D01*
X109761158Y-45813888D01*
X109820548Y-45592239D01*
X109850500Y-45364735D01*
X109850500Y-45135267D01*
X109821990Y-44918713D01*
X146079500Y-44918713D01*
X146079500Y-45381287D01*
X146112754Y-45591243D01*
X146151408Y-45710208D01*
X146178444Y-45793414D01*
X146274951Y-45982820D01*
X146399890Y-46154786D01*
X146550213Y-46305109D01*
X146722179Y-46430048D01*
X146722181Y-46430049D01*
X146722184Y-46430051D01*
X146911588Y-46526557D01*
X147113757Y-46592246D01*
X147323713Y-46625500D01*
X147323714Y-46625500D01*
X147536286Y-46625500D01*
X147536287Y-46625500D01*
X147746243Y-46592246D01*
X147948412Y-46526557D01*
X148137816Y-46430051D01*
X148170008Y-46406662D01*
X148309786Y-46305109D01*
X148309788Y-46305106D01*
X148309792Y-46305104D01*
X148460104Y-46154792D01*
X148579683Y-45990204D01*
X148635011Y-45947540D01*
X148704624Y-45941561D01*
X148766420Y-45974166D01*
X148780313Y-45990199D01*
X148883925Y-46132809D01*
X148899896Y-46154792D01*
X149050213Y-46305109D01*
X149222179Y-46430048D01*
X149222181Y-46430049D01*
X149222184Y-46430051D01*
X149411588Y-46526557D01*
X149613757Y-46592246D01*
X149823713Y-46625500D01*
X149823714Y-46625500D01*
X150036286Y-46625500D01*
X150036287Y-46625500D01*
X150246243Y-46592246D01*
X150448412Y-46526557D01*
X150637816Y-46430051D01*
X150670008Y-46406662D01*
X150809786Y-46305109D01*
X150809788Y-46305106D01*
X150809792Y-46305104D01*
X150960104Y-46154792D01*
X151079683Y-45990204D01*
X151135011Y-45947540D01*
X151204624Y-45941561D01*
X151266420Y-45974166D01*
X151280313Y-45990199D01*
X151383925Y-46132809D01*
X151399896Y-46154792D01*
X151550213Y-46305109D01*
X151722179Y-46430048D01*
X151722181Y-46430049D01*
X151722184Y-46430051D01*
X151911588Y-46526557D01*
X152113757Y-46592246D01*
X152323713Y-46625500D01*
X152323714Y-46625500D01*
X152536286Y-46625500D01*
X152536287Y-46625500D01*
X152746243Y-46592246D01*
X152948412Y-46526557D01*
X153137816Y-46430051D01*
X153309792Y-46305104D01*
X153448604Y-46166291D01*
X153509923Y-46132809D01*
X153579615Y-46137793D01*
X153635549Y-46179664D01*
X153641821Y-46188878D01*
X153645185Y-46194333D01*
X153645186Y-46194334D01*
X153737288Y-46343656D01*
X153861344Y-46467712D01*
X154010666Y-46559814D01*
X154177203Y-46614999D01*
X154279991Y-46625500D01*
X155580008Y-46625499D01*
X155682797Y-46614999D01*
X155849334Y-46559814D01*
X155998656Y-46467712D01*
X156122712Y-46343656D01*
X156214814Y-46194334D01*
X156269999Y-46027797D01*
X156280500Y-45925009D01*
X156280499Y-44374992D01*
X156269999Y-44272203D01*
X156214814Y-44105666D01*
X156214810Y-44105659D01*
X156152068Y-44003937D01*
X156152067Y-44003935D01*
X156122714Y-43956347D01*
X156122711Y-43956343D01*
X155998657Y-43832289D01*
X155998656Y-43832288D01*
X155849334Y-43740186D01*
X155682797Y-43685001D01*
X155682795Y-43685000D01*
X155580010Y-43674500D01*
X154279998Y-43674500D01*
X154279981Y-43674501D01*
X154177203Y-43685000D01*
X154177200Y-43685001D01*
X154010668Y-43740185D01*
X154010663Y-43740187D01*
X153861342Y-43832289D01*
X153737289Y-43956342D01*
X153641821Y-44111121D01*
X153589873Y-44157845D01*
X153520910Y-44169068D01*
X153456828Y-44141224D01*
X153448601Y-44133705D01*
X153309786Y-43994890D01*
X153137820Y-43869951D01*
X152948414Y-43773444D01*
X152948413Y-43773443D01*
X152948412Y-43773443D01*
X152746243Y-43707754D01*
X152746241Y-43707753D01*
X152746240Y-43707753D01*
X152584957Y-43682208D01*
X152536287Y-43674500D01*
X152323713Y-43674500D01*
X152275042Y-43682208D01*
X152113760Y-43707753D01*
X151911585Y-43773444D01*
X151722179Y-43869951D01*
X151550213Y-43994890D01*
X151399894Y-44145209D01*
X151399890Y-44145214D01*
X151280318Y-44309793D01*
X151224989Y-44352459D01*
X151155375Y-44358438D01*
X151093580Y-44325833D01*
X151079682Y-44309793D01*
X150960109Y-44145214D01*
X150960105Y-44145209D01*
X150809786Y-43994890D01*
X150637820Y-43869951D01*
X150448414Y-43773444D01*
X150448413Y-43773443D01*
X150448412Y-43773443D01*
X150246243Y-43707754D01*
X150246241Y-43707753D01*
X150246240Y-43707753D01*
X150084957Y-43682208D01*
X150036287Y-43674500D01*
X149823713Y-43674500D01*
X149775042Y-43682208D01*
X149613760Y-43707753D01*
X149411585Y-43773444D01*
X149222179Y-43869951D01*
X149050213Y-43994890D01*
X148899894Y-44145209D01*
X148899890Y-44145214D01*
X148780318Y-44309793D01*
X148724989Y-44352459D01*
X148655375Y-44358438D01*
X148593580Y-44325833D01*
X148579682Y-44309793D01*
X148460109Y-44145214D01*
X148460105Y-44145209D01*
X148309786Y-43994890D01*
X148137820Y-43869951D01*
X147948414Y-43773444D01*
X147948413Y-43773443D01*
X147948412Y-43773443D01*
X147746243Y-43707754D01*
X147746241Y-43707753D01*
X147746240Y-43707753D01*
X147584957Y-43682208D01*
X147536287Y-43674500D01*
X147323713Y-43674500D01*
X147275042Y-43682208D01*
X147113760Y-43707753D01*
X146911585Y-43773444D01*
X146722179Y-43869951D01*
X146550213Y-43994890D01*
X146399890Y-44145213D01*
X146274951Y-44317179D01*
X146178444Y-44506585D01*
X146112753Y-44708760D01*
X146082988Y-44896689D01*
X146079500Y-44918713D01*
X109821990Y-44918713D01*
X109820548Y-44907763D01*
X109761158Y-44686114D01*
X109686796Y-44506588D01*
X109673349Y-44474124D01*
X109673346Y-44474118D01*
X109673344Y-44474113D01*
X109558611Y-44275389D01*
X109558608Y-44275386D01*
X109558607Y-44275383D01*
X109432563Y-44111121D01*
X109418919Y-44093340D01*
X109418918Y-44093339D01*
X109418911Y-44093331D01*
X109256670Y-43931090D01*
X109256661Y-43931082D01*
X109074617Y-43791393D01*
X109043528Y-43773444D01*
X108929748Y-43707753D01*
X108875890Y-43676658D01*
X108875876Y-43676651D01*
X108663887Y-43588843D01*
X108442238Y-43529453D01*
X108404215Y-43524447D01*
X108214741Y-43499501D01*
X108214734Y-43499501D01*
X107985266Y-43499501D01*
X107985258Y-43499501D01*
X107768715Y-43528010D01*
X107757762Y-43529453D01*
X107664076Y-43554555D01*
X107536112Y-43588843D01*
X107324123Y-43676651D01*
X107324109Y-43676658D01*
X107125382Y-43791393D01*
X106943338Y-43931082D01*
X106781081Y-44093339D01*
X106641392Y-44275383D01*
X106526657Y-44474110D01*
X106526650Y-44474124D01*
X106438842Y-44686113D01*
X106379453Y-44907760D01*
X106379451Y-44907771D01*
X106349500Y-45135259D01*
X92600500Y-45135259D01*
X92600500Y-36323713D01*
X161199500Y-36323713D01*
X161199500Y-36536286D01*
X161232753Y-36746239D01*
X161298444Y-36948414D01*
X161394951Y-37137820D01*
X161519890Y-37309786D01*
X161670213Y-37460109D01*
X161842182Y-37585050D01*
X161850946Y-37589516D01*
X161901742Y-37637491D01*
X161918536Y-37705312D01*
X161895998Y-37771447D01*
X161850946Y-37810484D01*
X161842182Y-37814949D01*
X161670213Y-37939890D01*
X161519890Y-38090213D01*
X161394951Y-38262179D01*
X161298444Y-38451585D01*
X161232753Y-38653760D01*
X161199500Y-38863713D01*
X161199500Y-39076286D01*
X161232753Y-39286239D01*
X161298444Y-39488414D01*
X161394951Y-39677820D01*
X161519890Y-39849786D01*
X161670213Y-40000109D01*
X161842179Y-40125048D01*
X161842181Y-40125049D01*
X161842184Y-40125051D01*
X161851493Y-40129794D01*
X161902290Y-40177766D01*
X161919087Y-40245587D01*
X161896552Y-40311722D01*
X161851502Y-40350762D01*
X161842443Y-40355378D01*
X161670540Y-40480272D01*
X161670535Y-40480276D01*
X161520276Y-40630535D01*
X161520272Y-40630540D01*
X161395379Y-40802442D01*
X161298904Y-40991782D01*
X161233242Y-41193870D01*
X161233242Y-41193873D01*
X161222769Y-41260000D01*
X162116988Y-41260000D01*
X162084075Y-41317007D01*
X162050000Y-41444174D01*
X162050000Y-41575826D01*
X162084075Y-41702993D01*
X162116988Y-41760000D01*
X161222769Y-41760000D01*
X161233242Y-41826126D01*
X161233242Y-41826129D01*
X161298904Y-42028217D01*
X161395379Y-42217557D01*
X161520272Y-42389459D01*
X161520276Y-42389464D01*
X161670535Y-42539723D01*
X161670540Y-42539727D01*
X161842444Y-42664622D01*
X161851495Y-42669234D01*
X161902292Y-42717208D01*
X161919087Y-42785029D01*
X161896550Y-42851164D01*
X161851499Y-42890202D01*
X161842182Y-42894949D01*
X161670213Y-43019890D01*
X161519890Y-43170213D01*
X161394951Y-43342179D01*
X161298444Y-43531585D01*
X161232753Y-43733760D01*
X161199500Y-43943713D01*
X161199500Y-44156286D01*
X161231517Y-44358438D01*
X161232754Y-44366243D01*
X161286863Y-44532774D01*
X161298444Y-44568414D01*
X161394951Y-44757820D01*
X161519890Y-44929786D01*
X161670213Y-45080109D01*
X161842182Y-45205050D01*
X161850946Y-45209516D01*
X161901742Y-45257491D01*
X161918536Y-45325312D01*
X161895998Y-45391447D01*
X161850946Y-45430484D01*
X161842182Y-45434949D01*
X161670213Y-45559890D01*
X161519890Y-45710213D01*
X161394951Y-45882179D01*
X161298444Y-46071585D01*
X161232753Y-46273760D01*
X161211704Y-46406662D01*
X161199500Y-46483713D01*
X161199500Y-46696287D01*
X161232754Y-46906243D01*
X161263380Y-47000501D01*
X161298444Y-47108414D01*
X161394951Y-47297820D01*
X161519890Y-47469786D01*
X161670213Y-47620109D01*
X161842182Y-47745050D01*
X161850946Y-47749516D01*
X161901742Y-47797491D01*
X161918536Y-47865312D01*
X161895998Y-47931447D01*
X161850946Y-47970484D01*
X161842182Y-47974949D01*
X161670213Y-48099890D01*
X161519890Y-48250213D01*
X161394951Y-48422179D01*
X161298444Y-48611585D01*
X161232753Y-48813760D01*
X161199500Y-49023713D01*
X161199500Y-49236286D01*
X161232753Y-49446239D01*
X161298444Y-49648414D01*
X161394951Y-49837820D01*
X161519890Y-50009786D01*
X161633430Y-50123326D01*
X161666915Y-50184649D01*
X161661931Y-50254341D01*
X161620059Y-50310274D01*
X161589083Y-50327189D01*
X161457669Y-50376203D01*
X161457664Y-50376206D01*
X161342455Y-50462452D01*
X161342452Y-50462455D01*
X161256206Y-50577664D01*
X161256202Y-50577671D01*
X161205908Y-50712517D01*
X161199501Y-50772116D01*
X161199501Y-50772123D01*
X161199500Y-50772135D01*
X161199500Y-52567870D01*
X161199501Y-52567876D01*
X161205908Y-52627483D01*
X161256202Y-52762328D01*
X161256206Y-52762335D01*
X161342452Y-52877544D01*
X161342455Y-52877547D01*
X161457664Y-52963793D01*
X161457671Y-52963797D01*
X161592517Y-53014091D01*
X161592516Y-53014091D01*
X161599444Y-53014835D01*
X161652127Y-53020500D01*
X163447872Y-53020499D01*
X163507483Y-53014091D01*
X163642331Y-52963796D01*
X163757546Y-52877546D01*
X163843796Y-52762331D01*
X163894091Y-52627483D01*
X163900500Y-52567873D01*
X163900499Y-50772128D01*
X163894091Y-50712517D01*
X163843796Y-50577669D01*
X163843795Y-50577668D01*
X163843793Y-50577664D01*
X163757547Y-50462455D01*
X163757544Y-50462452D01*
X163642335Y-50376206D01*
X163642328Y-50376202D01*
X163510917Y-50327189D01*
X163454983Y-50285318D01*
X163430566Y-50219853D01*
X163445418Y-50151580D01*
X163466563Y-50123332D01*
X163580104Y-50009792D01*
X163705051Y-49837816D01*
X163801557Y-49648412D01*
X163867246Y-49446243D01*
X163900500Y-49236287D01*
X163900500Y-49023713D01*
X163867246Y-48813757D01*
X163801557Y-48611588D01*
X163705051Y-48422184D01*
X163705049Y-48422181D01*
X163705048Y-48422179D01*
X163580109Y-48250213D01*
X163429786Y-48099890D01*
X163257820Y-47974951D01*
X163257115Y-47974591D01*
X163249054Y-47970485D01*
X163198259Y-47922512D01*
X163181463Y-47854692D01*
X163203999Y-47788556D01*
X163249054Y-47749515D01*
X163257816Y-47745051D01*
X163279789Y-47729086D01*
X163429786Y-47620109D01*
X163429788Y-47620106D01*
X163429792Y-47620104D01*
X163580104Y-47469792D01*
X163580106Y-47469788D01*
X163580109Y-47469786D01*
X163705048Y-47297820D01*
X163705047Y-47297820D01*
X163705051Y-47297816D01*
X163801557Y-47108412D01*
X163867246Y-46906243D01*
X163900500Y-46696287D01*
X163900500Y-46483713D01*
X163867246Y-46273757D01*
X163801557Y-46071588D01*
X163705051Y-45882184D01*
X163705049Y-45882181D01*
X163705048Y-45882179D01*
X163580109Y-45710213D01*
X163429786Y-45559890D01*
X163257820Y-45434951D01*
X163257115Y-45434591D01*
X163249054Y-45430485D01*
X163198259Y-45382512D01*
X163181463Y-45314692D01*
X163203999Y-45248556D01*
X163249054Y-45209515D01*
X163257816Y-45205051D01*
X163279789Y-45189086D01*
X163353877Y-45135259D01*
X164349500Y-45135259D01*
X164349500Y-45364742D01*
X164374446Y-45554216D01*
X164379452Y-45592239D01*
X164411063Y-45710213D01*
X164438842Y-45813888D01*
X164526650Y-46025877D01*
X164526657Y-46025891D01*
X164553040Y-46071588D01*
X164623907Y-46194334D01*
X164641392Y-46224618D01*
X164781081Y-46406662D01*
X164781089Y-46406671D01*
X164943330Y-46568912D01*
X164943338Y-46568919D01*
X165125382Y-46708608D01*
X165125385Y-46708609D01*
X165125388Y-46708612D01*
X165324112Y-46823345D01*
X165324117Y-46823347D01*
X165324123Y-46823350D01*
X165415480Y-46861191D01*
X165536113Y-46911159D01*
X165757762Y-46970549D01*
X165985266Y-47000501D01*
X165985273Y-47000501D01*
X166214727Y-47000501D01*
X166214734Y-47000501D01*
X166442238Y-46970549D01*
X166663887Y-46911159D01*
X166875888Y-46823345D01*
X167074612Y-46708612D01*
X167256661Y-46568920D01*
X167256665Y-46568915D01*
X167256670Y-46568912D01*
X167418911Y-46406671D01*
X167418914Y-46406666D01*
X167418919Y-46406662D01*
X167558611Y-46224613D01*
X167673344Y-46025889D01*
X167761158Y-45813888D01*
X167820548Y-45592239D01*
X167850500Y-45364735D01*
X167850500Y-45135267D01*
X167820548Y-44907763D01*
X167761158Y-44686114D01*
X167686796Y-44506588D01*
X167673349Y-44474124D01*
X167673346Y-44474118D01*
X167673344Y-44474113D01*
X167558611Y-44275389D01*
X167558608Y-44275386D01*
X167558607Y-44275383D01*
X167432563Y-44111121D01*
X167418919Y-44093340D01*
X167418918Y-44093339D01*
X167418911Y-44093331D01*
X167256670Y-43931090D01*
X167256661Y-43931082D01*
X167074617Y-43791393D01*
X167043528Y-43773444D01*
X166929748Y-43707753D01*
X166875890Y-43676658D01*
X166875876Y-43676651D01*
X166663887Y-43588843D01*
X166442238Y-43529453D01*
X166404215Y-43524447D01*
X166214741Y-43499501D01*
X166214734Y-43499501D01*
X165985266Y-43499501D01*
X165985258Y-43499501D01*
X165768715Y-43528010D01*
X165757762Y-43529453D01*
X165664076Y-43554555D01*
X165536112Y-43588843D01*
X165324123Y-43676651D01*
X165324109Y-43676658D01*
X165125382Y-43791393D01*
X164943338Y-43931082D01*
X164781081Y-44093339D01*
X164641392Y-44275383D01*
X164526657Y-44474110D01*
X164526650Y-44474124D01*
X164438842Y-44686113D01*
X164379453Y-44907760D01*
X164379451Y-44907771D01*
X164349500Y-45135259D01*
X163353877Y-45135259D01*
X163429786Y-45080109D01*
X163429788Y-45080106D01*
X163429792Y-45080104D01*
X163580104Y-44929792D01*
X163580106Y-44929788D01*
X163580109Y-44929786D01*
X163705048Y-44757820D01*
X163705047Y-44757820D01*
X163705051Y-44757816D01*
X163801557Y-44568412D01*
X163867246Y-44366243D01*
X163900500Y-44156287D01*
X163900500Y-43943713D01*
X163867246Y-43733757D01*
X163801557Y-43531588D01*
X163705051Y-43342184D01*
X163705049Y-43342181D01*
X163705048Y-43342179D01*
X163580109Y-43170213D01*
X163429786Y-43019890D01*
X163257817Y-42894949D01*
X163248504Y-42890204D01*
X163197707Y-42842230D01*
X163180912Y-42774409D01*
X163203449Y-42708274D01*
X163248507Y-42669232D01*
X163257558Y-42664620D01*
X163429459Y-42539727D01*
X163429464Y-42539723D01*
X163579723Y-42389464D01*
X163579727Y-42389459D01*
X163704620Y-42217557D01*
X163801095Y-42028217D01*
X163866757Y-41826129D01*
X163866757Y-41826126D01*
X163877231Y-41760000D01*
X162983012Y-41760000D01*
X163015925Y-41702993D01*
X163050000Y-41575826D01*
X163050000Y-41444174D01*
X163015925Y-41317007D01*
X162983012Y-41260000D01*
X163877231Y-41260000D01*
X163866757Y-41193873D01*
X163866757Y-41193870D01*
X163801095Y-40991782D01*
X163704620Y-40802442D01*
X163579727Y-40630540D01*
X163579723Y-40630535D01*
X163429464Y-40480276D01*
X163429459Y-40480272D01*
X163257555Y-40355377D01*
X163248500Y-40350763D01*
X163197706Y-40302788D01*
X163180912Y-40234966D01*
X163203451Y-40168832D01*
X163248508Y-40129793D01*
X163257816Y-40125051D01*
X163337007Y-40067515D01*
X163429786Y-40000109D01*
X163429788Y-40000106D01*
X163429792Y-40000104D01*
X163580104Y-39849792D01*
X163580106Y-39849788D01*
X163580109Y-39849786D01*
X163705048Y-39677820D01*
X163705047Y-39677820D01*
X163705051Y-39677816D01*
X163801557Y-39488412D01*
X163867246Y-39286243D01*
X163900500Y-39076287D01*
X163900500Y-38863713D01*
X163867246Y-38653757D01*
X163801557Y-38451588D01*
X163705051Y-38262184D01*
X163705049Y-38262181D01*
X163705048Y-38262179D01*
X163580109Y-38090213D01*
X163429786Y-37939890D01*
X163257820Y-37814951D01*
X163257115Y-37814591D01*
X163249054Y-37810485D01*
X163198259Y-37762512D01*
X163181463Y-37694692D01*
X163203999Y-37628556D01*
X163249054Y-37589515D01*
X163257816Y-37585051D01*
X163279789Y-37569086D01*
X163429786Y-37460109D01*
X163429788Y-37460106D01*
X163429792Y-37460104D01*
X163580104Y-37309792D01*
X163580106Y-37309788D01*
X163580109Y-37309786D01*
X163705048Y-37137820D01*
X163705047Y-37137820D01*
X163705051Y-37137816D01*
X163801557Y-36948412D01*
X163867246Y-36746243D01*
X163900500Y-36536287D01*
X163900500Y-36323713D01*
X163867246Y-36113757D01*
X163801557Y-35911588D01*
X163705051Y-35722184D01*
X163705049Y-35722181D01*
X163705048Y-35722179D01*
X163580109Y-35550213D01*
X163429786Y-35399890D01*
X163257820Y-35274951D01*
X163068414Y-35178444D01*
X163068413Y-35178443D01*
X163068412Y-35178443D01*
X162866243Y-35112754D01*
X162866241Y-35112753D01*
X162866240Y-35112753D01*
X162704957Y-35087208D01*
X162656287Y-35079500D01*
X162443713Y-35079500D01*
X162395042Y-35087208D01*
X162233760Y-35112753D01*
X162031585Y-35178444D01*
X161842179Y-35274951D01*
X161670213Y-35399890D01*
X161519890Y-35550213D01*
X161394951Y-35722179D01*
X161298444Y-35911585D01*
X161232753Y-36113760D01*
X161199500Y-36323713D01*
X92600500Y-36323713D01*
X92600500Y-34428920D01*
X133679499Y-34428920D01*
X133708340Y-34573907D01*
X133708343Y-34573917D01*
X133764912Y-34710488D01*
X133764919Y-34710501D01*
X133847048Y-34833415D01*
X133847051Y-34833419D01*
X133951580Y-34937948D01*
X133951584Y-34937951D01*
X134074498Y-35020080D01*
X134074511Y-35020087D01*
X134211082Y-35076656D01*
X134211087Y-35076658D01*
X134211091Y-35076658D01*
X134211092Y-35076659D01*
X134356079Y-35105500D01*
X134356082Y-35105500D01*
X134503920Y-35105500D01*
X134601462Y-35086096D01*
X134648913Y-35076658D01*
X134785495Y-35020084D01*
X134908416Y-34937951D01*
X135012951Y-34833416D01*
X135095084Y-34710495D01*
X135151658Y-34573913D01*
X135180500Y-34428920D01*
X138079499Y-34428920D01*
X138108340Y-34573907D01*
X138108343Y-34573917D01*
X138164912Y-34710488D01*
X138164919Y-34710501D01*
X138247048Y-34833415D01*
X138247051Y-34833419D01*
X138351580Y-34937948D01*
X138351584Y-34937951D01*
X138474498Y-35020080D01*
X138474511Y-35020087D01*
X138611082Y-35076656D01*
X138611087Y-35076658D01*
X138611091Y-35076658D01*
X138611092Y-35076659D01*
X138756079Y-35105500D01*
X138756082Y-35105500D01*
X138903920Y-35105500D01*
X139001462Y-35086096D01*
X139048913Y-35076658D01*
X139185495Y-35020084D01*
X139308416Y-34937951D01*
X139355214Y-34891153D01*
X153659500Y-34891153D01*
X153659500Y-35048846D01*
X153690261Y-35203489D01*
X153690264Y-35203501D01*
X153750602Y-35349172D01*
X153750609Y-35349185D01*
X153838210Y-35480288D01*
X153838213Y-35480292D01*
X153949707Y-35591786D01*
X153949711Y-35591789D01*
X154080814Y-35679390D01*
X154080827Y-35679397D01*
X154184126Y-35722184D01*
X154226503Y-35739737D01*
X154381153Y-35770499D01*
X154381156Y-35770500D01*
X154381158Y-35770500D01*
X154538844Y-35770500D01*
X154538845Y-35770499D01*
X154693497Y-35739737D01*
X154839179Y-35679394D01*
X154970289Y-35591789D01*
X155081789Y-35480289D01*
X155169394Y-35349179D01*
X155229737Y-35203497D01*
X155229738Y-35203489D01*
X155231505Y-35197668D01*
X155233859Y-35198382D01*
X155261194Y-35146055D01*
X155262684Y-35144536D01*
X155676735Y-34730487D01*
X155752356Y-34617311D01*
X155804445Y-34491557D01*
X155813134Y-34447870D01*
X155831000Y-34358060D01*
X155831000Y-34114322D01*
X155848277Y-34055482D01*
X155846525Y-34054546D01*
X155849390Y-34049184D01*
X155849394Y-34049179D01*
X155909737Y-33903497D01*
X155940500Y-33748842D01*
X155940500Y-33591158D01*
X155940500Y-33591155D01*
X155940499Y-33591153D01*
X155909738Y-33436510D01*
X155909737Y-33436503D01*
X155909735Y-33436498D01*
X155849397Y-33290827D01*
X155849390Y-33290814D01*
X155761789Y-33159711D01*
X155761786Y-33159707D01*
X155650292Y-33048213D01*
X155650288Y-33048210D01*
X155519185Y-32960609D01*
X155519172Y-32960602D01*
X155373501Y-32900264D01*
X155373489Y-32900261D01*
X155218845Y-32869500D01*
X155218842Y-32869500D01*
X155061158Y-32869500D01*
X155061155Y-32869500D01*
X154906510Y-32900261D01*
X154906498Y-32900264D01*
X154760827Y-32960602D01*
X154760814Y-32960609D01*
X154629711Y-33048210D01*
X154629707Y-33048213D01*
X154518213Y-33159707D01*
X154518210Y-33159711D01*
X154430609Y-33290814D01*
X154430602Y-33290827D01*
X154370264Y-33436498D01*
X154370261Y-33436510D01*
X154339500Y-33591153D01*
X154339500Y-33748846D01*
X154370260Y-33903488D01*
X154370263Y-33903498D01*
X154390989Y-33953534D01*
X154393125Y-33973409D01*
X154400112Y-33992140D01*
X154396784Y-34007436D01*
X154398458Y-34023003D01*
X154389509Y-34040880D01*
X154385260Y-34060413D01*
X154368574Y-34082701D01*
X154367183Y-34085482D01*
X154364109Y-34088667D01*
X154285571Y-34167205D01*
X154231759Y-34196588D01*
X154232337Y-34198493D01*
X154226500Y-34200263D01*
X154080827Y-34260602D01*
X154080814Y-34260609D01*
X153949711Y-34348210D01*
X153949707Y-34348213D01*
X153838213Y-34459707D01*
X153838210Y-34459711D01*
X153750609Y-34590814D01*
X153750602Y-34590827D01*
X153690264Y-34736498D01*
X153690261Y-34736510D01*
X153659500Y-34891153D01*
X139355214Y-34891153D01*
X139412951Y-34833416D01*
X139495084Y-34710495D01*
X139551658Y-34573913D01*
X139580500Y-34428918D01*
X139580500Y-34281082D01*
X139580500Y-34281079D01*
X139551659Y-34136092D01*
X139551658Y-34136091D01*
X139551658Y-34136087D01*
X139520313Y-34060413D01*
X139495087Y-33999511D01*
X139495080Y-33999498D01*
X139412951Y-33876584D01*
X139412948Y-33876580D01*
X139308419Y-33772051D01*
X139308415Y-33772048D01*
X139185501Y-33689919D01*
X139185488Y-33689912D01*
X139048917Y-33633343D01*
X139048907Y-33633340D01*
X138903920Y-33604500D01*
X138903918Y-33604500D01*
X138756082Y-33604500D01*
X138756080Y-33604500D01*
X138611092Y-33633340D01*
X138611082Y-33633343D01*
X138474511Y-33689912D01*
X138474498Y-33689919D01*
X138351584Y-33772048D01*
X138351580Y-33772051D01*
X138247051Y-33876580D01*
X138247048Y-33876584D01*
X138164919Y-33999498D01*
X138164912Y-33999511D01*
X138108343Y-34136082D01*
X138108340Y-34136092D01*
X138079500Y-34281079D01*
X138079500Y-34281082D01*
X138079500Y-34428918D01*
X138079500Y-34428920D01*
X138079499Y-34428920D01*
X135180500Y-34428920D01*
X135180500Y-34428918D01*
X135180500Y-34281082D01*
X135180500Y-34281079D01*
X135151659Y-34136092D01*
X135151658Y-34136091D01*
X135151658Y-34136087D01*
X135120313Y-34060413D01*
X135095087Y-33999511D01*
X135095080Y-33999498D01*
X135012951Y-33876584D01*
X135012948Y-33876580D01*
X134908419Y-33772051D01*
X134908415Y-33772048D01*
X134785501Y-33689919D01*
X134785488Y-33689912D01*
X134648917Y-33633343D01*
X134648907Y-33633340D01*
X134503920Y-33604500D01*
X134503918Y-33604500D01*
X134356082Y-33604500D01*
X134356080Y-33604500D01*
X134211092Y-33633340D01*
X134211082Y-33633343D01*
X134074511Y-33689912D01*
X134074498Y-33689919D01*
X133951584Y-33772048D01*
X133951580Y-33772051D01*
X133847051Y-33876580D01*
X133847048Y-33876584D01*
X133764919Y-33999498D01*
X133764912Y-33999511D01*
X133708343Y-34136082D01*
X133708340Y-34136092D01*
X133679500Y-34281079D01*
X133679500Y-34281082D01*
X133679500Y-34428918D01*
X133679500Y-34428920D01*
X133679499Y-34428920D01*
X92600500Y-34428920D01*
X92600500Y-32753751D01*
X92600726Y-32746264D01*
X92618271Y-32456206D01*
X92620076Y-32441341D01*
X92671780Y-32159203D01*
X92675364Y-32144665D01*
X92760696Y-31870822D01*
X92765998Y-31856842D01*
X92883727Y-31595256D01*
X92890678Y-31582011D01*
X93039079Y-31336527D01*
X93047566Y-31324231D01*
X93224480Y-31098417D01*
X93234395Y-31087226D01*
X93437226Y-30884396D01*
X93448417Y-30874481D01*
X93674230Y-30697567D01*
X93686526Y-30689080D01*
X93932016Y-30540676D01*
X93945249Y-30533731D01*
X94206841Y-30415998D01*
X94220821Y-30410696D01*
X94494668Y-30325362D01*
X94509198Y-30321780D01*
X94791344Y-30270075D01*
X94806201Y-30268271D01*
X95096248Y-30250727D01*
X95103735Y-30250501D01*
X95165893Y-30250501D01*
X179034108Y-30250501D01*
X179096249Y-30250501D01*
X179103736Y-30250727D01*
G37*
%TD.AperFunction*%
%TD*%
M02*
