%TF.GenerationSoftware,KiCad,Pcbnew,9.0.0*%
%TF.CreationDate,2025-05-07T00:17:43-06:00*%
%TF.ProjectId,2025_04_STM32F103_RobotBrain,32303235-5f30-4345-9f53-544d33324631,rev?*%
%TF.SameCoordinates,Original*%
%TF.FileFunction,Soldermask,Top*%
%TF.FilePolarity,Negative*%
%FSLAX46Y46*%
G04 Gerber Fmt 4.6, Leading zero omitted, Abs format (unit mm)*
G04 Created by KiCad (PCBNEW 9.0.0) date 2025-05-07 00:17:43*
%MOMM*%
%LPD*%
G01*
G04 APERTURE LIST*
G04 Aperture macros list*
%AMRoundRect*
0 Rectangle with rounded corners*
0 $1 Rounding radius*
0 $2 $3 $4 $5 $6 $7 $8 $9 X,Y pos of 4 corners*
0 Add a 4 corners polygon primitive as box body*
4,1,4,$2,$3,$4,$5,$6,$7,$8,$9,$2,$3,0*
0 Add four circle primitives for the rounded corners*
1,1,$1+$1,$2,$3*
1,1,$1+$1,$4,$5*
1,1,$1+$1,$6,$7*
1,1,$1+$1,$8,$9*
0 Add four rect primitives between the rounded corners*
20,1,$1+$1,$2,$3,$4,$5,0*
20,1,$1+$1,$4,$5,$6,$7,0*
20,1,$1+$1,$6,$7,$8,$9,0*
20,1,$1+$1,$8,$9,$2,$3,0*%
G04 Aperture macros list end*
%ADD10RoundRect,0.250000X-0.450000X0.350000X-0.450000X-0.350000X0.450000X-0.350000X0.450000X0.350000X0*%
%ADD11RoundRect,0.075000X0.075000X-0.700000X0.075000X0.700000X-0.075000X0.700000X-0.075000X-0.700000X0*%
%ADD12RoundRect,0.075000X0.700000X-0.075000X0.700000X0.075000X-0.700000X0.075000X-0.700000X-0.075000X0*%
%ADD13RoundRect,0.250000X0.350000X0.450000X-0.350000X0.450000X-0.350000X-0.450000X0.350000X-0.450000X0*%
%ADD14RoundRect,0.250000X0.450000X-0.350000X0.450000X0.350000X-0.450000X0.350000X-0.450000X-0.350000X0*%
%ADD15RoundRect,0.250000X0.337500X0.475000X-0.337500X0.475000X-0.337500X-0.475000X0.337500X-0.475000X0*%
%ADD16RoundRect,0.250000X0.600000X0.750000X-0.600000X0.750000X-0.600000X-0.750000X0.600000X-0.750000X0*%
%ADD17O,1.700000X2.000000*%
%ADD18R,1.700000X1.700000*%
%ADD19O,1.700000X1.700000*%
%ADD20RoundRect,0.250000X0.600000X0.725000X-0.600000X0.725000X-0.600000X-0.725000X0.600000X-0.725000X0*%
%ADD21O,1.700000X1.950000*%
%ADD22RoundRect,0.250000X0.325000X0.450000X-0.325000X0.450000X-0.325000X-0.450000X0.325000X-0.450000X0*%
%ADD23RoundRect,0.150000X-0.587500X-0.150000X0.587500X-0.150000X0.587500X0.150000X-0.587500X0.150000X0*%
%ADD24RoundRect,0.250000X-0.450000X0.325000X-0.450000X-0.325000X0.450000X-0.325000X0.450000X0.325000X0*%
%ADD25RoundRect,0.250000X-0.350000X-0.450000X0.350000X-0.450000X0.350000X0.450000X-0.350000X0.450000X0*%
%ADD26R,1.000000X1.000000*%
%ADD27RoundRect,0.250000X-0.475000X0.337500X-0.475000X-0.337500X0.475000X-0.337500X0.475000X0.337500X0*%
%ADD28RoundRect,0.102000X-0.700000X-0.300000X0.700000X-0.300000X0.700000X0.300000X-0.700000X0.300000X0*%
%ADD29RoundRect,0.102000X-0.700000X-0.200000X0.700000X-0.200000X0.700000X0.200000X-0.700000X0.200000X0*%
%ADD30RoundRect,0.102000X-0.200000X-0.700000X0.200000X-0.700000X0.200000X0.700000X-0.200000X0.700000X0*%
%ADD31RoundRect,0.250000X-0.337500X-0.475000X0.337500X-0.475000X0.337500X0.475000X-0.337500X0.475000X0*%
%ADD32RoundRect,0.150000X-0.150000X0.512500X-0.150000X-0.512500X0.150000X-0.512500X0.150000X0.512500X0*%
%ADD33R,1.400000X1.200000*%
%ADD34R,2.300000X1.500000*%
%ADD35RoundRect,0.250000X0.725000X-0.600000X0.725000X0.600000X-0.725000X0.600000X-0.725000X-0.600000X0*%
%ADD36O,1.950000X1.700000*%
%ADD37RoundRect,0.250000X-0.525000X-0.250000X0.525000X-0.250000X0.525000X0.250000X-0.525000X0.250000X0*%
%ADD38RoundRect,0.250000X-0.325000X-0.450000X0.325000X-0.450000X0.325000X0.450000X-0.325000X0.450000X0*%
%ADD39RoundRect,0.102000X-0.600000X-1.250000X0.600000X-1.250000X0.600000X1.250000X-0.600000X1.250000X0*%
%ADD40C,1.000000*%
%ADD41R,0.500000X2.000000*%
%ADD42R,2.000000X1.700000*%
G04 APERTURE END LIST*
D10*
%TO.C,R2*%
X135720000Y-40370000D03*
X135720000Y-42370000D03*
%TD*%
D11*
%TO.C,U1*%
X132500000Y-75040000D03*
X133000000Y-75040000D03*
X133500000Y-75040000D03*
X134000000Y-75040000D03*
X134500000Y-75040000D03*
X135000000Y-75040000D03*
X135500000Y-75040000D03*
X136000000Y-75040000D03*
X136500000Y-75040000D03*
X137000000Y-75040000D03*
X137500000Y-75040000D03*
X138000000Y-75040000D03*
X138500000Y-75040000D03*
X139000000Y-75040000D03*
X139500000Y-75040000D03*
X140000000Y-75040000D03*
D12*
X141925000Y-73115000D03*
X141925000Y-72615000D03*
X141925000Y-72115000D03*
X141925000Y-71615000D03*
X141925000Y-71115000D03*
X141925000Y-70615000D03*
X141925000Y-70115000D03*
X141925000Y-69615000D03*
X141925000Y-69115000D03*
X141925000Y-68615000D03*
X141925000Y-68115000D03*
X141925000Y-67615000D03*
X141925000Y-67115000D03*
X141925000Y-66615000D03*
X141925000Y-66115000D03*
X141925000Y-65615000D03*
D11*
X140000000Y-63690000D03*
X139500000Y-63690000D03*
X139000000Y-63690000D03*
X138500000Y-63690000D03*
X138000000Y-63690000D03*
X137500000Y-63690000D03*
X137000000Y-63690000D03*
X136500000Y-63690000D03*
X136000000Y-63690000D03*
X135500000Y-63690000D03*
X135000000Y-63690000D03*
X134500000Y-63690000D03*
X134000000Y-63690000D03*
X133500000Y-63690000D03*
X133000000Y-63690000D03*
X132500000Y-63690000D03*
D12*
X130575000Y-65615000D03*
X130575000Y-66115000D03*
X130575000Y-66615000D03*
X130575000Y-67115000D03*
X130575000Y-67615000D03*
X130575000Y-68115000D03*
X130575000Y-68615000D03*
X130575000Y-69115000D03*
X130575000Y-69615000D03*
X130575000Y-70115000D03*
X130575000Y-70615000D03*
X130575000Y-71115000D03*
X130575000Y-71615000D03*
X130575000Y-72115000D03*
X130575000Y-72615000D03*
X130575000Y-73115000D03*
%TD*%
D13*
%TO.C,R9*%
X124050000Y-83090000D03*
X122050000Y-83090000D03*
%TD*%
D14*
%TO.C,R3*%
X137780000Y-42360000D03*
X137780000Y-40360000D03*
%TD*%
D15*
%TO.C,C12*%
X109167500Y-90677500D03*
X107092500Y-90677500D03*
%TD*%
D16*
%TO.C,J6*%
X136260000Y-100490000D03*
D17*
X133760000Y-100490000D03*
%TD*%
D18*
%TO.C,J9*%
X162550000Y-51670000D03*
D19*
X162550000Y-49130000D03*
X162550000Y-46590000D03*
X162550000Y-44050000D03*
X162550000Y-41510000D03*
X162550000Y-38970000D03*
X162550000Y-36430000D03*
%TD*%
D20*
%TO.C,J8*%
X163690000Y-82690000D03*
D21*
X161190000Y-82690000D03*
X158690000Y-82690000D03*
X156190000Y-82690000D03*
X153690000Y-82690000D03*
%TD*%
D18*
%TO.C,J2*%
X160865000Y-56555000D03*
D19*
X160865000Y-59095000D03*
X160865000Y-61635000D03*
X160865000Y-64175000D03*
X160865000Y-66715000D03*
X160865000Y-69255000D03*
X160865000Y-71795000D03*
X160865000Y-74335000D03*
%TD*%
D22*
%TO.C,D4*%
X145810000Y-36261750D03*
X143760000Y-36261750D03*
%TD*%
D23*
%TO.C,Q1*%
X124000000Y-79020000D03*
X122125000Y-79970000D03*
X122125000Y-78070000D03*
%TD*%
D24*
%TO.C,D3*%
X127790000Y-80310000D03*
X127790000Y-82360000D03*
%TD*%
D25*
%TO.C,R5*%
X143150000Y-77580000D03*
X145150000Y-77580000D03*
%TD*%
D26*
%TO.C,LED1*%
X114085000Y-84105000D03*
X114085000Y-87305000D03*
X118485000Y-87305000D03*
X118485000Y-84105000D03*
%TD*%
D22*
%TO.C,F1*%
X142150000Y-39600000D03*
X140100000Y-39600000D03*
%TD*%
D27*
%TO.C,C9*%
X132400000Y-81965000D03*
X132400000Y-84040000D03*
%TD*%
D13*
%TO.C,R10*%
X123920000Y-75670000D03*
X121920000Y-75670000D03*
%TD*%
D18*
%TO.C,J4*%
X108520000Y-53530000D03*
D19*
X111060000Y-53530000D03*
X113600000Y-53530000D03*
X116140000Y-53530000D03*
%TD*%
D13*
%TO.C,R8*%
X152790000Y-65490000D03*
X150790000Y-65490000D03*
%TD*%
D20*
%TO.C,J11*%
X102730000Y-53530000D03*
D21*
X100230000Y-53530000D03*
X97730000Y-53530000D03*
X95230000Y-53530000D03*
%TD*%
D28*
%TO.C,MDBT42T-AT1*%
X149080000Y-30741750D03*
D29*
X149080000Y-31541750D03*
X149080000Y-32241750D03*
X149080000Y-32941750D03*
X149080000Y-33641750D03*
X149080000Y-34341750D03*
X149080000Y-35041750D03*
X149080000Y-35741750D03*
X149080000Y-36441750D03*
D30*
X150180000Y-37941750D03*
X150880000Y-37941750D03*
X151580000Y-37941750D03*
X152280000Y-37941750D03*
X152980000Y-37941750D03*
X153680000Y-37941750D03*
X154380000Y-37941750D03*
D29*
X155480000Y-36441750D03*
X155480000Y-35741750D03*
D28*
X155480000Y-30741750D03*
%TD*%
D31*
%TO.C,C2*%
X143125000Y-75240000D03*
X145200000Y-75240000D03*
%TD*%
D10*
%TO.C,R6*%
X129990000Y-80315000D03*
X129990000Y-82315000D03*
%TD*%
D13*
%TO.C,R7*%
X145820000Y-32831750D03*
X143820000Y-32831750D03*
%TD*%
D27*
%TO.C,C4*%
X129470000Y-74805000D03*
X129470000Y-76880000D03*
%TD*%
D32*
%TO.C,U2*%
X137670000Y-45930000D03*
X136720000Y-45930000D03*
X135770000Y-45930000D03*
X135770000Y-48205000D03*
X136720000Y-48205000D03*
X137670000Y-48205000D03*
%TD*%
D15*
%TO.C,C5*%
X130475000Y-62440000D03*
X128400000Y-62440000D03*
%TD*%
D18*
%TO.C,J3*%
X178850000Y-73600000D03*
D19*
X178850000Y-71060000D03*
X178850000Y-68520000D03*
X178850000Y-65980000D03*
%TD*%
D20*
%TO.C,J7*%
X154930000Y-45150000D03*
D21*
X152430000Y-45150000D03*
X149930000Y-45150000D03*
X147430000Y-45150000D03*
%TD*%
D33*
%TO.C,Y2*%
X133200000Y-79640000D03*
X135400000Y-79640000D03*
X135400000Y-77940000D03*
X133200000Y-77940000D03*
%TD*%
D34*
%TO.C,SW1*%
X131190000Y-87770000D03*
X137890000Y-87770000D03*
%TD*%
D27*
%TO.C,C6*%
X139030000Y-81945000D03*
X139030000Y-84020000D03*
%TD*%
D16*
%TO.C,J5*%
X127460000Y-100490000D03*
D17*
X124960000Y-100490000D03*
%TD*%
D24*
%TO.C,D2*%
X147520000Y-75410000D03*
X147520000Y-77460000D03*
%TD*%
D31*
%TO.C,C1*%
X142925000Y-63440000D03*
X145000000Y-63440000D03*
%TD*%
D26*
%TO.C,LED2*%
X106350000Y-84110000D03*
X106350000Y-87310000D03*
X110750000Y-87310000D03*
X110750000Y-84110000D03*
%TD*%
D27*
%TO.C,C8*%
X136300000Y-81965000D03*
X136300000Y-84040000D03*
%TD*%
D13*
%TO.C,R1*%
X124030000Y-71730000D03*
X122030000Y-71730000D03*
%TD*%
D35*
%TO.C,J10*%
X95345000Y-73210000D03*
D36*
X95345000Y-70710000D03*
X95345000Y-68210000D03*
X95345000Y-65710000D03*
X95345000Y-63210000D03*
X95345000Y-60710000D03*
%TD*%
D27*
%TO.C,C3*%
X138000000Y-77802500D03*
X138000000Y-79877500D03*
%TD*%
D37*
%TO.C,SW2*%
X150917500Y-67967500D03*
X156167500Y-67967500D03*
X150917500Y-71167500D03*
X156167500Y-71167500D03*
%TD*%
D38*
%TO.C,D1*%
X140105000Y-44270000D03*
X142155000Y-44270000D03*
%TD*%
D39*
%TO.C,S1*%
X113480000Y-79100000D03*
X115980000Y-79100000D03*
X118480000Y-79100000D03*
X113480000Y-73600000D03*
X115980000Y-73600000D03*
X118480000Y-73600000D03*
%TD*%
D15*
%TO.C,C11*%
X119180000Y-90720000D03*
X117105000Y-90720000D03*
%TD*%
D40*
%TO.C,J1*%
X138830000Y-34355000D03*
X134430000Y-34355000D03*
D41*
X138230000Y-37055000D03*
X137430000Y-37055000D03*
X136630000Y-37055000D03*
X135830000Y-37055000D03*
X135030000Y-37055000D03*
D42*
X141080000Y-36955000D03*
X141080000Y-31505000D03*
X132180000Y-36955000D03*
X132180000Y-31505000D03*
%TD*%
D27*
%TO.C,C7*%
X141020000Y-86755000D03*
X141020000Y-88830000D03*
%TD*%
D25*
%TO.C,R4*%
X140125000Y-41930000D03*
X142125000Y-41930000D03*
%TD*%
M02*
