M48
; DRILL file {KiCad 9.0.0} date 2025-05-07T00:17:47-0600
; FORMAT={-:-/ absolute / metric / decimal}
; #@! TF.CreationDate,2025-05-07T00:17:47-06:00
; #@! TF.GenerationSoftware,Kicad,Pcbnew,9.0.0
; #@! TF.FileFunction,Plated,1,2,PTH
FMAT,2
METRIC
; #@! TA.AperFunction,Plated,PTH,ViaDrill
T1C0.300
; #@! TA.AperFunction,Plated,PTH,ComponentDrill
T2C0.950
; #@! TA.AperFunction,Plated,PTH,ComponentDrill
T3C1.000
%
G90
G05
T1
X107.99Y-90.667
X110.77Y-88.13
X117.65Y-87.3
X118.03Y-90.76
X118.53Y-77.52
X126.0Y-70.75
X126.41Y-73.04
X126.93Y-73.74
X127.29Y-70.83
X127.62Y-73.04
X127.8Y-81.195
X128.38Y-70.89
X129.3Y-62.46
X129.47Y-75.97
X131.72Y-72.61
X132.0Y-88.83
X132.42Y-83.14
X133.0Y-64.8
X133.17Y-77.03
X135.03Y-35.75
X135.51Y-80.55
X136.3Y-83.14
X136.73Y-46.9
X138.01Y-73.91
X138.04Y-78.98
X139.05Y-83.12
X140.78Y-66.15
X140.99Y-44.26
X141.06Y-87.94
X143.06Y-72.65
X144.1Y-63.45
X144.3Y-75.28
X144.93Y-36.3
X147.02Y-63.14
X147.52Y-76.292
X147.54Y-62.37
X148.07Y-30.9
X148.97Y-65.39
X149.28Y-64.64
X149.43Y-93.07
X149.43Y-95.22
X149.67Y-37.87
X150.09Y-36.45
X150.21Y-95.47
X150.23Y-92.85
X151.58Y-36.94
X152.02Y-71.18
X152.42Y-75.91
X153.25Y-78.51
X153.27Y-34.99
X153.31Y-76.1
X154.19Y-33.6
X154.26Y-78.43
X154.333Y-75.977
X154.46Y-34.97
X154.47Y-30.78
X154.54Y-39.17
X155.06Y-71.18
X155.12Y-78.56
X155.14Y-33.67
X155.64Y-75.81
X156.08Y-78.46
X156.72Y-75.59
X156.89Y-78.57
X159.03Y-102.92
X159.61Y-100.76
X159.71Y-103.54
X160.55Y-100.53
X172.94Y-59.4
X173.47Y-73.27
X173.58Y-58.67
X174.43Y-73.11
X174.43Y-76.69
X175.33Y-58.66
X175.38Y-76.51
X175.93Y-57.75
T2
X95.23Y-53.53
X95.345Y-60.71
X95.345Y-63.21
X95.345Y-65.71
X95.345Y-68.21
X95.345Y-70.71
X95.345Y-73.21
X97.73Y-53.53
X100.23Y-53.53
X102.73Y-53.53
X147.43Y-45.15
X149.93Y-45.15
X152.43Y-45.15
X153.69Y-82.69
X154.93Y-45.15
X156.19Y-82.69
X158.69Y-82.69
X161.19Y-82.69
X163.69Y-82.69
T3
X108.52Y-53.53
X111.06Y-53.53
X113.6Y-53.53
X116.14Y-53.53
X124.96Y-100.49
X127.46Y-100.49
X133.76Y-100.49
X136.26Y-100.49
X160.865Y-56.555
X160.865Y-59.095
X160.865Y-61.635
X160.865Y-64.175
X160.865Y-66.715
X160.865Y-69.255
X160.865Y-71.795
X160.865Y-74.335
X162.55Y-36.43
X162.55Y-38.97
X162.55Y-41.51
X162.55Y-44.05
X162.55Y-46.59
X162.55Y-49.13
X162.55Y-51.67
X178.85Y-65.98
X178.85Y-68.52
X178.85Y-71.06
X178.85Y-73.6
M30
