%TF.GenerationSoftware,KiCad,Pcbnew,9.0.0*%
%TF.CreationDate,2025-05-07T00:17:43-06:00*%
%TF.ProjectId,2025_04_STM32F103_RobotBrain,32303235-5f30-4345-9f53-544d33324631,rev?*%
%TF.SameCoordinates,Original*%
%TF.FileFunction,Copper,L1,Top*%
%TF.FilePolarity,Positive*%
%FSLAX46Y46*%
G04 Gerber Fmt 4.6, Leading zero omitted, Abs format (unit mm)*
G04 Created by KiCad (PCBNEW 9.0.0) date 2025-05-07 00:17:43*
%MOMM*%
%LPD*%
G01*
G04 APERTURE LIST*
G04 Aperture macros list*
%AMRoundRect*
0 Rectangle with rounded corners*
0 $1 Rounding radius*
0 $2 $3 $4 $5 $6 $7 $8 $9 X,Y pos of 4 corners*
0 Add a 4 corners polygon primitive as box body*
4,1,4,$2,$3,$4,$5,$6,$7,$8,$9,$2,$3,0*
0 Add four circle primitives for the rounded corners*
1,1,$1+$1,$2,$3*
1,1,$1+$1,$4,$5*
1,1,$1+$1,$6,$7*
1,1,$1+$1,$8,$9*
0 Add four rect primitives between the rounded corners*
20,1,$1+$1,$2,$3,$4,$5,0*
20,1,$1+$1,$4,$5,$6,$7,0*
20,1,$1+$1,$6,$7,$8,$9,0*
20,1,$1+$1,$8,$9,$2,$3,0*%
G04 Aperture macros list end*
%TA.AperFunction,SMDPad,CuDef*%
%ADD10RoundRect,0.250000X-0.450000X0.350000X-0.450000X-0.350000X0.450000X-0.350000X0.450000X0.350000X0*%
%TD*%
%TA.AperFunction,SMDPad,CuDef*%
%ADD11RoundRect,0.075000X0.075000X-0.700000X0.075000X0.700000X-0.075000X0.700000X-0.075000X-0.700000X0*%
%TD*%
%TA.AperFunction,SMDPad,CuDef*%
%ADD12RoundRect,0.075000X0.700000X-0.075000X0.700000X0.075000X-0.700000X0.075000X-0.700000X-0.075000X0*%
%TD*%
%TA.AperFunction,SMDPad,CuDef*%
%ADD13RoundRect,0.250000X0.350000X0.450000X-0.350000X0.450000X-0.350000X-0.450000X0.350000X-0.450000X0*%
%TD*%
%TA.AperFunction,SMDPad,CuDef*%
%ADD14RoundRect,0.250000X0.450000X-0.350000X0.450000X0.350000X-0.450000X0.350000X-0.450000X-0.350000X0*%
%TD*%
%TA.AperFunction,SMDPad,CuDef*%
%ADD15RoundRect,0.250000X0.337500X0.475000X-0.337500X0.475000X-0.337500X-0.475000X0.337500X-0.475000X0*%
%TD*%
%TA.AperFunction,ComponentPad*%
%ADD16RoundRect,0.250000X0.600000X0.750000X-0.600000X0.750000X-0.600000X-0.750000X0.600000X-0.750000X0*%
%TD*%
%TA.AperFunction,ComponentPad*%
%ADD17O,1.700000X2.000000*%
%TD*%
%TA.AperFunction,ComponentPad*%
%ADD18R,1.700000X1.700000*%
%TD*%
%TA.AperFunction,ComponentPad*%
%ADD19O,1.700000X1.700000*%
%TD*%
%TA.AperFunction,ComponentPad*%
%ADD20RoundRect,0.250000X0.600000X0.725000X-0.600000X0.725000X-0.600000X-0.725000X0.600000X-0.725000X0*%
%TD*%
%TA.AperFunction,ComponentPad*%
%ADD21O,1.700000X1.950000*%
%TD*%
%TA.AperFunction,SMDPad,CuDef*%
%ADD22RoundRect,0.250000X0.325000X0.450000X-0.325000X0.450000X-0.325000X-0.450000X0.325000X-0.450000X0*%
%TD*%
%TA.AperFunction,SMDPad,CuDef*%
%ADD23RoundRect,0.150000X-0.587500X-0.150000X0.587500X-0.150000X0.587500X0.150000X-0.587500X0.150000X0*%
%TD*%
%TA.AperFunction,SMDPad,CuDef*%
%ADD24RoundRect,0.250000X-0.450000X0.325000X-0.450000X-0.325000X0.450000X-0.325000X0.450000X0.325000X0*%
%TD*%
%TA.AperFunction,SMDPad,CuDef*%
%ADD25RoundRect,0.250000X-0.350000X-0.450000X0.350000X-0.450000X0.350000X0.450000X-0.350000X0.450000X0*%
%TD*%
%TA.AperFunction,SMDPad,CuDef*%
%ADD26R,1.000000X1.000000*%
%TD*%
%TA.AperFunction,SMDPad,CuDef*%
%ADD27RoundRect,0.250000X-0.475000X0.337500X-0.475000X-0.337500X0.475000X-0.337500X0.475000X0.337500X0*%
%TD*%
%TA.AperFunction,SMDPad,CuDef*%
%ADD28R,1.400000X0.600000*%
%TD*%
%TA.AperFunction,SMDPad,CuDef*%
%ADD29R,1.400000X0.400000*%
%TD*%
%TA.AperFunction,SMDPad,CuDef*%
%ADD30R,0.400000X1.400000*%
%TD*%
%TA.AperFunction,SMDPad,CuDef*%
%ADD31RoundRect,0.250000X-0.337500X-0.475000X0.337500X-0.475000X0.337500X0.475000X-0.337500X0.475000X0*%
%TD*%
%TA.AperFunction,SMDPad,CuDef*%
%ADD32RoundRect,0.150000X-0.150000X0.512500X-0.150000X-0.512500X0.150000X-0.512500X0.150000X0.512500X0*%
%TD*%
%TA.AperFunction,SMDPad,CuDef*%
%ADD33R,1.400000X1.200000*%
%TD*%
%TA.AperFunction,SMDPad,CuDef*%
%ADD34R,2.300000X1.500000*%
%TD*%
%TA.AperFunction,ComponentPad*%
%ADD35RoundRect,0.250000X0.725000X-0.600000X0.725000X0.600000X-0.725000X0.600000X-0.725000X-0.600000X0*%
%TD*%
%TA.AperFunction,ComponentPad*%
%ADD36O,1.950000X1.700000*%
%TD*%
%TA.AperFunction,SMDPad,CuDef*%
%ADD37RoundRect,0.250000X-0.525000X-0.250000X0.525000X-0.250000X0.525000X0.250000X-0.525000X0.250000X0*%
%TD*%
%TA.AperFunction,SMDPad,CuDef*%
%ADD38RoundRect,0.250000X-0.325000X-0.450000X0.325000X-0.450000X0.325000X0.450000X-0.325000X0.450000X0*%
%TD*%
%TA.AperFunction,SMDPad,CuDef*%
%ADD39R,1.200000X2.500000*%
%TD*%
%TA.AperFunction,SMDPad,CuDef*%
%ADD40R,0.500000X2.000000*%
%TD*%
%TA.AperFunction,SMDPad,CuDef*%
%ADD41R,2.000000X1.700000*%
%TD*%
%TA.AperFunction,ViaPad*%
%ADD42C,0.600000*%
%TD*%
%TA.AperFunction,Conductor*%
%ADD43C,0.254000*%
%TD*%
%TA.AperFunction,Conductor*%
%ADD44C,0.381000*%
%TD*%
%TA.AperFunction,Conductor*%
%ADD45C,0.200000*%
%TD*%
G04 APERTURE END LIST*
D10*
%TO.P,R2,1*%
%TO.N,/D+*%
X135720000Y-40370000D03*
%TO.P,R2,2*%
%TO.N,/USB_CONN_D+*%
X135720000Y-42370000D03*
%TD*%
D11*
%TO.P,U1,1,VBAT*%
%TO.N,unconnected-(U1-VBAT-Pad1)*%
X132500000Y-75040000D03*
%TO.P,U1,2,PC13*%
%TO.N,/USER_LED*%
X133000000Y-75040000D03*
%TO.P,U1,3,PC14*%
%TO.N,unconnected-(U1-PC14-Pad3)*%
X133500000Y-75040000D03*
%TO.P,U1,4,PC15*%
%TO.N,unconnected-(U1-PC15-Pad4)*%
X134000000Y-75040000D03*
%TO.P,U1,5,RCC_OSC_IN*%
%TO.N,/OSC_IN*%
X134500000Y-75040000D03*
%TO.P,U1,6,RCC_OSC_OUT*%
%TO.N,/OSC_OUT*%
X135000000Y-75040000D03*
%TO.P,U1,7,NRST*%
%TO.N,/RESET*%
X135500000Y-75040000D03*
%TO.P,U1,8,PC0*%
%TO.N,unconnected-(U1-PC0-Pad8)*%
X136000000Y-75040000D03*
%TO.P,U1,9,PC1*%
%TO.N,unconnected-(U1-PC1-Pad9)*%
X136500000Y-75040000D03*
%TO.P,U1,10,PC2*%
%TO.N,unconnected-(U1-PC2-Pad10)*%
X137000000Y-75040000D03*
%TO.P,U1,11,PC3*%
%TO.N,unconnected-(U1-PC3-Pad11)*%
X137500000Y-75040000D03*
%TO.P,U1,12,VSSA*%
%TO.N,GND*%
X138000000Y-75040000D03*
%TO.P,U1,13,VDDA*%
%TO.N,+3V3*%
X138500000Y-75040000D03*
%TO.P,U1,14,PA0*%
%TO.N,/ULTRA_TRIG*%
X139000000Y-75040000D03*
%TO.P,U1,15,PA1*%
%TO.N,Net-(U1-PA1)*%
X139500000Y-75040000D03*
%TO.P,U1,16,PA2*%
X140000000Y-75040000D03*
D12*
%TO.P,U1,17,PA3*%
%TO.N,/ULTRA_ECHO*%
X141925000Y-73115000D03*
%TO.P,U1,18,VSS*%
%TO.N,GND*%
X141925000Y-72615000D03*
%TO.P,U1,19,VDD*%
%TO.N,+3V3*%
X141925000Y-72115000D03*
%TO.P,U1,20,PA4*%
%TO.N,/PWR_ADC*%
X141925000Y-71615000D03*
%TO.P,U1,21,PA5*%
%TO.N,unconnected-(U1-PA5-Pad21)*%
X141925000Y-71115000D03*
%TO.P,U1,22,PA6*%
%TO.N,/E1B*%
X141925000Y-70615000D03*
%TO.P,U1,23,PA7*%
%TO.N,/E1A*%
X141925000Y-70115000D03*
%TO.P,U1,24,PC4*%
%TO.N,unconnected-(U1-PC4-Pad24)*%
X141925000Y-69615000D03*
%TO.P,U1,25,PC5*%
%TO.N,unconnected-(U1-PC5-Pad25)*%
X141925000Y-69115000D03*
%TO.P,U1,26,PB0*%
%TO.N,/uBUTTON*%
X141925000Y-68615000D03*
%TO.P,U1,27,PB1*%
%TO.N,unconnected-(U1-PB1-Pad27)*%
X141925000Y-68115000D03*
%TO.P,U1,28,PB2*%
%TO.N,/IMU_INT*%
X141925000Y-67615000D03*
%TO.P,U1,29,PB10*%
%TO.N,/IMU_I2C_SCL*%
X141925000Y-67115000D03*
%TO.P,U1,30,PB11*%
%TO.N,/IMU_I2C_SDA*%
X141925000Y-66615000D03*
%TO.P,U1,31,VSS*%
%TO.N,GND*%
X141925000Y-66115000D03*
%TO.P,U1,32,VDD*%
%TO.N,+3V3*%
X141925000Y-65615000D03*
D11*
%TO.P,U1,33,PB12*%
%TO.N,/PS2_CS*%
X140000000Y-63690000D03*
%TO.P,U1,34,PB13*%
%TO.N,/PS2_SCK*%
X139500000Y-63690000D03*
%TO.P,U1,35,PB14*%
%TO.N,/PS2_MISO*%
X139000000Y-63690000D03*
%TO.P,U1,36,PB15*%
%TO.N,/PS2_MOSI*%
X138500000Y-63690000D03*
%TO.P,U1,37,PC6*%
%TO.N,/AN1*%
X138000000Y-63690000D03*
%TO.P,U1,38,PC7*%
%TO.N,/AN2*%
X137500000Y-63690000D03*
%TO.P,U1,39,PC8*%
%TO.N,/BN1*%
X137000000Y-63690000D03*
%TO.P,U1,40,PC9*%
%TO.N,/BN2*%
X136500000Y-63690000D03*
%TO.P,U1,41,PA8*%
%TO.N,/BL_WAKEUP*%
X136000000Y-63690000D03*
%TO.P,U1,42,PA9*%
%TO.N,/BL_RX*%
X135500000Y-63690000D03*
%TO.P,U1,43,PA10*%
%TO.N,/BL_TX*%
X135000000Y-63690000D03*
%TO.P,U1,44,USB_DM*%
%TO.N,/USB_D-*%
X134500000Y-63690000D03*
%TO.P,U1,45,USB_DP*%
%TO.N,/USB_D+*%
X134000000Y-63690000D03*
%TO.P,U1,46,SYS_JTMS-SWDIO*%
%TO.N,/SWDIO*%
X133500000Y-63690000D03*
%TO.P,U1,47,VSS*%
%TO.N,GND*%
X133000000Y-63690000D03*
%TO.P,U1,48,VDD*%
%TO.N,+3V3*%
X132500000Y-63690000D03*
D12*
%TO.P,U1,49,SYS_JTCK-SWCLK*%
%TO.N,/SWCLK*%
X130575000Y-65615000D03*
%TO.P,U1,50,PA15*%
%TO.N,unconnected-(U1-PA15-Pad50)*%
X130575000Y-66115000D03*
%TO.P,U1,51,PC10*%
%TO.N,/USER_TX*%
X130575000Y-66615000D03*
%TO.P,U1,52,PC11*%
%TO.N,/USER_RX*%
X130575000Y-67115000D03*
%TO.P,U1,53,PC12*%
%TO.N,/X4*%
X130575000Y-67615000D03*
%TO.P,U1,54,PD2*%
%TO.N,/X3*%
X130575000Y-68115000D03*
%TO.P,U1,55,PB3*%
%TO.N,/X2*%
X130575000Y-68615000D03*
%TO.P,U1,56,PB4*%
%TO.N,/X1*%
X130575000Y-69115000D03*
%TO.P,U1,57,PB5*%
%TO.N,unconnected-(U1-PB5-Pad57)*%
X130575000Y-69615000D03*
%TO.P,U1,58,PB6*%
%TO.N,/E2B*%
X130575000Y-70115000D03*
%TO.P,U1,59,PB7*%
%TO.N,/E2A*%
X130575000Y-70615000D03*
%TO.P,U1,60,BOOT0*%
%TO.N,/BOOT*%
X130575000Y-71115000D03*
%TO.P,U1,61,PB8*%
%TO.N,unconnected-(U1-PB8-Pad61)*%
X130575000Y-71615000D03*
%TO.P,U1,62,PB9*%
%TO.N,/RGB_DIN*%
X130575000Y-72115000D03*
%TO.P,U1,63,VSS*%
%TO.N,GND*%
X130575000Y-72615000D03*
%TO.P,U1,64,VDD*%
%TO.N,+3V3*%
X130575000Y-73115000D03*
%TD*%
D13*
%TO.P,R9,1*%
%TO.N,+5V*%
X124050000Y-83090000D03*
%TO.P,R9,2*%
%TO.N,Net-(LED1-DIN)*%
X122050000Y-83090000D03*
%TD*%
D14*
%TO.P,R3,1*%
%TO.N,/USB_CONN_D-*%
X137780000Y-42360000D03*
%TO.P,R3,2*%
%TO.N,/D-*%
X137780000Y-40360000D03*
%TD*%
D15*
%TO.P,C12,1*%
%TO.N,+5V*%
X109167500Y-90677500D03*
%TO.P,C12,2*%
%TO.N,GND*%
X107092500Y-90677500D03*
%TD*%
D16*
%TO.P,J6,1,Pin_1*%
%TO.N,+3V3*%
X136260000Y-100490000D03*
D17*
%TO.P,J6,2,Pin_2*%
%TO.N,GND*%
X133760000Y-100490000D03*
%TD*%
D18*
%TO.P,J9,1,Pin_1*%
%TO.N,+3V3*%
X162550000Y-51670000D03*
D19*
%TO.P,J9,2,Pin_2*%
%TO.N,/PS2_SCK*%
X162550000Y-49130000D03*
%TO.P,J9,3,Pin_3*%
%TO.N,unconnected-(J9-Pin_3-Pad3)*%
X162550000Y-46590000D03*
%TO.P,J9,4,Pin_4*%
%TO.N,/PS2_CS*%
X162550000Y-44050000D03*
%TO.P,J9,5,Pin_5*%
%TO.N,GND*%
X162550000Y-41510000D03*
%TO.P,J9,6,Pin_6*%
%TO.N,/PS2_MISO*%
X162550000Y-38970000D03*
%TO.P,J9,7,Pin_7*%
%TO.N,/PS2_MOSI*%
X162550000Y-36430000D03*
%TD*%
D20*
%TO.P,J8,1,Pin_1*%
%TO.N,/E2A*%
X163690000Y-82690000D03*
D21*
%TO.P,J8,2,Pin_2*%
%TO.N,/E2B*%
X161190000Y-82690000D03*
%TO.P,J8,3,Pin_3*%
%TO.N,/E1A*%
X158690000Y-82690000D03*
%TO.P,J8,4,Pin_4*%
%TO.N,/E1B*%
X156190000Y-82690000D03*
%TO.P,J8,5,Pin_5*%
%TO.N,/PWR_ADC*%
X153690000Y-82690000D03*
%TD*%
D18*
%TO.P,J2,1,Pin_1*%
%TO.N,+5V*%
X160865000Y-56555000D03*
D19*
%TO.P,J2,2,Pin_2*%
%TO.N,GND*%
X160865000Y-59095000D03*
%TO.P,J2,3,Pin_3*%
%TO.N,/IMU_I2C_SCL*%
X160865000Y-61635000D03*
%TO.P,J2,4,Pin_4*%
%TO.N,/IMU_I2C_SDA*%
X160865000Y-64175000D03*
%TO.P,J2,5,Pin_5*%
%TO.N,unconnected-(J2-Pin_5-Pad5)*%
X160865000Y-66715000D03*
%TO.P,J2,6,Pin_6*%
%TO.N,unconnected-(J2-Pin_6-Pad6)*%
X160865000Y-69255000D03*
%TO.P,J2,7,Pin_7*%
%TO.N,unconnected-(J2-Pin_7-Pad7)*%
X160865000Y-71795000D03*
%TO.P,J2,8,Pin_8*%
%TO.N,/IMU_INT*%
X160865000Y-74335000D03*
%TD*%
D22*
%TO.P,D4,1,K*%
%TO.N,GND*%
X145810000Y-36261750D03*
%TO.P,D4,2,A*%
%TO.N,Net-(D4-A)*%
X143760000Y-36261750D03*
%TD*%
D23*
%TO.P,Q1,3,D*%
%TO.N,/RGB_DIN*%
X124000000Y-79020000D03*
%TO.P,Q1,2,S*%
%TO.N,Net-(LED1-DIN)*%
X122125000Y-79970000D03*
%TO.P,Q1,1,G*%
%TO.N,+3V3*%
X122125000Y-78070000D03*
%TD*%
D24*
%TO.P,D3,1,K*%
%TO.N,GND*%
X127790000Y-80310000D03*
%TO.P,D3,2,A*%
%TO.N,Net-(D3-A)*%
X127790000Y-82360000D03*
%TD*%
D25*
%TO.P,R5,1*%
%TO.N,+3V3*%
X143150000Y-77580000D03*
%TO.P,R5,2*%
%TO.N,Net-(D2-A)*%
X145150000Y-77580000D03*
%TD*%
D26*
%TO.P,LED1,1,VDD*%
%TO.N,+5V*%
X114085000Y-84105000D03*
%TO.P,LED1,2,DOUT*%
%TO.N,Net-(LED1-DOUT)*%
X114085000Y-87305000D03*
%TO.P,LED1,3,VSS*%
%TO.N,GND*%
X118485000Y-87305000D03*
%TO.P,LED1,4,DIN*%
%TO.N,Net-(LED1-DIN)*%
X118485000Y-84105000D03*
%TD*%
D22*
%TO.P,F1,1*%
%TO.N,Net-(J1-VBUS)*%
X142150000Y-39600000D03*
%TO.P,F1,2*%
%TO.N,Vusb*%
X140100000Y-39600000D03*
%TD*%
D27*
%TO.P,C9,1*%
%TO.N,/OSC_IN*%
X132400000Y-81965000D03*
%TO.P,C9,2*%
%TO.N,GND*%
X132400000Y-84040000D03*
%TD*%
D13*
%TO.P,R10,1*%
%TO.N,/RGB_DIN*%
X123920000Y-75670000D03*
%TO.P,R10,2*%
%TO.N,+3V3*%
X121920000Y-75670000D03*
%TD*%
D18*
%TO.P,J4,1,Pin_1*%
%TO.N,+3V3*%
X108520000Y-53530000D03*
D19*
%TO.P,J4,2,Pin_2*%
%TO.N,/SWCLK*%
X111060000Y-53530000D03*
%TO.P,J4,3,Pin_3*%
%TO.N,GND*%
X113600000Y-53530000D03*
%TO.P,J4,4,Pin_4*%
%TO.N,/SWDIO*%
X116140000Y-53530000D03*
%TD*%
D13*
%TO.P,R8,1*%
%TO.N,+3V3*%
X152790000Y-65490000D03*
%TO.P,R8,2*%
%TO.N,/uBUTTON*%
X150790000Y-65490000D03*
%TD*%
D20*
%TO.P,J11,1,Pin_1*%
%TO.N,+3V3*%
X102730000Y-53530000D03*
D21*
%TO.P,J11,2,Pin_2*%
%TO.N,/USER_TX*%
X100230000Y-53530000D03*
%TO.P,J11,3,Pin_3*%
%TO.N,/USER_RX*%
X97730000Y-53530000D03*
%TO.P,J11,4,Pin_4*%
%TO.N,GND*%
X95230000Y-53530000D03*
%TD*%
D28*
%TO.P,MDBT42T-AT1,1,GND@1*%
%TO.N,GND*%
X149080000Y-30741750D03*
D29*
%TO.P,MDBT42T-AT1,2,NC@2*%
%TO.N,unconnected-(MDBT42T-AT1-NC@2-Pad2)*%
X149080000Y-31541750D03*
%TO.P,MDBT42T-AT1,3,NC@3*%
%TO.N,unconnected-(MDBT42T-AT1-NC@3-Pad3)*%
X149080000Y-32241750D03*
%TO.P,MDBT42T-AT1,4,RESET*%
%TO.N,unconnected-(MDBT42T-AT1-RESET-Pad4)*%
X149080000Y-32941750D03*
%TO.P,MDBT42T-AT1,5,INDICATOR*%
%TO.N,Net-(MDBT42T-AT1-INDICATOR)*%
X149080000Y-33641750D03*
%TO.P,MDBT42T-AT1,6,WAKEUP*%
%TO.N,/BL_WAKEUP*%
X149080000Y-34341750D03*
%TO.P,MDBT42T-AT1,7,TX*%
%TO.N,/BL_TX*%
X149080000Y-35041750D03*
%TO.P,MDBT42T-AT1,8,RX*%
%TO.N,/BL_RX*%
X149080000Y-35741750D03*
%TO.P,MDBT42T-AT1,9,UART_PD*%
%TO.N,GND*%
X149080000Y-36441750D03*
D30*
%TO.P,MDBT42T-AT1,10,GND@10*%
X150180000Y-37941750D03*
%TO.P,MDBT42T-AT1,11,ADC*%
%TO.N,unconnected-(MDBT42T-AT1-ADC-Pad11)*%
X150880000Y-37941750D03*
%TO.P,MDBT42T-AT1,12,FLASH_DEFAULT*%
%TO.N,GND*%
X151580000Y-37941750D03*
%TO.P,MDBT42T-AT1,13,RTS/XL2*%
%TO.N,unconnected-(MDBT42T-AT1-RTS{slash}XL2-Pad13)*%
X152280000Y-37941750D03*
%TO.P,MDBT42T-AT1,14,CTS/XL1*%
%TO.N,unconnected-(MDBT42T-AT1-CTS{slash}XL1-Pad14)*%
X152980000Y-37941750D03*
%TO.P,MDBT42T-AT1,15,VDD*%
%TO.N,+3V3*%
X153680000Y-37941750D03*
%TO.P,MDBT42T-AT1,16,GND@16*%
%TO.N,GND*%
X154380000Y-37941750D03*
D29*
%TO.P,MDBT42T-AT1,17,DCC*%
%TO.N,unconnected-(MDBT42T-AT1-DCC-Pad17)*%
X155480000Y-36441750D03*
%TO.P,MDBT42T-AT1,18,DEC4*%
%TO.N,unconnected-(MDBT42T-AT1-DEC4-Pad18)*%
X155480000Y-35741750D03*
D28*
%TO.P,MDBT42T-AT1,19,GND@19*%
%TO.N,GND*%
X155480000Y-30741750D03*
%TD*%
D31*
%TO.P,C2,1*%
%TO.N,+3V3*%
X143125000Y-75240000D03*
%TO.P,C2,2*%
%TO.N,GND*%
X145200000Y-75240000D03*
%TD*%
D10*
%TO.P,R6,1*%
%TO.N,/USER_LED*%
X129990000Y-80315000D03*
%TO.P,R6,2*%
%TO.N,Net-(D3-A)*%
X129990000Y-82315000D03*
%TD*%
D13*
%TO.P,R7,1*%
%TO.N,Net-(MDBT42T-AT1-INDICATOR)*%
X145820000Y-32831750D03*
%TO.P,R7,2*%
%TO.N,Net-(D4-A)*%
X143820000Y-32831750D03*
%TD*%
D27*
%TO.P,C4,1*%
%TO.N,+3V3*%
X129470000Y-74805000D03*
%TO.P,C4,2*%
%TO.N,GND*%
X129470000Y-76880000D03*
%TD*%
D32*
%TO.P,U2,1,I/O1*%
%TO.N,/USB_CONN_D-*%
X137670000Y-45930000D03*
%TO.P,U2,2,GND*%
%TO.N,GND*%
X136720000Y-45930000D03*
%TO.P,U2,3,I/O2*%
%TO.N,/USB_CONN_D+*%
X135770000Y-45930000D03*
%TO.P,U2,4,I/O2*%
%TO.N,/USB_D+*%
X135770000Y-48205000D03*
%TO.P,U2,5,VBUS*%
%TO.N,Vusb*%
X136720000Y-48205000D03*
%TO.P,U2,6,I/O1*%
%TO.N,/USB_D-*%
X137670000Y-48205000D03*
%TD*%
D15*
%TO.P,C5,1*%
%TO.N,+3V3*%
X130475000Y-62440000D03*
%TO.P,C5,2*%
%TO.N,GND*%
X128400000Y-62440000D03*
%TD*%
D18*
%TO.P,J3,1,Pin_1*%
%TO.N,+5V*%
X178850000Y-73600000D03*
D19*
%TO.P,J3,2,Pin_2*%
%TO.N,/ULTRA_TRIG*%
X178850000Y-71060000D03*
%TO.P,J3,3,Pin_3*%
%TO.N,/ULTRA_ECHO*%
X178850000Y-68520000D03*
%TO.P,J3,4,Pin_4*%
%TO.N,GND*%
X178850000Y-65980000D03*
%TD*%
D20*
%TO.P,J7,1,Pin_1*%
%TO.N,/AN2*%
X154930000Y-45150000D03*
D21*
%TO.P,J7,2,Pin_2*%
%TO.N,/AN1*%
X152430000Y-45150000D03*
%TO.P,J7,3,Pin_3*%
%TO.N,/BN2*%
X149930000Y-45150000D03*
%TO.P,J7,4,Pin_4*%
%TO.N,/BN1*%
X147430000Y-45150000D03*
%TD*%
D33*
%TO.P,Y2,1,1*%
%TO.N,/OSC_IN*%
X133200000Y-79640000D03*
%TO.P,Y2,2,2*%
%TO.N,GND*%
X135400000Y-79640000D03*
%TO.P,Y2,3,3*%
%TO.N,/OSC_OUT*%
X135400000Y-77940000D03*
%TO.P,Y2,4,4*%
%TO.N,GND*%
X133200000Y-77940000D03*
%TD*%
D34*
%TO.P,SW1,1,A*%
%TO.N,GND*%
X131190000Y-87770000D03*
%TO.P,SW1,2,B*%
%TO.N,/RESET*%
X137890000Y-87770000D03*
%TD*%
D27*
%TO.P,C6,1*%
%TO.N,+3V3*%
X139030000Y-81945000D03*
%TO.P,C6,2*%
%TO.N,GND*%
X139030000Y-84020000D03*
%TD*%
D16*
%TO.P,J5,1,Pin_1*%
%TO.N,+5V*%
X127460000Y-100490000D03*
D17*
%TO.P,J5,2,Pin_2*%
%TO.N,GND*%
X124960000Y-100490000D03*
%TD*%
D24*
%TO.P,D2,1,K*%
%TO.N,GND*%
X147520000Y-75410000D03*
%TO.P,D2,2,A*%
%TO.N,Net-(D2-A)*%
X147520000Y-77460000D03*
%TD*%
D31*
%TO.P,C1,1*%
%TO.N,+3V3*%
X142925000Y-63440000D03*
%TO.P,C1,2*%
%TO.N,GND*%
X145000000Y-63440000D03*
%TD*%
D26*
%TO.P,LED2,1,VDD*%
%TO.N,+5V*%
X106350000Y-84110000D03*
%TO.P,LED2,2,DOUT*%
%TO.N,unconnected-(LED2-DOUT-Pad2)*%
X106350000Y-87310000D03*
%TO.P,LED2,3,VSS*%
%TO.N,GND*%
X110750000Y-87310000D03*
%TO.P,LED2,4,DIN*%
%TO.N,Net-(LED1-DOUT)*%
X110750000Y-84110000D03*
%TD*%
D27*
%TO.P,C8,1*%
%TO.N,/OSC_OUT*%
X136300000Y-81965000D03*
%TO.P,C8,2*%
%TO.N,GND*%
X136300000Y-84040000D03*
%TD*%
D13*
%TO.P,R1,1*%
%TO.N,/BOOT*%
X124030000Y-71730000D03*
%TO.P,R1,2*%
%TO.N,Net-(R1-Pad2)*%
X122030000Y-71730000D03*
%TD*%
D35*
%TO.P,J10,1,Pin_1*%
%TO.N,+3V3*%
X95345000Y-73210000D03*
D36*
%TO.P,J10,2,Pin_2*%
%TO.N,/X1*%
X95345000Y-70710000D03*
%TO.P,J10,3,Pin_3*%
%TO.N,/X2*%
X95345000Y-68210000D03*
%TO.P,J10,4,Pin_4*%
%TO.N,/X3*%
X95345000Y-65710000D03*
%TO.P,J10,5,Pin_5*%
%TO.N,/X4*%
X95345000Y-63210000D03*
%TO.P,J10,6,Pin_6*%
%TO.N,GND*%
X95345000Y-60710000D03*
%TD*%
D27*
%TO.P,C3,1*%
%TO.N,+3V3*%
X138000000Y-77802500D03*
%TO.P,C3,2*%
%TO.N,GND*%
X138000000Y-79877500D03*
%TD*%
D37*
%TO.P,SW2,1,A*%
%TO.N,/uBUTTON*%
X150917500Y-67967500D03*
X156167500Y-67967500D03*
%TO.P,SW2,2,B*%
%TO.N,GND*%
X150917500Y-71167500D03*
X156167500Y-71167500D03*
%TD*%
D38*
%TO.P,D1,1,K*%
%TO.N,GND*%
X140105000Y-44270000D03*
%TO.P,D1,2,A*%
%TO.N,Net-(D1-A)*%
X142155000Y-44270000D03*
%TD*%
D39*
%TO.P,S1,1*%
%TO.N,+3V3*%
X113480000Y-79100000D03*
%TO.P,S1,2*%
%TO.N,Net-(R1-Pad2)*%
X115980000Y-79100000D03*
%TO.P,S1,3*%
%TO.N,GND*%
X118480000Y-79100000D03*
%TO.P,S1,4*%
%TO.N,unconnected-(S1-Pad4)*%
X113480000Y-73600000D03*
%TO.P,S1,5*%
%TO.N,unconnected-(S1-Pad5)*%
X115980000Y-73600000D03*
%TO.P,S1,6*%
%TO.N,unconnected-(S1-Pad6)*%
X118480000Y-73600000D03*
%TD*%
D15*
%TO.P,C11,1*%
%TO.N,+5V*%
X119180000Y-90720000D03*
%TO.P,C11,2*%
%TO.N,GND*%
X117105000Y-90720000D03*
%TD*%
D40*
%TO.P,J1,1,VBUS*%
%TO.N,Net-(J1-VBUS)*%
X138230000Y-37055000D03*
%TO.P,J1,2,D-*%
%TO.N,/D-*%
X137430000Y-37055000D03*
%TO.P,J1,3,D+*%
%TO.N,/D+*%
X136630000Y-37055000D03*
%TO.P,J1,4,ID*%
%TO.N,unconnected-(J1-ID-Pad4)*%
X135830000Y-37055000D03*
%TO.P,J1,5,GND*%
%TO.N,GND*%
X135030000Y-37055000D03*
D41*
%TO.P,J1,6,Shield*%
%TO.N,unconnected-(J1-Shield-Pad6)_2*%
X141080000Y-36955000D03*
%TO.N,unconnected-(J1-Shield-Pad6)_1*%
X141080000Y-31505000D03*
%TO.N,unconnected-(J1-Shield-Pad6)_3*%
X132180000Y-36955000D03*
%TO.N,unconnected-(J1-Shield-Pad6)*%
X132180000Y-31505000D03*
%TD*%
D27*
%TO.P,C7,1*%
%TO.N,/RESET*%
X141020000Y-86755000D03*
%TO.P,C7,2*%
%TO.N,GND*%
X141020000Y-88830000D03*
%TD*%
D25*
%TO.P,R4,1*%
%TO.N,Vusb*%
X140125000Y-41930000D03*
%TO.P,R4,2*%
%TO.N,Net-(D1-A)*%
X142125000Y-41930000D03*
%TD*%
D42*
%TO.N,GND*%
X159710000Y-103540000D03*
X160550000Y-100530000D03*
X156720000Y-75590000D03*
X156080000Y-78460000D03*
X154260000Y-78430000D03*
X153310000Y-76100000D03*
%TO.N,/E2B*%
X126000000Y-70750000D03*
%TO.N,GND*%
X127290000Y-70830000D03*
%TO.N,/E2A*%
X128380000Y-70890000D03*
%TO.N,GND*%
X126930000Y-73740000D03*
%TO.N,/E2B*%
X126410000Y-73040000D03*
%TO.N,/E2A*%
X127620000Y-73040000D03*
%TO.N,GND*%
X150210000Y-95470000D03*
X150230000Y-92850000D03*
%TO.N,+3V3*%
X149430000Y-93070000D03*
X149430000Y-95220000D03*
%TO.N,/PWR_ADC*%
X152420000Y-75910000D03*
%TO.N,/E1B*%
X154333005Y-75976995D03*
%TO.N,/E1A*%
X155640000Y-75810000D03*
X156890000Y-78570000D03*
%TO.N,/E1B*%
X155120000Y-78560000D03*
%TO.N,/PWR_ADC*%
X153250000Y-78510000D03*
%TO.N,GND*%
X110770000Y-88130000D03*
X118030000Y-90760000D03*
X117650000Y-87300000D03*
X118530000Y-77520000D03*
%TO.N,+3V3*%
X159030000Y-102920000D03*
X159610000Y-100760000D03*
%TO.N,GND*%
X172940000Y-59400000D03*
X175930000Y-57750000D03*
%TO.N,+5V*%
X173580000Y-58670000D03*
X175330000Y-58660000D03*
%TO.N,GND*%
X155060000Y-71180000D03*
X152020000Y-71180000D03*
X175380000Y-76510000D03*
X173470000Y-73270000D03*
%TO.N,+3V3*%
X174430000Y-73110000D03*
X174430000Y-76690000D03*
%TO.N,GND*%
X153270000Y-34990000D03*
X154190000Y-33600000D03*
%TO.N,+3V3*%
X154460000Y-34970000D03*
X155140000Y-33670000D03*
%TO.N,*%
X148970000Y-65390000D03*
%TO.N,+3V3*%
X147020000Y-63140000D03*
X149280000Y-64640000D03*
%TO.N,GND*%
X135510000Y-80550000D03*
X149670000Y-37870000D03*
X140990000Y-44260000D03*
X133170000Y-77030000D03*
X136730000Y-46900000D03*
X147520000Y-76292500D03*
X132000000Y-88830000D03*
X144300000Y-75280000D03*
X139050000Y-83120000D03*
X138040000Y-78980000D03*
X144930000Y-36300000D03*
X129470000Y-75970000D03*
X141060000Y-87940000D03*
X150090000Y-36450000D03*
X151580000Y-36940000D03*
X147540000Y-62370000D03*
X127800000Y-81195000D03*
X140780000Y-66150000D03*
X131720000Y-72610000D03*
X107990000Y-90667500D03*
X154540000Y-39170000D03*
X136300000Y-83140000D03*
X148070000Y-30900000D03*
X129300000Y-62460000D03*
X133000000Y-64800000D03*
X135030000Y-35750000D03*
X132420000Y-83140000D03*
X154470000Y-30780000D03*
X144100000Y-63450000D03*
X143060000Y-72650000D03*
X138010000Y-73910000D03*
%TD*%
D43*
%TO.N,/E2B*%
X128180000Y-70120000D02*
X126630000Y-70120000D01*
X128185000Y-70115000D02*
X128180000Y-70120000D01*
X130575000Y-70115000D02*
X128185000Y-70115000D01*
X126630000Y-70120000D02*
X126000000Y-70750000D01*
%TO.N,/E2A*%
X128655000Y-70615000D02*
X128380000Y-70890000D01*
X130575000Y-70615000D02*
X128655000Y-70615000D01*
%TO.N,/E2B*%
X125970000Y-73480000D02*
X126410000Y-73040000D01*
X125970000Y-74530000D02*
X125970000Y-73480000D01*
%TO.N,/E2A*%
X127570000Y-74480000D02*
X127620000Y-74430000D01*
X127620000Y-74430000D02*
X127620000Y-73040000D01*
X126762000Y-75288000D02*
X127570000Y-74480000D01*
X126762000Y-78068000D02*
X126762000Y-75288000D01*
%TO.N,/E2B*%
X125970000Y-77350000D02*
X125970000Y-74530000D01*
%TO.N,GND*%
X129470000Y-75970000D02*
X129470000Y-76880000D01*
%TO.N,Net-(D2-A)*%
X145150000Y-77580000D02*
X147400000Y-77580000D01*
X147400000Y-77580000D02*
X147520000Y-77460000D01*
%TO.N,+3V3*%
X138370000Y-65522000D02*
X141832000Y-65522000D01*
X140656496Y-72536496D02*
X140656496Y-67808496D01*
X140656496Y-72536496D02*
X140758500Y-72434492D01*
X140656496Y-67808496D02*
X138370000Y-65522000D01*
X141832000Y-65522000D02*
X141925000Y-65615000D01*
X132678001Y-65522000D02*
X138370000Y-65522000D01*
X132350001Y-65850000D02*
X132678001Y-65522000D01*
X132350001Y-65850000D02*
X132350001Y-72334999D01*
D44*
X149430000Y-92345000D02*
X149430000Y-93070000D01*
X149430000Y-95220000D02*
X149430000Y-95110000D01*
X149430000Y-98010000D02*
X149430000Y-95220000D01*
D43*
%TO.N,/E2B*%
X158330000Y-94490000D02*
X129920000Y-94490000D01*
X125970000Y-90540000D02*
X125970000Y-77350000D01*
X129920000Y-94490000D02*
X125970000Y-90540000D01*
X164540000Y-88280000D02*
X158330000Y-94490000D01*
X165530000Y-88280000D02*
X164540000Y-88280000D01*
%TO.N,/E2A*%
X128300000Y-92040000D02*
X126762000Y-90502000D01*
X130170000Y-93910000D02*
X128300000Y-92040000D01*
X150630000Y-93910000D02*
X130170000Y-93910000D01*
X150630000Y-93910000D02*
X150570000Y-93910000D01*
X126762000Y-90502000D02*
X126762000Y-78068000D01*
X158360000Y-93490000D02*
X157940000Y-93910000D01*
X157940000Y-93910000D02*
X150630000Y-93910000D01*
X163690000Y-88160000D02*
X158360000Y-93490000D01*
X163690000Y-82690000D02*
X163690000Y-88160000D01*
%TO.N,/E2B*%
X165530000Y-81750000D02*
X165530000Y-88280000D01*
X165167000Y-81387000D02*
X165530000Y-81750000D01*
X162493000Y-81387000D02*
X165167000Y-81387000D01*
X161190000Y-82690000D02*
X162493000Y-81387000D01*
%TO.N,/E1A*%
X148085000Y-70115000D02*
X141925000Y-70115000D01*
X152180000Y-74290000D02*
X148085000Y-70115000D01*
X154120000Y-74290000D02*
X152180000Y-74290000D01*
X155640000Y-75810000D02*
X154120000Y-74290000D01*
%TO.N,/E1B*%
X143290000Y-71110000D02*
X142795000Y-70615000D01*
X147790000Y-71110000D02*
X143290000Y-71110000D01*
X151720000Y-75040000D02*
X147790000Y-71110000D01*
X142795000Y-70615000D02*
X141925000Y-70615000D01*
X153396010Y-75040000D02*
X151720000Y-75040000D01*
X154333005Y-75976995D02*
X153396010Y-75040000D01*
%TO.N,/ULTRA_ECHO*%
X176890000Y-70480000D02*
X178850000Y-68520000D01*
X176890000Y-72070000D02*
X176890000Y-70480000D01*
X142088000Y-73278000D02*
X148234532Y-73278000D01*
X148234532Y-73278000D02*
X151896532Y-76940000D01*
X141925000Y-73115000D02*
X142088000Y-73278000D01*
X151896532Y-76940000D02*
X172020000Y-76940000D01*
X172020000Y-76940000D02*
X176890000Y-72070000D01*
%TO.N,/PWR_ADC*%
X152270000Y-75760000D02*
X152420000Y-75910000D01*
X151360000Y-75760000D02*
X152270000Y-75760000D01*
X147215000Y-71615000D02*
X151360000Y-75760000D01*
X141925000Y-71615000D02*
X147215000Y-71615000D01*
%TO.N,/E1A*%
X158690000Y-80370000D02*
X156890000Y-78570000D01*
X158690000Y-82690000D02*
X158690000Y-80370000D01*
%TO.N,/E1B*%
X156190000Y-79630000D02*
X155120000Y-78560000D01*
X156190000Y-82690000D02*
X156190000Y-79630000D01*
%TO.N,/PWR_ADC*%
X153690000Y-78920000D02*
X153250000Y-78510000D01*
X153690000Y-82690000D02*
X153690000Y-78920000D01*
%TO.N,/BOOT*%
X124100000Y-71660000D02*
X124030000Y-71730000D01*
X129170000Y-71660000D02*
X124100000Y-71660000D01*
X129715000Y-71115000D02*
X129170000Y-71660000D01*
X130575000Y-71115000D02*
X129715000Y-71115000D01*
%TO.N,GND*%
X118530000Y-79050000D02*
X118480000Y-79100000D01*
X118530000Y-77520000D02*
X118530000Y-79050000D01*
D44*
%TO.N,+5V*%
X124050000Y-92210000D02*
X124050000Y-83090000D01*
X121625000Y-94635000D02*
X124050000Y-92210000D01*
X121625000Y-94635000D02*
X119180000Y-92190000D01*
D43*
%TO.N,GND*%
X118485000Y-87305000D02*
X117655000Y-87305000D01*
X117655000Y-87305000D02*
X117650000Y-87300000D01*
X117990000Y-90720000D02*
X118030000Y-90760000D01*
X117105000Y-90720000D02*
X117990000Y-90720000D01*
X107102500Y-90667500D02*
X107092500Y-90677500D01*
X107990000Y-90667500D02*
X107102500Y-90667500D01*
X110770000Y-87330000D02*
X110750000Y-87310000D01*
X110770000Y-88130000D02*
X110770000Y-87330000D01*
%TO.N,Net-(LED1-DIN)*%
X119500000Y-83090000D02*
X118485000Y-84105000D01*
X122050000Y-83090000D02*
X119500000Y-83090000D01*
%TO.N,Net-(LED1-DOUT)*%
X113945000Y-87305000D02*
X110750000Y-84110000D01*
X114085000Y-87305000D02*
X113945000Y-87305000D01*
D44*
%TO.N,+5V*%
X123270000Y-96280000D02*
X121625000Y-94635000D01*
X109167500Y-90677500D02*
X114770000Y-96280000D01*
X114770000Y-96280000D02*
X123270000Y-96280000D01*
X109167500Y-86927500D02*
X106350000Y-84110000D01*
X109167500Y-90677500D02*
X109167500Y-86927500D01*
X119180000Y-90720000D02*
X114085000Y-85625000D01*
X114085000Y-85625000D02*
X114085000Y-84105000D01*
X119180000Y-92190000D02*
X119180000Y-90720000D01*
X127460000Y-100470000D02*
X123270000Y-96280000D01*
X127460000Y-100490000D02*
X127460000Y-100470000D01*
%TO.N,+3V3*%
X155650000Y-33160000D02*
X155140000Y-33670000D01*
X162530000Y-33160000D02*
X155650000Y-33160000D01*
X168041500Y-38671500D02*
X162530000Y-33160000D01*
X168120000Y-52340000D02*
X168041500Y-38671500D01*
%TO.N,+5V*%
X172890000Y-57980000D02*
X173580000Y-58670000D01*
X170540000Y-57980000D02*
X172890000Y-57980000D01*
X181020000Y-64160000D02*
X175330000Y-58660000D01*
X181020000Y-78040000D02*
X181020000Y-64160000D01*
%TO.N,+3V3*%
X172390000Y-53990000D02*
X174430000Y-56030000D01*
X174430000Y-56030000D02*
X174430000Y-73110000D01*
X169770000Y-53990000D02*
X172390000Y-53990000D01*
X167845000Y-52065000D02*
X169770000Y-53990000D01*
X107940000Y-53530000D02*
X108520000Y-53530000D01*
X106130000Y-51720000D02*
X107940000Y-53530000D01*
X100920000Y-51720000D02*
X106130000Y-51720000D01*
X167845000Y-52065000D02*
X167450000Y-51670000D01*
D43*
%TO.N,Net-(LED1-DIN)*%
X122125000Y-83015000D02*
X122050000Y-83090000D01*
X122125000Y-79970000D02*
X122125000Y-83015000D01*
%TO.N,/RGB_DIN*%
X123920000Y-73820000D02*
X123920000Y-75670000D01*
X130575000Y-72115000D02*
X125625000Y-72115000D01*
X125625000Y-72115000D02*
X123920000Y-73820000D01*
%TO.N,+3V3*%
X121920000Y-75670000D02*
X121920000Y-77865000D01*
X121920000Y-77865000D02*
X122125000Y-78070000D01*
%TO.N,/RGB_DIN*%
X123920000Y-78940000D02*
X124000000Y-79020000D01*
X123920000Y-75670000D02*
X123920000Y-78940000D01*
D44*
%TO.N,+3V3*%
X120800000Y-79413000D02*
X120800000Y-79395000D01*
X120800000Y-79395000D02*
X122125000Y-78070000D01*
X119471500Y-80741500D02*
X120800000Y-79413000D01*
X115121500Y-80741500D02*
X119471500Y-80741500D01*
X113480000Y-79100000D02*
X115121500Y-80741500D01*
D45*
%TO.N,Net-(R1-Pad2)*%
X115980000Y-78750000D02*
X115980000Y-79100000D01*
X122030000Y-72700000D02*
X115980000Y-78750000D01*
X122030000Y-71730000D02*
X122030000Y-72700000D01*
D44*
%TO.N,+3V3*%
X93060000Y-81940000D02*
X95900000Y-79100000D01*
X92791500Y-81940000D02*
X93060000Y-81940000D01*
X92791500Y-81940000D02*
X92791500Y-79350000D01*
X95900000Y-79100000D02*
X113480000Y-79100000D01*
D43*
%TO.N,/USER_LED*%
X133000000Y-75887008D02*
X129990000Y-78897008D01*
X129990000Y-78897008D02*
X129990000Y-80315000D01*
X133000000Y-75040000D02*
X133000000Y-75887008D01*
D44*
%TO.N,+3V3*%
X130195000Y-74805000D02*
X130575000Y-74425000D01*
X129470000Y-74805000D02*
X130195000Y-74805000D01*
X130575000Y-74425000D02*
X130575000Y-73156500D01*
X146950000Y-100490000D02*
X149430000Y-98010000D01*
X146950000Y-100490000D02*
X149430000Y-100490000D01*
X149430000Y-92345000D02*
X139030000Y-81945000D01*
X149430000Y-100490000D02*
X155500000Y-100490000D01*
X158800000Y-97190000D02*
X174430000Y-81560000D01*
X158800000Y-97190000D02*
X158725000Y-97265000D01*
X167450000Y-51670000D02*
X162550000Y-51670000D01*
X95345000Y-76796500D02*
X92791500Y-79350000D01*
X95345000Y-73210000D02*
X95345000Y-76796500D01*
X92791500Y-102481500D02*
X92791500Y-81940000D01*
X94291500Y-51720000D02*
X100920000Y-51720000D01*
X92791500Y-53220000D02*
X94291500Y-51720000D01*
X92791500Y-79350000D02*
X92791500Y-53220000D01*
X159030000Y-102920000D02*
X156160000Y-105790000D01*
X156160000Y-105790000D02*
X96100000Y-105790000D01*
X96100000Y-105790000D02*
X92791500Y-102481500D01*
X100920000Y-51720000D02*
X101363500Y-52163500D01*
X156645000Y-99345000D02*
X158195000Y-99345000D01*
X156645000Y-99345000D02*
X158800000Y-97190000D01*
X158195000Y-99345000D02*
X159610000Y-100760000D01*
%TO.N,+5V*%
X178850000Y-75870000D02*
X178850000Y-73600000D01*
X181020000Y-78040000D02*
X178850000Y-75870000D01*
X161174500Y-56245500D02*
X160865000Y-56555000D01*
X168805500Y-56245500D02*
X161174500Y-56245500D01*
X170540000Y-57980000D02*
X168805500Y-56245500D01*
X181020000Y-88490000D02*
X181020000Y-78040000D01*
X167628500Y-101881500D02*
X181020000Y-88490000D01*
X128851500Y-101881500D02*
X167628500Y-101881500D01*
X127460000Y-100490000D02*
X128851500Y-101881500D01*
D43*
%TO.N,/PS2_CS*%
X140000000Y-62798992D02*
X140000000Y-63690000D01*
X151368992Y-51430000D02*
X140000000Y-62798992D01*
X156128000Y-50492000D02*
X155190000Y-51430000D01*
X162853944Y-50492000D02*
X156128000Y-50492000D01*
X163728000Y-45228000D02*
X163728000Y-49617944D01*
X155190000Y-51430000D02*
X151368992Y-51430000D01*
X162550000Y-44050000D02*
X163728000Y-45228000D01*
X163728000Y-49617944D02*
X162853944Y-50492000D01*
%TO.N,/PS2_SCK*%
X154810000Y-50910000D02*
X144870000Y-50910000D01*
X158800000Y-46920000D02*
X154810000Y-50910000D01*
X144870000Y-50910000D02*
X139500000Y-56280000D01*
X160340000Y-46920000D02*
X158800000Y-46920000D01*
X162550000Y-49130000D02*
X160340000Y-46920000D01*
X139500000Y-56280000D02*
X139500000Y-63690000D01*
%TO.N,/PS2_MISO*%
X139000000Y-55630000D02*
X139000000Y-63690000D01*
X144470000Y-50160000D02*
X139000000Y-55630000D01*
X158320000Y-46410000D02*
X154570000Y-50160000D01*
X158320000Y-43200000D02*
X158320000Y-46410000D01*
X154570000Y-50160000D02*
X144470000Y-50160000D01*
X162550000Y-38970000D02*
X158320000Y-43200000D01*
%TO.N,/PS2_MOSI*%
X138500000Y-55060000D02*
X138500000Y-63690000D01*
X144170000Y-49390000D02*
X138500000Y-55060000D01*
X154450000Y-49390000D02*
X144170000Y-49390000D01*
X157510000Y-39730000D02*
X157510000Y-46330000D01*
X160810000Y-36430000D02*
X157510000Y-39730000D01*
X157510000Y-46330000D02*
X154450000Y-49390000D01*
X162550000Y-36430000D02*
X160810000Y-36430000D01*
%TO.N,GND*%
X150930000Y-71180000D02*
X150917500Y-71167500D01*
X152020000Y-71180000D02*
X150930000Y-71180000D01*
X156155000Y-71180000D02*
X156167500Y-71167500D01*
X155060000Y-71180000D02*
X156155000Y-71180000D01*
%TO.N,/AN1*%
X138000000Y-54680000D02*
X138000000Y-63690000D01*
X154110000Y-48660000D02*
X144020000Y-48660000D01*
X156230000Y-46540000D02*
X154110000Y-48660000D01*
X144020000Y-48660000D02*
X138000000Y-54680000D01*
%TO.N,/AN2*%
X143800000Y-47930000D02*
X137500000Y-54230000D01*
X152150000Y-47930000D02*
X143800000Y-47930000D01*
X154930000Y-45150000D02*
X152150000Y-47930000D01*
X137500000Y-54230000D02*
X137500000Y-63690000D01*
%TO.N,/AN1*%
X156230000Y-44300658D02*
X156230000Y-46540000D01*
X153733000Y-43847000D02*
X155776342Y-43847000D01*
X155776342Y-43847000D02*
X156230000Y-44300658D01*
X152430000Y-45150000D02*
X153733000Y-43847000D01*
%TO.N,/BN1*%
X137000000Y-53640000D02*
X137000000Y-63690000D01*
X145490000Y-45150000D02*
X137000000Y-53640000D01*
X147430000Y-45150000D02*
X145490000Y-45150000D01*
D44*
%TO.N,+3V3*%
X174430000Y-76690000D02*
X174430000Y-76670000D01*
X174430000Y-81560000D02*
X174430000Y-76690000D01*
D43*
%TO.N,/ULTRA_TRIG*%
X148964992Y-78608000D02*
X149962992Y-77610000D01*
X141720992Y-78608000D02*
X148964992Y-78608000D01*
X139000000Y-75887008D02*
X141720992Y-78608000D01*
X139000000Y-75040000D02*
X139000000Y-75887008D01*
X172300000Y-77610000D02*
X149962992Y-77610000D01*
X178850000Y-71060000D02*
X172300000Y-77610000D01*
D44*
%TO.N,+3V3*%
X155500000Y-100490000D02*
X156645000Y-99345000D01*
X136260000Y-100490000D02*
X146950000Y-100490000D01*
X153680000Y-35750000D02*
X154460000Y-34970000D01*
X153680000Y-37941750D02*
X153680000Y-35750000D01*
D43*
%TO.N,Net-(U1-PA1)*%
X139500000Y-75040000D02*
X140000000Y-75040000D01*
%TO.N,/X4*%
X99760000Y-63210000D02*
X95345000Y-63210000D01*
X130575000Y-67615000D02*
X104165000Y-67615000D01*
X104165000Y-67615000D02*
X99760000Y-63210000D01*
%TO.N,/X3*%
X97750000Y-68115000D02*
X130575000Y-68115000D01*
X95345000Y-65710000D02*
X97750000Y-68115000D01*
%TO.N,/X1*%
X96465000Y-69590000D02*
X95345000Y-70710000D01*
X129545000Y-69115000D02*
X129070000Y-69590000D01*
X130575000Y-69115000D02*
X129545000Y-69115000D01*
X129070000Y-69590000D02*
X96465000Y-69590000D01*
%TO.N,/X2*%
X130575000Y-68615000D02*
X95750000Y-68615000D01*
X95750000Y-68615000D02*
X95345000Y-68210000D01*
%TO.N,/USER_TX*%
X100230000Y-53530000D02*
X113315000Y-66615000D01*
X113315000Y-66615000D02*
X130575000Y-66615000D01*
%TO.N,/USER_RX*%
X97730000Y-53530000D02*
X111315000Y-67115000D01*
X111315000Y-67115000D02*
X130575000Y-67115000D01*
D45*
%TO.N,/RESET*%
X140005000Y-87770000D02*
X141020000Y-86755000D01*
X136974000Y-81040340D02*
X137890000Y-81956340D01*
X135500000Y-75040000D02*
X135500000Y-76138000D01*
X137890000Y-81956340D02*
X137890000Y-87770000D01*
X135500000Y-76138000D02*
X136974000Y-77612000D01*
X136974000Y-77612000D02*
X136974000Y-81040340D01*
X137890000Y-87770000D02*
X140005000Y-87770000D01*
D43*
%TO.N,+3V3*%
X138500000Y-75040000D02*
X138500000Y-77302500D01*
D45*
X138500000Y-75040000D02*
X138549000Y-74991000D01*
D44*
X138000000Y-77802500D02*
X139116500Y-78919000D01*
X131250000Y-62440000D02*
X132458500Y-63648500D01*
X130475000Y-62440000D02*
X131250000Y-62440000D01*
D43*
X139870000Y-73264999D02*
X139927993Y-73264999D01*
D44*
X149280000Y-64640000D02*
X149521500Y-64398500D01*
X142925000Y-63440000D02*
X144041500Y-62323500D01*
X142925000Y-63440000D02*
X142925000Y-64573500D01*
D43*
X133540000Y-73264999D02*
X130724999Y-73264999D01*
X133280000Y-73264999D02*
X133540000Y-73264999D01*
X132500000Y-63690000D02*
X132350001Y-63839999D01*
D44*
X139116500Y-81858500D02*
X139030000Y-81945000D01*
D43*
X141925000Y-72115000D02*
X141077992Y-72115000D01*
D45*
X138549000Y-74991000D02*
X138549000Y-74182176D01*
D43*
X141077992Y-72115000D02*
X140966496Y-72226496D01*
X140758500Y-73461000D02*
X142537500Y-75240000D01*
D44*
X102730000Y-53530000D02*
X101363500Y-52163500D01*
D43*
X132350001Y-63839999D02*
X132350001Y-65850000D01*
X130724999Y-73264999D02*
X130575000Y-73115000D01*
X132350001Y-72335000D02*
X133137501Y-73122499D01*
X133540000Y-73264999D02*
X139870000Y-73264999D01*
D45*
X139466177Y-73264999D02*
X139927993Y-73264999D01*
D43*
X140966496Y-72226496D02*
X140758500Y-72434492D01*
D44*
X146203500Y-62323500D02*
X147020000Y-63140000D01*
X149521500Y-64398500D02*
X151698500Y-64398500D01*
X143150000Y-77580000D02*
X143150000Y-75265000D01*
X143150000Y-75265000D02*
X143125000Y-75240000D01*
D43*
X142537500Y-75240000D02*
X143125000Y-75240000D01*
D44*
X139116500Y-78919000D02*
X139116500Y-81858500D01*
X142925000Y-64573500D02*
X141925000Y-65573500D01*
D43*
X139927993Y-73264999D02*
X140656496Y-72536496D01*
X132350001Y-72334999D02*
X133137501Y-73122499D01*
D44*
X151698500Y-64398500D02*
X152790000Y-65490000D01*
D43*
X138500000Y-77302500D02*
X138000000Y-77802500D01*
D44*
X144041500Y-62323500D02*
X146203500Y-62323500D01*
D45*
X138549000Y-74182176D02*
X139466177Y-73264999D01*
D43*
X133137501Y-73122499D02*
X133280000Y-73264999D01*
X140758500Y-72434492D02*
X140758500Y-73461000D01*
%TO.N,GND*%
X141060000Y-87940000D02*
X141060000Y-88790000D01*
X132000000Y-88580000D02*
X131190000Y-87770000D01*
D45*
X136730000Y-46900000D02*
X136730000Y-45940000D01*
D43*
X132420000Y-83140000D02*
X132420000Y-84020000D01*
X145771750Y-36300000D02*
X145810000Y-36261750D01*
X133170000Y-77910000D02*
X133200000Y-77940000D01*
X139050000Y-83120000D02*
X139050000Y-84000000D01*
X144930000Y-36300000D02*
X145771750Y-36300000D01*
X135400000Y-80440000D02*
X135510000Y-80550000D01*
X127790000Y-80310000D02*
X127790000Y-81185000D01*
X138010000Y-73910000D02*
X138010000Y-75030000D01*
X132420000Y-84020000D02*
X132400000Y-84040000D01*
D44*
X154540000Y-39170000D02*
X154540000Y-38101750D01*
D45*
X150081750Y-36441750D02*
X150090000Y-36450000D01*
D43*
X141925000Y-66115000D02*
X140815000Y-66115000D01*
X147520000Y-76292500D02*
X147520000Y-75410000D01*
X128420000Y-62460000D02*
X128400000Y-62440000D01*
D45*
X155480000Y-30741750D02*
X154508250Y-30741750D01*
D43*
X141060000Y-88790000D02*
X141020000Y-88830000D01*
X127790000Y-81185000D02*
X127800000Y-81195000D01*
D45*
X150088250Y-36451750D02*
X150090000Y-36450000D01*
X149080000Y-36441750D02*
X150081750Y-36441750D01*
D43*
X129300000Y-62460000D02*
X128420000Y-62460000D01*
X145160000Y-75280000D02*
X145200000Y-75240000D01*
D45*
X150178250Y-37940000D02*
X150180000Y-37941750D01*
D43*
X136300000Y-83140000D02*
X136300000Y-84040000D01*
X138040000Y-79837500D02*
X138000000Y-79877500D01*
D45*
X154508250Y-30741750D02*
X154470000Y-30780000D01*
D44*
X154540000Y-38101750D02*
X154380000Y-37941750D01*
D43*
X135400000Y-79640000D02*
X135400000Y-80440000D01*
X130575000Y-72615000D02*
X131715000Y-72615000D01*
X139050000Y-84000000D02*
X139030000Y-84020000D01*
X132000000Y-88830000D02*
X132000000Y-88580000D01*
X129480000Y-76870000D02*
X129470000Y-76880000D01*
X133000000Y-64800000D02*
X133000000Y-63690000D01*
D45*
X154401750Y-37920000D02*
X154380000Y-37941750D01*
X135030000Y-35750000D02*
X135030000Y-37055000D01*
X151580000Y-36940000D02*
X151580000Y-37941750D01*
D43*
X144110000Y-63440000D02*
X144100000Y-63450000D01*
X150108250Y-37870000D02*
X150180000Y-37941750D01*
X131715000Y-72615000D02*
X131720000Y-72610000D01*
X149670000Y-37870000D02*
X150108250Y-37870000D01*
X138040000Y-78980000D02*
X138040000Y-79837500D01*
D45*
X140990000Y-44260000D02*
X140115000Y-44260000D01*
D43*
X145000000Y-63440000D02*
X144110000Y-63440000D01*
X138010000Y-75030000D02*
X138000000Y-75040000D01*
X133170000Y-77030000D02*
X133170000Y-77910000D01*
D45*
X148070000Y-30900000D02*
X148921750Y-30900000D01*
D43*
X141925000Y-72615000D02*
X143025000Y-72615000D01*
D45*
X140115000Y-44260000D02*
X140105000Y-44270000D01*
X149051750Y-36470000D02*
X149080000Y-36441750D01*
D43*
X143025000Y-72615000D02*
X143060000Y-72650000D01*
D45*
X136730000Y-45940000D02*
X136720000Y-45930000D01*
X148921750Y-30900000D02*
X149080000Y-30741750D01*
D43*
X144300000Y-75280000D02*
X145160000Y-75280000D01*
X140815000Y-66115000D02*
X140780000Y-66150000D01*
D45*
%TO.N,Net-(R1-Pad2)*%
X121800000Y-71960000D02*
X122030000Y-71730000D01*
%TO.N,/OSC_OUT*%
X135000000Y-77540000D02*
X135000000Y-75040000D01*
X135400000Y-77940000D02*
X135000000Y-77540000D01*
X135400000Y-77940000D02*
X135602000Y-77940000D01*
X135602000Y-77940000D02*
X136401000Y-78739000D01*
X136401000Y-81864000D02*
X136300000Y-81965000D01*
X136401000Y-78739000D02*
X136401000Y-81864000D01*
%TO.N,/OSC_IN*%
X134201000Y-77039000D02*
X134201000Y-78739000D01*
X134500000Y-76740000D02*
X134201000Y-77039000D01*
X133200000Y-79640000D02*
X133200000Y-81165000D01*
X134500000Y-75040000D02*
X134500000Y-76740000D01*
X133200000Y-79640000D02*
X133402000Y-79640000D01*
X134201000Y-78739000D02*
X133300000Y-79640000D01*
X133300000Y-79640000D02*
X133200000Y-79640000D01*
X133200000Y-81165000D02*
X132400000Y-81965000D01*
D43*
%TO.N,Net-(D1-A)*%
X142125000Y-41930000D02*
X142125000Y-44240000D01*
X142125000Y-44240000D02*
X142155000Y-44270000D01*
%TO.N,/D+*%
X136630000Y-37055000D02*
X136630000Y-39460000D01*
X136630000Y-39460000D02*
X135720000Y-40370000D01*
%TO.N,/D-*%
X137430000Y-40010000D02*
X137780000Y-40360000D01*
X137430000Y-37055000D02*
X137430000Y-40010000D01*
%TO.N,Net-(J1-VBUS)*%
X139308000Y-38133000D02*
X138230000Y-37055000D01*
X140683000Y-38133000D02*
X139308000Y-38133000D01*
X142150000Y-39600000D02*
X140683000Y-38133000D01*
%TO.N,/USB_CONN_D+*%
X135720000Y-42370000D02*
X135720000Y-45880000D01*
X135720000Y-45880000D02*
X135770000Y-45930000D01*
%TO.N,/USB_CONN_D-*%
X137780000Y-45820000D02*
X137670000Y-45930000D01*
X137780000Y-42360000D02*
X137780000Y-45820000D01*
%TO.N,Vusb*%
X140100000Y-41905000D02*
X140125000Y-41930000D01*
X136720000Y-47812350D02*
X136720000Y-48205000D01*
X138298000Y-46644650D02*
X137728150Y-47214500D01*
X140125000Y-41930000D02*
X138298000Y-43757000D01*
X137728150Y-47214500D02*
X137317850Y-47214500D01*
X137317850Y-47214500D02*
X136720000Y-47812350D01*
X140100000Y-39600000D02*
X140100000Y-41905000D01*
X138298000Y-43757000D02*
X138298000Y-46644650D01*
D45*
%TO.N,/USB_D+*%
X135770000Y-49468603D02*
X134025000Y-51213603D01*
X135770000Y-48205000D02*
X135770000Y-49468603D01*
X134025000Y-62502499D02*
X134000000Y-62527499D01*
X134025000Y-51213603D02*
X134025000Y-62502499D01*
X134000000Y-62527499D02*
X134000000Y-63690000D01*
%TO.N,/USB_D-*%
X137670000Y-48867499D02*
X137368999Y-49168500D01*
X137368999Y-49168500D02*
X136706500Y-49168500D01*
X134475000Y-51400000D02*
X134475000Y-62502499D01*
X134500000Y-62527499D02*
X134500000Y-63690000D01*
X134475000Y-62502499D02*
X134500000Y-62527499D01*
X136706500Y-49168500D02*
X134475000Y-51400000D01*
X137670000Y-48205000D02*
X137670000Y-48867499D01*
%TO.N,Net-(D3-A)*%
X129990000Y-82315000D02*
X127835000Y-82315000D01*
X127835000Y-82315000D02*
X127790000Y-82360000D01*
D44*
%TO.N,+5V*%
X178674144Y-73600000D02*
X178850000Y-73600000D01*
D43*
%TO.N,/IMU_INT*%
X157240000Y-63530000D02*
X149316936Y-63530000D01*
X159335000Y-65625000D02*
X159335000Y-72805000D01*
X157240000Y-63530000D02*
X159335000Y-65625000D01*
X159335000Y-72805000D02*
X160865000Y-74335000D01*
X149316936Y-63530000D02*
X145231936Y-67615000D01*
X145231936Y-67615000D02*
X141925000Y-67615000D01*
%TO.N,/IMU_I2C_SCL*%
X149173468Y-63030000D02*
X145088468Y-67115000D01*
X145088468Y-67115000D02*
X141925000Y-67115000D01*
X160865000Y-61635000D02*
X162043000Y-62813000D01*
X157570000Y-63030000D02*
X149173468Y-63030000D01*
X162043000Y-62813000D02*
X162043000Y-64662944D01*
X161352944Y-65353000D02*
X159893000Y-65353000D01*
X162043000Y-64662944D02*
X161352944Y-65353000D01*
X159893000Y-65353000D02*
X157570000Y-63030000D01*
%TO.N,/IMU_I2C_SDA*%
X160865000Y-64175000D02*
X159220000Y-62530000D01*
X149030000Y-62530000D02*
X144945000Y-66615000D01*
X144945000Y-66615000D02*
X141925000Y-66615000D01*
X159220000Y-62530000D02*
X149030000Y-62530000D01*
%TO.N,Net-(D4-A)*%
X143820000Y-32831750D02*
X143820000Y-36201750D01*
X143820000Y-36201750D02*
X143760000Y-36261750D01*
%TO.N,/BL_WAKEUP*%
X155636000Y-34341750D02*
X149080000Y-34341750D01*
X144190000Y-45121276D02*
X144190000Y-41530000D01*
X154870000Y-39940000D02*
X156508000Y-38302000D01*
X136000000Y-52510000D02*
X139380000Y-49130000D01*
X140436936Y-46470000D02*
X142841277Y-46469999D01*
X156508000Y-35213750D02*
X155636000Y-34341750D01*
X142841277Y-46469999D02*
X144190000Y-45121276D01*
X136000000Y-63690000D02*
X136000000Y-52510000D01*
X144190000Y-41530000D02*
X145780000Y-39940000D01*
X145780000Y-39940000D02*
X154870000Y-39940000D01*
X156508000Y-38302000D02*
X156508000Y-35213750D01*
X139380000Y-49130000D02*
X139380000Y-47526936D01*
X139380000Y-47526936D02*
X140436936Y-46470000D01*
%TO.N,/BL_RX*%
X143735000Y-38680000D02*
X143735000Y-44932808D01*
X148126000Y-35741750D02*
X147415000Y-36452750D01*
X143805000Y-38625000D02*
X143790000Y-38625000D01*
X143790000Y-38625000D02*
X143735000Y-38680000D01*
X147415000Y-37358468D02*
X146643467Y-38130000D01*
X138925000Y-47338468D02*
X138925000Y-48938468D01*
X149080000Y-35741750D02*
X148126000Y-35741750D01*
X146643467Y-38130000D02*
X144300000Y-38130000D01*
X140248468Y-46015000D02*
X138925000Y-47338468D01*
X147415000Y-36452750D02*
X147415000Y-37358468D01*
X144300000Y-38130000D02*
X143805000Y-38625000D01*
X135500000Y-52363468D02*
X135500000Y-63690000D01*
X143735000Y-44932808D02*
X142652809Y-46015000D01*
X138925000Y-48938468D02*
X135500000Y-52363468D01*
X142652809Y-46015000D02*
X140248468Y-46015000D01*
%TO.N,/BL_TX*%
X143280000Y-38020000D02*
X143280000Y-44744342D01*
X149080000Y-35041750D02*
X147448250Y-35041750D01*
X143280000Y-44744342D02*
X142464342Y-45560000D01*
X143800000Y-37500000D02*
X143280000Y-38020000D01*
X146630000Y-37500000D02*
X143800000Y-37500000D01*
X135000000Y-52220000D02*
X135000000Y-63690000D01*
X146960000Y-37170000D02*
X146630000Y-37500000D01*
X138470000Y-47150000D02*
X138470000Y-48750000D01*
X146960000Y-35530000D02*
X146960000Y-37170000D01*
X138470000Y-48750000D02*
X135000000Y-52220000D01*
X147448250Y-35041750D02*
X146960000Y-35530000D01*
X140060000Y-45560000D02*
X138470000Y-47150000D01*
X142464342Y-45560000D02*
X140060000Y-45560000D01*
%TO.N,Net-(MDBT42T-AT1-INDICATOR)*%
X146630000Y-33641750D02*
X149080000Y-33641750D01*
X145820000Y-32831750D02*
X146630000Y-33641750D01*
%TO.N,/SWCLK*%
X123145000Y-65615000D02*
X130575000Y-65615000D01*
X111060000Y-53530000D02*
X123145000Y-65615000D01*
%TO.N,/SWDIO*%
X133500000Y-62842992D02*
X124187008Y-53530000D01*
X133500000Y-63690000D02*
X133500000Y-62842992D01*
X124187008Y-53530000D02*
X116140000Y-53530000D01*
%TO.N,/uBUTTON*%
X150917500Y-65617500D02*
X150790000Y-65490000D01*
X150270000Y-68615000D02*
X141925000Y-68615000D01*
X156167500Y-67967500D02*
X150917500Y-67967500D01*
X150917500Y-67967500D02*
X150270000Y-68615000D01*
X150917500Y-67967500D02*
X150917500Y-65617500D01*
%TO.N,/BN2*%
X140830000Y-47080000D02*
X140110000Y-47800000D01*
X142874743Y-47080000D02*
X140830000Y-47080000D01*
X140110000Y-47800000D02*
X140110000Y-49043468D01*
X149930000Y-45150000D02*
X148627000Y-43847000D01*
X148627000Y-43847000D02*
X145393000Y-43847000D01*
X140110000Y-49043468D02*
X136500000Y-52653468D01*
X145393000Y-43847000D02*
X144770000Y-44470000D01*
X144770000Y-45184743D02*
X142874743Y-47080000D01*
X136500000Y-52653468D02*
X136500000Y-63690000D01*
X144770000Y-44470000D02*
X144770000Y-45184743D01*
%TO.N,/E1B*%
X141947000Y-70637000D02*
X141950000Y-70637000D01*
%TD*%
M02*
